<?xml version="1.0" encoding="UTF-8"?>
<svg xmlns="http://www.w3.org/2000/svg" xmlns:xlink="http://www.w3.org/1999/xlink" version="1.1" style="" xml:space="preserve" width="814.1701049804688" height="214"><rect id="backgroundrect" width="100%" height="100%" x="0" y="0" fill="none" stroke="none"></rect>
<style type="text/css">
	.st0{fill:#1A1A18;stroke:#1A1A18;stroke-width:0.8;stroke-miterlimit:10;}
	.st1{fill:#1A1A18;}
	.st2{fill:#DD4814;}
</style>





<g class="currentLayer" style=""><title>Layer 1</title><g id="svg_1" class="">
	<path class="st0" d="M297.7999978542328,62.01493773460388 c-3.4,0 -6.2,-0.7000000000000003 -8.4,-2 c-2.2,-1.3 -3.8,-3.1 -4.8,-5.4 c-1.1,-2.3 -1.6,-4.9 -1.7000000000000002,-7.8 c0,-1.5 -0.1,-3.2 -0.1,-5 s0,-3.5 0.1,-5.1 c0.1,-2.9 0.7000000000000003,-5.6 1.7000000000000002,-7.9 c1.1,-2.3 2.7,-4.1 4.8,-5.4 c2.2,-1.3 4.9,-2 8.4,-2 c2.7,0 4.9,0.4 6.8,1.1 c1.9,0.8 3.4,1.7000000000000002 4.6,3 c1.2,1.2 2.1,2.5 2.6,3.9 c0.6000000000000003,1.4 0.9,2.8 1,4.1 c0,0.30000000000000016 -0.1,0.6000000000000003 -0.30000000000000016,0.8 c-0.2,0.2 -0.5,0.30000000000000016 -0.9,0.30000000000000016 h-1.1 c-0.30000000000000016,0 -0.6000000000000003,-0.1 -0.8,-0.30000000000000016 c-0.2,-0.2 -0.4,-0.5 -0.5,-0.9 c-0.7000000000000003,-3.3 -2.1,-5.6 -4,-6.9 c-2,-1.2 -4.5,-1.9 -7.5,-1.9 c-3.4,0 -6.1,1 -8.1,2.9 s-3.1,5 -3.2,9.3 c-0.1,3.1 -0.1,6.2 0,9.5 c0.1,4.2 1.2,7.3 3.2,9.3 c2,1.9 4.7,2.9 8.1,2.9 c3,0 5.5,-0.6000000000000003 7.5,-1.9 c2,-1.2 3.3,-3.5 4,-6.9 c0.1,-0.5 0.2,-0.8 0.5,-0.9 c0.2,-0.2 0.5,-0.30000000000000016 0.8,-0.30000000000000016 h1.1 c0.30000000000000016,0 0.6000000000000003,0.1 0.9,0.30000000000000016 c0.2,0.2 0.30000000000000016,0.5 0.30000000000000016,0.8 c-0.1,1.4 -0.4,2.7 -1,4.1 s-1.5,2.7 -2.6,3.9 c-1.2,1.2 -2.7,2.2 -4.6,3 C302.6999978542328,61.614937734603885 300.4999978542328,62.01493773460388 297.7999978542328,62.01493773460388 z" id="svg_2"></path>
	<path class="st0" d="M338.39999785423277,62.01493773460388 c-3.1,0 -5.8,-0.6000000000000003 -7.9,-1.7000000000000002 c-2.2,-1.1 -3.9,-2.8 -5,-5.1 c-1.2,-2.3 -1.8,-5.2 -1.9,-8.8 c0,-1.7000000000000002 -0.1,-3.3 -0.1,-4.7 c0,-1.5 0,-3 0.1,-4.7 c0.1,-3.5 0.8,-6.4 2,-8.7 s3,-4 5.2,-5.2 c2.2,-1.1 4.8,-1.7000000000000002 7.7,-1.7000000000000002 s5.5,0.6000000000000003 7.7,1.7000000000000002 s3.9,2.8 5.2,5.2 c1.3,2.3 1.9,5.2 2,8.7 c0.1,1.7000000000000002 0.1,3.3 0.1,4.7 c0,1.5 0,3 -0.1,4.7 c-0.1,3.5 -0.7000000000000003,6.5 -1.9,8.8 s-2.9,4 -5,5.1 C344.1999978542328,61.41493773460388 341.5999978542328,62.01493773460388 338.39999785423277,62.01493773460388 zM338.39999785423277,58.614937734603885 c3.2,0 5.9,-1 8,-2.9 c2.1,-2 3.2,-5.1 3.4,-9.5 c0.1,-1.7000000000000002 0.1,-3.2 0.1,-4.5 s0,-2.8 -0.1,-4.5 c-0.1,-2.9 -0.6000000000000003,-5.3 -1.6,-7.2 c-1,-1.8 -2.3,-3.2 -4,-4 s-3.6,-1.3 -5.7,-1.3 s-4,0.4 -5.7,1.3 c-1.7000000000000002,0.8 -3,2.2 -4,4 s-1.5,4.2 -1.7000000000000002,7.2 c0,1.7000000000000002 -0.1,3.2 -0.1,4.5 s0,2.8 0.1,4.5 c0.1,4.4 1.3,7.6 3.4,9.5 C332.5999978542328,57.614937734603885 335.1999978542328,58.614937734603885 338.39999785423277,58.614937734603885 z" id="svg_3"></path>
	<path class="st0" d="M366.4999978542328,61.41493773460388 c-0.4,0 -0.7000000000000003,-0.1 -0.9,-0.30000000000000016 c-0.2,-0.2 -0.4,-0.5 -0.4,-0.9 V23.31493773460388 c0,-0.4 0.1,-0.7000000000000003 0.4,-1 c0.2,-0.2 0.6000000000000003,-0.30000000000000016 0.9,-0.30000000000000016 h1.4 c0.4,0 0.7000000000000003,0.1 0.8,0.30000000000000016 c0.2,0.2 0.30000000000000016,0.30000000000000016 0.30000000000000016,0.5 l12.8,24.9 l12.8,-24.9 c0.1,-0.1 0.2,-0.30000000000000016 0.4,-0.5 s0.4,-0.30000000000000016 0.8,-0.30000000000000016 h1.4 c0.4,0 0.7000000000000003,0.1 1,0.30000000000000016 c0.2,0.2 0.30000000000000016,0.5 0.30000000000000016,1 v36.9 c0,0.4 -0.1,0.7000000000000003 -0.30000000000000016,0.9 c-0.2,0.2 -0.5,0.30000000000000016 -1,0.30000000000000016 h-1 c-0.4,0 -0.7000000000000003,-0.1 -0.9,-0.30000000000000016 c-0.2,-0.2 -0.30000000000000016,-0.5 -0.30000000000000016,-0.9 V29.714937734603883 l-10.8,21.2 c-0.2,0.4 -0.4,0.7000000000000003 -0.6000000000000003,0.8 c-0.30000000000000016,0.2 -0.6000000000000003,0.30000000000000016 -1.1,0.30000000000000016 h-1.2 c-0.5,0 -0.8,-0.1 -1.1,-0.30000000000000016 c-0.30000000000000016,-0.2 -0.5,-0.5 -0.7000000000000003,-0.8 l-10.8,-21.2 v30.5 c0,0.4 -0.1,0.7000000000000003 -0.30000000000000016,0.9 c-0.2,0.2 -0.5,0.30000000000000016 -0.9,0.30000000000000016 H366.4999978542328 z" id="svg_4"></path>
	<path class="st0" d="M413.1999978542328,61.41493773460388 c-0.4,0 -0.7000000000000003,-0.1 -0.9,-0.30000000000000016 c-0.2,-0.2 -0.30000000000000016,-0.5 -0.30000000000000016,-0.9 V23.31493773460388 c0,-0.4 0.1,-0.7000000000000003 0.30000000000000016,-1 c0.2,-0.2 0.5,-0.30000000000000016 0.9,-0.30000000000000016 h13.7 c2.6,0 4.9,0.4 6.8,1.3 s3.4,2.2 4.5,3.9 c1.1,1.7000000000000002 1.6,3.9 1.6,6.4 c0,2.6 -0.5,4.7 -1.6,6.4 s-2.6,3 -4.5,3.9 s-4.2,1.3 -6.8,1.3 h-11.4 v14.9 c0,0.4 -0.1,0.7000000000000003 -0.30000000000000016,0.9 c-0.2,0.2 -0.5,0.30000000000000016 -1,0.30000000000000016 L413.1999978542328,61.41493773460388 L413.1999978542328,61.41493773460388 L413.1999978542328,61.41493773460388 zM415.4999978542328,41.91493773460388 h11.1 c3.3,0 5.7,-0.7000000000000003 7.3,-2.1 s2.4,-3.5 2.4,-6.1 c0,-2.7 -0.8,-4.7 -2.4,-6.1 s-4,-2.1 -7.3,-2.1 h-11.1 V41.91493773460388 z" id="svg_5"></path>
	<path class="st0" d="M464.39999785423277,62.01493773460388 c-3,0 -5.6,-0.6000000000000003 -7.8,-1.7000000000000002 s-3.8,-2.9 -5,-5.2 s-1.7000000000000002,-5.3 -1.7000000000000002,-9 V23.214937734603883 c0,-0.4 0.1,-0.7000000000000003 0.30000000000000016,-1 c0.2,-0.2 0.5,-0.30000000000000016 0.9,-0.30000000000000016 h1 c0.4,0 0.7000000000000003,0.1 1,0.30000000000000016 c0.2,0.2 0.30000000000000016,0.5 0.30000000000000016,1 v23 c0,4.2 1,7.3 3,9.3 s4.6,3 8,3 c3.3,0 6,-1 8,-3 s3,-5.1 3,-9.3 v-23 c0,-0.4 0.1,-0.7000000000000003 0.4,-1 c0.2,-0.2 0.6000000000000003,-0.30000000000000016 0.9,-0.30000000000000016 h1 c0.4,0 0.7000000000000003,0.1 0.9,0.30000000000000016 c0.2,0.2 0.30000000000000016,0.5 0.30000000000000016,1 v22.9 c0,3.6 -0.6000000000000003,6.6 -1.7000000000000002,9 c-1.1,2.3 -2.8,4.1 -4.9,5.2 C470.0999978542328,61.41493773460388 467.39999785423277,62.01493773460388 464.39999785423277,62.01493773460388 z" id="svg_6"></path>
	<path class="st0" d="M502.89999785423277,61.41493773460388 c-0.4,0 -0.7000000000000003,-0.1 -0.9,-0.30000000000000016 c-0.2,-0.2 -0.30000000000000016,-0.5 -0.30000000000000016,-0.9 V25.414937734603882 h-11.2 c-0.4,0 -0.7000000000000003,-0.1 -0.9,-0.30000000000000016 s-0.30000000000000016,-0.5 -0.30000000000000016,-0.9 V23.414937734603882 c0,-0.4 0.1,-0.7000000000000003 0.30000000000000016,-1 c0.2,-0.2 0.5,-0.30000000000000016 0.9,-0.30000000000000016 h25.8 c0.4,0 0.7000000000000003,0.1 1,0.30000000000000016 c0.2,0.2 0.30000000000000016,0.5 0.30000000000000016,1 v0.8 c0,0.4 -0.1,0.7000000000000003 -0.30000000000000016,0.9 s-0.5,0.30000000000000016 -1,0.30000000000000016 h-11.1 v34.8 c0,0.4 -0.1,0.7000000000000003 -0.30000000000000016,0.9 c-0.2,0.2 -0.5,0.30000000000000016 -1,0.30000000000000016 C503.89999785423277,61.41493773460388 502.89999785423277,61.41493773460388 502.89999785423277,61.41493773460388 z" id="svg_7"></path>
	<path class="st0" d="M524.3999978542328,61.41493773460388 c-0.30000000000000016,0 -0.6000000000000003,-0.1 -0.8,-0.30000000000000016 s-0.30000000000000016,-0.5 -0.30000000000000016,-0.8 c0,-0.2 0,-0.4 0.1,-0.6000000000000003 l14.3,-36.6 c0.2,-0.4 0.30000000000000016,-0.7000000000000003 0.6000000000000003,-0.8 c0.2,-0.2 0.6000000000000003,-0.30000000000000016 1,-0.30000000000000016 h1.9 c0.5,0 0.8,0.1 1,0.30000000000000016 c0.2,0.2 0.4,0.5 0.6000000000000003,0.8 l14.3,36.6 c0.1,0.2 0.1,0.4 0.1,0.6000000000000003 c0,0.30000000000000016 -0.1,0.6000000000000003 -0.30000000000000016,0.8 s-0.5,0.30000000000000016 -0.8,0.30000000000000016 H554.9999978542328 c-0.4,0 -0.7000000000000003,-0.1 -0.8,-0.30000000000000016 c-0.2,-0.2 -0.30000000000000016,-0.4 -0.4,-0.5 l-3.5,-9 h-19.9 l-3.5,9 c0,0.2 -0.2,0.30000000000000016 -0.4,0.5 S525.9999978542328,61.41493773460388 525.5999978542328,61.41493773460388 H524.3999978542328 zM531.5999978542328,48.114937734603885 h17.2 l-8.6,-22.2 L531.5999978542328,48.114937734603885 z" id="svg_8"></path>
	<path class="st0" d="M575.3999978542328,61.41493773460388 c-0.4,0 -0.7000000000000003,-0.1 -0.9,-0.30000000000000016 s-0.30000000000000016,-0.5 -0.30000000000000016,-0.9 V25.414937734603882 H562.9999978542328 c-0.4,0 -0.7000000000000003,-0.1 -0.9,-0.30000000000000016 s-0.30000000000000016,-0.5 -0.30000000000000016,-0.9 V23.414937734603882 c0,-0.4 0.1,-0.7000000000000003 0.30000000000000016,-1 c0.2,-0.2 0.5,-0.30000000000000016 0.9,-0.30000000000000016 h25.8 c0.4,0 0.7000000000000003,0.1 1,0.30000000000000016 c0.2,0.2 0.30000000000000016,0.5 0.30000000000000016,1 v0.8 c0,0.4 -0.1,0.7000000000000003 -0.30000000000000016,0.9 s-0.5,0.30000000000000016 -1,0.30000000000000016 h-11.1 v34.8 c0,0.4 -0.1,0.7000000000000003 -0.30000000000000016,0.9 s-0.5,0.30000000000000016 -1,0.30000000000000016 C576.3999978542328,61.41493773460388 575.3999978542328,61.41493773460388 575.3999978542328,61.41493773460388 z" id="svg_9"></path>
	<path class="st0" d="M602.0999978542328,61.41493773460388 c-0.4,0 -0.7000000000000003,-0.1 -0.9,-0.30000000000000016 s-0.30000000000000016,-0.5 -0.30000000000000016,-0.9 v-37 c0,-0.4 0.1,-0.7000000000000003 0.30000000000000016,-0.9 c0.2,-0.2 0.5,-0.30000000000000016 0.9,-0.30000000000000016 h1.1 c0.4,0 0.7000000000000003,0.1 0.9,0.30000000000000016 c0.2,0.2 0.30000000000000016,0.5 0.30000000000000016,0.9 v37 c0,0.4 -0.1,0.7000000000000003 -0.30000000000000016,0.9 s-0.5,0.30000000000000016 -0.9,0.30000000000000016 H602.0999978542328 z" id="svg_10"></path>
	<path class="st0" d="M632.2999978542327,62.01493773460388 c-3.1,0 -5.8,-0.6000000000000003 -7.9,-1.7000000000000002 c-2.2,-1.1 -3.9,-2.8 -5,-5.1 c-1.2,-2.3 -1.8,-5.2 -1.9,-8.8 c0,-1.7000000000000002 -0.1,-3.3 -0.1,-4.7 c0,-1.5 0,-3 0.1,-4.7 c0.1,-3.5 0.8,-6.4 2,-8.7 s3,-4 5.2,-5.2 c2.2,-1.1 4.8,-1.7000000000000002 7.7,-1.7000000000000002 s5.5,0.6000000000000003 7.7,1.7000000000000002 s3.9,2.8 5.2,5.2 c1.3,2.3 1.9,5.2 2,8.7 c0.1,1.7000000000000002 0.1,3.3 0.1,4.7 c0,1.5 0,3 -0.1,4.7 c-0.1,3.5 -0.7000000000000003,6.5 -1.9,8.8 s-2.9,4 -5,5.1 C638.0999978542328,61.41493773460388 635.4999978542328,62.01493773460388 632.2999978542327,62.01493773460388 zM632.2999978542327,58.614937734603885 c3.2,0 5.9,-1 8,-2.9 c2.1,-2 3.2,-5.1 3.4,-9.5 c0.1,-1.7000000000000002 0.1,-3.2 0.1,-4.5 s0,-2.8 -0.1,-4.5 c-0.1,-2.9 -0.6000000000000003,-5.3 -1.6,-7.2 c-1,-1.8 -2.3,-3.2 -4,-4 s-3.6,-1.3 -5.7,-1.3 c-2.1,0 -4,0.4 -5.7,1.3 c-1.7000000000000002,0.8 -3,2.2 -4,4 s-1.5,4.2 -1.7000000000000002,7.2 c0,1.7000000000000002 -0.1,3.2 -0.1,4.5 s0,2.8 0.1,4.5 c0.1,4.4 1.3,7.6 3.4,9.5 C626.4999978542328,57.614937734603885 629.0999978542328,58.614937734603885 632.2999978542327,58.614937734603885 z" id="svg_11"></path>
	<path class="st0" d="M660.2999978542327,61.41493773460388 c-0.4,0 -0.7000000000000003,-0.1 -0.9,-0.30000000000000016 s-0.30000000000000016,-0.5 -0.30000000000000016,-0.9 V23.31493773460388 c0,-0.4 0.1,-0.7000000000000003 0.30000000000000016,-1 c0.2,-0.2 0.5,-0.30000000000000016 0.9,-0.30000000000000016 h1.2 c0.4,0 0.7000000000000003,0.1 0.8,0.30000000000000016 c0.2,0.2 0.30000000000000016,0.30000000000000016 0.30000000000000016,0.4 l20.8,31.8 V23.31493773460388 c0,-0.4 0.1,-0.7000000000000003 0.30000000000000016,-1 c0.2,-0.2 0.5,-0.30000000000000016 0.9,-0.30000000000000016 h1 c0.4,0 0.7000000000000003,0.1 1,0.30000000000000016 c0.2,0.2 0.30000000000000016,0.5 0.30000000000000016,1 v36.9 c0,0.4 -0.1,0.7000000000000003 -0.30000000000000016,0.9 s-0.5,0.4 -0.9,0.4 h-1.2 c-0.4,0 -0.6000000000000003,-0.1 -0.8,-0.30000000000000016 s-0.30000000000000016,-0.30000000000000016 -0.4,-0.4 l-20.7,-31.7 v31.1 c0,0.4 -0.1,0.7000000000000003 -0.30000000000000016,0.9 s-0.5,0.30000000000000016 -1,0.30000000000000016 L660.2999978542327,61.41493773460388 L660.2999978542327,61.41493773460388 z" id="svg_12"></path>
	<path class="st0" d="M698.7999978542327,61.41493773460388 c-0.30000000000000016,0 -0.6000000000000003,-0.1 -0.8,-0.30000000000000016 s-0.30000000000000016,-0.5 -0.30000000000000016,-0.8 c0,-0.2 0,-0.4 0.1,-0.6000000000000003 l14.3,-36.6 c0.2,-0.4 0.30000000000000016,-0.7000000000000003 0.6000000000000003,-0.8 c0.2,-0.2 0.6000000000000003,-0.30000000000000016 1,-0.30000000000000016 h1.9 c0.5,0 0.8,0.1 1,0.30000000000000016 c0.2,0.2 0.4,0.5 0.6000000000000003,0.8 l14.3,36.6 c0.1,0.2 0.1,0.4 0.1,0.6000000000000003 c0,0.30000000000000016 -0.1,0.6000000000000003 -0.30000000000000016,0.8 s-0.5,0.30000000000000016 -0.8,0.30000000000000016 h-1.1 c-0.4,0 -0.7000000000000003,-0.1 -0.8,-0.30000000000000016 c-0.2,-0.2 -0.30000000000000016,-0.4 -0.4,-0.5 l-3.5,-9 h-19.9 l-3.5,9 c0,0.2 -0.2,0.30000000000000016 -0.4,0.5 S700.3999978542328,61.41493773460388 699.9999978542328,61.41493773460388 H698.7999978542327 zM705.9999978542328,48.114937734603885 h17.2 l-8.6,-22.2 L705.9999978542328,48.114937734603885 z" id="svg_13"></path>
	<path class="st0" d="M743.3999978542328,61.41493773460388 c-0.4,0 -0.7000000000000003,-0.1 -0.9,-0.30000000000000016 s-0.30000000000000016,-0.5 -0.30000000000000016,-0.9 v-37 c0,-0.4 0.1,-0.7000000000000003 0.30000000000000016,-0.9 c0.2,-0.2 0.5,-0.30000000000000016 0.9,-0.30000000000000016 h1.1 c0.4,0 0.7000000000000003,0.1 0.9,0.30000000000000016 c0.2,0.2 0.30000000000000016,0.5 0.30000000000000016,0.9 v34.8 h19.4 c0.4,0 0.7000000000000003,0.1 1,0.30000000000000016 c0.2,0.2 0.30000000000000016,0.5 0.30000000000000016,1 v0.8 c0,0.4 -0.1,0.7000000000000003 -0.30000000000000016,0.9 s-0.5,0.30000000000000016 -1,0.30000000000000016 h-21.7 V61.41493773460388 z" id="svg_14"></path>
	<path class="st0" d="M285.6999978542328,126.7149377346039 c-0.4,0 -0.7000000000000003,-0.1 -0.9,-0.30000000000000016 s-0.30000000000000016,-0.5 -0.30000000000000016,-0.9 V88.61493773460388 c0,-0.4 0.1,-0.7000000000000003 0.30000000000000016,-1 c0.2,-0.2 0.5,-0.30000000000000016 0.9,-0.30000000000000016 h22 c0.4,0 0.7000000000000003,0.1 1,0.30000000000000016 c0.2,0.2 0.30000000000000016,0.5 0.30000000000000016,1 V89.41493773460388 c0,0.4 -0.1,0.7000000000000003 -0.30000000000000016,0.9 c-0.2,0.2 -0.5,0.30000000000000016 -1,0.30000000000000016 H287.9999978542328 v14.4 h18.4 c0.4,0 0.7000000000000003,0.1 1,0.30000000000000016 s0.30000000000000016,0.5 0.30000000000000016,1 v0.8 c0,0.4 -0.1,0.7000000000000003 -0.30000000000000016,0.9 c-0.2,0.2 -0.5,0.30000000000000016 -1,0.30000000000000016 H287.9999978542328 v14.9 h20.1 c0.4,0 0.7000000000000003,0.1 1,0.30000000000000016 c0.2,0.2 0.30000000000000016,0.5 0.30000000000000016,1 v0.8 c0,0.4 -0.1,0.7000000000000003 -0.30000000000000016,0.9 s-0.5,0.30000000000000016 -1,0.30000000000000016 h-22.4 V126.7149377346039 z" id="svg_15"></path>
	<path class="st0" d="M323.0999978542328,126.7149377346039 c-0.4,0 -0.7000000000000003,-0.1 -0.9,-0.30000000000000016 c-0.2,-0.2 -0.4,-0.5 -0.4,-0.9 V88.61493773460388 c0,-0.4 0.1,-0.7000000000000003 0.4,-1 c0.2,-0.2 0.6000000000000003,-0.30000000000000016 0.9,-0.30000000000000016 h1.4 c0.4,0 0.7000000000000003,0.1 0.8,0.30000000000000016 c0.2,0.2 0.30000000000000016,0.30000000000000016 0.30000000000000016,0.5 l12.8,24.9 l12.8,-24.9 c0.1,-0.1 0.2,-0.30000000000000016 0.4,-0.5 s0.4,-0.30000000000000016 0.8,-0.30000000000000016 h1.4 c0.4,0 0.7000000000000003,0.1 1,0.30000000000000016 c0.2,0.2 0.30000000000000016,0.5 0.30000000000000016,1 v36.9 c0,0.4 -0.1,0.7000000000000003 -0.30000000000000016,0.9 s-0.5,0.30000000000000016 -1,0.30000000000000016 h-1 c-0.4,0 -0.7000000000000003,-0.1 -0.9,-0.30000000000000016 s-0.30000000000000016,-0.5 -0.30000000000000016,-0.9 V95.01493773460388 l-10.8,21.2 c-0.2,0.4 -0.4,0.7000000000000003 -0.6000000000000003,0.8 c-0.30000000000000016,0.2 -0.6000000000000003,0.30000000000000016 -1.1,0.30000000000000016 h-1.2 c-0.5,0 -0.8,-0.1 -1.1,-0.30000000000000016 c-0.30000000000000016,-0.2 -0.5,-0.5 -0.7000000000000003,-0.8 l-10.8,-21.2 v30.5 c0,0.4 -0.1,0.7000000000000003 -0.30000000000000016,0.9 s-0.5,0.30000000000000016 -0.9,0.30000000000000016 C324.0999978542328,126.7149377346039 323.0999978542328,126.7149377346039 323.0999978542328,126.7149377346039 z" id="svg_16"></path>
	<path class="st0" d="M370.89999785423277,126.7149377346039 c-0.4,0 -0.7000000000000003,-0.1 -0.9,-0.30000000000000016 s-0.30000000000000016,-0.5 -0.30000000000000016,-0.9 V88.61493773460388 c0,-0.4 0.1,-0.7000000000000003 0.30000000000000016,-1 c0.2,-0.2 0.5,-0.30000000000000016 0.9,-0.30000000000000016 h13.7 c2.6,0 4.9,0.4 6.8,1.3 s3.4,2.2 4.5,3.9 s1.6,3.9 1.6,6.4 c0,2.6 -0.5,4.7 -1.6,6.4 s-2.6,3 -4.5,3.9 s-4.2,1.3 -6.8,1.3 h-11.4 V125.41493773460388 c0,0.4 -0.1,0.7000000000000003 -0.30000000000000016,0.9 s-0.5,0.30000000000000016 -1,0.30000000000000016 L370.89999785423277,126.7149377346039 L370.89999785423277,126.7149377346039 zM373.1999978542328,107.21493773460388 h11.1 c3.3,0 5.7,-0.7000000000000003 7.3,-2.1 c1.6,-1.4 2.4,-3.5 2.4,-6.1 c0,-2.7 -0.8,-4.7 -2.4,-6.1 s-4,-2.1 -7.3,-2.1 h-11.1 V107.21493773460388 z" id="svg_17"></path>
	<path class="st0" d="M422.2999978542328,127.31493773460389 c-3.1,0 -5.8,-0.6000000000000003 -7.9,-1.7000000000000002 s-3.9,-2.8 -5,-5.1 c-1.2,-2.3 -1.8,-5.2 -1.9,-8.8 c0,-1.7000000000000002 -0.1,-3.3 -0.1,-4.7 c0,-1.5 0,-3 0.1,-4.7 c0.1,-3.5 0.8,-6.4 2,-8.7 s3,-4 5.2,-5.2 c2.2,-1.1 4.8,-1.7000000000000002 7.7,-1.7000000000000002 s5.5,0.6000000000000003 7.7,1.7000000000000002 s3.9,2.8 5.2,5.2 c1.3,2.3 1.9,5.2 2,8.7 c0.1,1.7000000000000002 0.1,3.3 0.1,4.7 c0,1.5 0,3 -0.1,4.7 c-0.1,3.5 -0.7000000000000003,6.5 -1.9,8.8 s-2.9,4 -5,5.1 C428.0999978542328,126.7149377346039 425.4999978542328,127.31493773460389 422.2999978542328,127.31493773460389 zM422.2999978542328,123.91493773460388 c3.2,0 5.9,-1 8,-2.9 c2.1,-2 3.2,-5.1 3.4,-9.5 c0.1,-1.7000000000000002 0.1,-3.2 0.1,-4.5 s0,-2.8 -0.1,-4.5 c-0.1,-2.9 -0.6000000000000003,-5.3 -1.6,-7.2 c-1,-1.8 -2.3,-3.2 -4,-4 s-3.6,-1.3 -5.7,-1.3 s-4,0.4 -5.7,1.3 c-1.7000000000000002,0.8 -3,2.2 -4,4 s-1.5,4.2 -1.7000000000000002,7.2 c0,1.7000000000000002 -0.1,3.2 -0.1,4.5 s0,2.8 0.1,4.5 c0.1,4.4 1.3,7.6 3.4,9.5 C416.4999978542328,122.91493773460388 419.0999978542328,123.91493773460388 422.2999978542328,123.91493773460388 z" id="svg_18"></path>
	<path class="st0" d="M455.89999785423277,126.7149377346039 c-0.5,0 -0.8,-0.1 -1,-0.30000000000000016 s-0.4,-0.6000000000000003 -0.5,-1 l-7.7,-36.3 c0,-0.1 -0.1,-0.30000000000000016 -0.1,-0.4 s0,-0.2 0,-0.30000000000000016 c0,-0.30000000000000016 0.1,-0.6000000000000003 0.30000000000000016,-0.8 s0.5,-0.30000000000000016 0.8,-0.30000000000000016 h1.2 c0.7000000000000003,0 1.1,0.30000000000000016 1.2,0.8 l6.6,32.1 l7,-22.9 c0.1,-0.30000000000000016 0.30000000000000016,-0.6000000000000003 0.6000000000000003,-0.9 c0.30000000000000016,-0.30000000000000016 0.7000000000000003,-0.4 1.2,-0.4 h1.2 c0.5,0 0.9,0.1 1.2,0.4 c0.30000000000000016,0.30000000000000016 0.5,0.6000000000000003 0.6000000000000003,0.9 l7,22.9 l6.6,-32.1 c0.1,-0.6000000000000003 0.5,-0.8 1.2,-0.8 h1.2 c0.30000000000000016,0 0.6000000000000003,0.1 0.8,0.30000000000000016 s0.30000000000000016,0.5 0.30000000000000016,0.8 c0,0 0,0.1 0,0.30000000000000016 c0,0.1 0,0.30000000000000016 -0.1,0.4 l-7.7,36.3 c-0.1,0.5 -0.30000000000000016,0.8 -0.5,1 s-0.6000000000000003,0.30000000000000016 -1,0.30000000000000016 h-0.8 c-0.5,0 -0.8,-0.1 -1.1,-0.30000000000000016 s-0.5,-0.6000000000000003 -0.6000000000000003,-1 l-7.5,-23.8 l-7.5,23.8 c-0.2,0.5 -0.4,0.8 -0.6000000000000003,1 c-0.30000000000000016,0.2 -0.6000000000000003,0.30000000000000016 -1.1,0.30000000000000016 H455.89999785423277 z" id="svg_19"></path>
	<path class="st0" d="M497.5999978542328,126.7149377346039 c-0.4,0 -0.7000000000000003,-0.1 -0.9,-0.30000000000000016 s-0.30000000000000016,-0.5 -0.30000000000000016,-0.9 V88.61493773460388 c0,-0.4 0.1,-0.7000000000000003 0.30000000000000016,-1 c0.2,-0.2 0.5,-0.30000000000000016 0.9,-0.30000000000000016 h22 c0.4,0 0.7000000000000003,0.1 1,0.30000000000000016 c0.2,0.2 0.30000000000000016,0.5 0.30000000000000016,1 V89.41493773460388 c0,0.4 -0.1,0.7000000000000003 -0.30000000000000016,0.9 s-0.5,0.30000000000000016 -1,0.30000000000000016 h-19.7 v14.4 h18.4 c0.4,0 0.7000000000000003,0.1 1,0.30000000000000016 s0.30000000000000016,0.5 0.30000000000000016,1 v0.8 c0,0.4 -0.1,0.7000000000000003 -0.30000000000000016,0.9 s-0.5,0.30000000000000016 -1,0.30000000000000016 h-18.4 v14.9 H519.9999978542328 c0.4,0 0.7000000000000003,0.1 1,0.30000000000000016 c0.2,0.2 0.30000000000000016,0.5 0.30000000000000016,1 v0.8 c0,0.4 -0.1,0.7000000000000003 -0.30000000000000016,0.9 s-0.5,0.30000000000000016 -1,0.30000000000000016 h-22.4 V126.7149377346039 z" id="svg_20"></path>
	<path class="st0" d="M534.8999978542328,126.7149377346039 c-0.4,0 -0.7000000000000003,-0.1 -0.9,-0.30000000000000016 s-0.30000000000000016,-0.5 -0.30000000000000016,-0.9 V88.61493773460388 c0,-0.4 0.1,-0.7000000000000003 0.30000000000000016,-1 c0.2,-0.2 0.5,-0.30000000000000016 0.9,-0.30000000000000016 H547.9999978542328 c3.9,0 7.1,0.9 9.4,2.8 c2.3,1.9 3.5,4.7 3.5,8.6 c0,3 -0.8,5.4 -2.3,7.2 s-3.6,3 -6.3,3.7 l9.1,15.4 c0.1,0.2 0.2,0.4 0.2,0.6000000000000003 c0,0.30000000000000016 -0.1,0.6000000000000003 -0.30000000000000016,0.8 s-0.5,0.30000000000000016 -0.8,0.30000000000000016 h-0.7000000000000003 c-0.6000000000000003,0 -1.1,-0.2 -1.4,-0.5 s-0.6000000000000003,-0.7000000000000003 -0.8,-1 l-9,-15.2 H536.9999978542328 V125.41493773460388 c0,0.4 -0.1,0.7000000000000003 -0.30000000000000016,0.9 s-0.5,0.30000000000000016 -1,0.30000000000000016 L534.8999978542328,126.7149377346039 L534.8999978542328,126.7149377346039 zM537.1999978542328,106.61493773460388 h10.5 c3.3,0 5.7,-0.7000000000000003 7.3,-2 s2.4,-3.3 2.4,-6 s-0.8,-4.7 -2.4,-6 c-1.6,-1.3 -4,-2 -7.3,-2 h-10.5 V106.61493773460388 z" id="svg_21"></path>
	<path class="st0" d="M573.7999978542327,126.7149377346039 c-0.4,0 -0.7000000000000003,-0.1 -0.9,-0.30000000000000016 s-0.4,-0.5 -0.4,-0.9 V88.61493773460388 c0,-0.4 0.1,-0.7000000000000003 0.4,-1 c0.2,-0.2 0.6000000000000003,-0.30000000000000016 0.9,-0.30000000000000016 h1.4 c0.4,0 0.7000000000000003,0.1 0.8,0.30000000000000016 c0.2,0.2 0.30000000000000016,0.30000000000000016 0.30000000000000016,0.5 l12.8,24.9 l12.8,-24.9 c0.1,-0.1 0.2,-0.30000000000000016 0.4,-0.5 s0.4,-0.30000000000000016 0.8,-0.30000000000000016 h1.4 c0.4,0 0.7000000000000003,0.1 1,0.30000000000000016 c0.2,0.2 0.30000000000000016,0.5 0.30000000000000016,1 v36.9 c0,0.4 -0.1,0.7000000000000003 -0.30000000000000016,0.9 s-0.5,0.30000000000000016 -1,0.30000000000000016 h-1 c-0.4,0 -0.7000000000000003,-0.1 -0.9,-0.30000000000000016 s-0.30000000000000016,-0.5 -0.30000000000000016,-0.9 V95.01493773460388 l-10.8,21.2 c-0.2,0.4 -0.4,0.7000000000000003 -0.6000000000000003,0.8 c-0.30000000000000016,0.2 -0.6000000000000003,0.30000000000000016 -1.1,0.30000000000000016 h-1.2 c-0.5,0 -0.8,-0.1 -1.1,-0.30000000000000016 s-0.5,-0.5 -0.7000000000000003,-0.8 L575.9999978542328,95.01493773460388 v30.5 c0,0.4 -0.1,0.7000000000000003 -0.30000000000000016,0.9 s-0.5,0.30000000000000016 -0.9,0.30000000000000016 H573.7999978542327 z" id="svg_22"></path>
	<path class="st0" d="M620.4999978542328,126.7149377346039 c-0.4,0 -0.7000000000000003,-0.1 -0.9,-0.30000000000000016 s-0.30000000000000016,-0.5 -0.30000000000000016,-0.9 V88.61493773460388 c0,-0.4 0.1,-0.7000000000000003 0.30000000000000016,-1 c0.2,-0.2 0.5,-0.30000000000000016 0.9,-0.30000000000000016 h22 c0.4,0 0.7000000000000003,0.1 1,0.30000000000000016 c0.2,0.2 0.30000000000000016,0.5 0.30000000000000016,1 V89.41493773460388 c0,0.4 -0.1,0.7000000000000003 -0.30000000000000016,0.9 s-0.5,0.30000000000000016 -1,0.30000000000000016 h-19.7 v14.4 h18.4 c0.4,0 0.7000000000000003,0.1 1,0.30000000000000016 s0.30000000000000016,0.5 0.30000000000000016,1 v0.8 c0,0.4 -0.1,0.7000000000000003 -0.30000000000000016,0.9 s-0.5,0.30000000000000016 -1,0.30000000000000016 h-18.4 v14.9 h20.1 c0.4,0 0.7000000000000003,0.1 1,0.30000000000000016 c0.2,0.2 0.30000000000000016,0.5 0.30000000000000016,1 v0.8 c0,0.4 -0.1,0.7000000000000003 -0.30000000000000016,0.9 s-0.5,0.30000000000000016 -1,0.30000000000000016 h-22.4 L620.4999978542328,126.7149377346039 L620.4999978542328,126.7149377346039 z" id="svg_23"></path>
	<path class="st0" d="M656.6999978542328,126.7149377346039 c-0.4,0 -0.7000000000000003,-0.1 -0.9,-0.30000000000000016 s-0.30000000000000016,-0.5 -0.30000000000000016,-0.9 V88.61493773460388 c0,-0.4 0.1,-0.7000000000000003 0.30000000000000016,-1 c0.2,-0.2 0.5,-0.30000000000000016 0.9,-0.30000000000000016 h1.2 c0.4,0 0.7000000000000003,0.1 0.8,0.30000000000000016 c0.2,0.2 0.30000000000000016,0.30000000000000016 0.30000000000000016,0.4 l20.8,31.8 V88.61493773460388 c0,-0.4 0.1,-0.7000000000000003 0.30000000000000016,-1 c0.2,-0.2 0.5,-0.30000000000000016 0.9,-0.30000000000000016 h1 c0.4,0 0.7000000000000003,0.1 1,0.30000000000000016 c0.2,0.2 0.30000000000000016,0.5 0.30000000000000016,1 v36.9 c0,0.4 -0.1,0.7000000000000003 -0.30000000000000016,0.9 s-0.5,0.4 -0.9,0.4 h-1.2 c-0.4,0 -0.6000000000000003,-0.1 -0.8,-0.30000000000000016 s-0.30000000000000016,-0.30000000000000016 -0.4,-0.4 L658.9999978542328,94.41493773460388 v31.1 c0,0.4 -0.1,0.7000000000000003 -0.30000000000000016,0.9 s-0.5,0.30000000000000016 -1,0.30000000000000016 H656.6999978542328 z" id="svg_24"></path>
	<path class="st0" d="M706.6999978542328,126.7149377346039 c-0.4,0 -0.7000000000000003,-0.1 -0.9,-0.30000000000000016 s-0.30000000000000016,-0.5 -0.30000000000000016,-0.9 V90.71493773460388 h-11.2 c-0.4,0 -0.7000000000000003,-0.1 -0.9,-0.30000000000000016 s-0.30000000000000016,-0.5 -0.30000000000000016,-0.9 v-0.8 c0,-0.4 0.1,-0.7000000000000003 0.30000000000000016,-1 c0.2,-0.2 0.5,-0.30000000000000016 0.9,-0.30000000000000016 h25.8 c0.4,0 0.7000000000000003,0.1 1,0.30000000000000016 c0.2,0.2 0.30000000000000016,0.5 0.30000000000000016,1 v0.8 c0,0.4 -0.1,0.7000000000000003 -0.30000000000000016,0.9 s-0.5,0.30000000000000016 -1,0.30000000000000016 H708.9999978542328 v34.8 c0,0.4 -0.1,0.7000000000000003 -0.30000000000000016,0.9 s-0.5,0.30000000000000016 -1,0.30000000000000016 C707.6999978542328,126.7149377346039 706.6999978542328,126.7149377346039 706.6999978542328,126.7149377346039 z" id="svg_25"></path>
	<path class="st0" d="M285.6999978542328,192.01493773460388 c-0.4,0 -0.7000000000000003,-0.1 -0.9,-0.30000000000000016 s-0.30000000000000016,-0.5 -0.30000000000000016,-0.9 v-37 c0,-0.4 0.1,-0.7000000000000003 0.30000000000000016,-0.9 s0.5,-0.30000000000000016 0.9,-0.30000000000000016 h1.1 c0.4,0 0.7000000000000003,0.1 0.9,0.30000000000000016 c0.2,0.2 0.30000000000000016,0.5 0.30000000000000016,0.9 v34.8 h19.4 c0.4,0 0.7000000000000003,0.1 1,0.30000000000000016 c0.2,0.2 0.30000000000000016,0.5 0.30000000000000016,1 v0.8 c0,0.4 -0.1,0.7000000000000003 -0.30000000000000016,0.9 c-0.2,0.2 -0.5,0.30000000000000016 -1,0.30000000000000016 L285.6999978542328,192.01493773460388 L285.6999978542328,192.01493773460388 L285.6999978542328,192.01493773460388 z" id="svg_26"></path>
	<path class="st0" d="M317.5999978542328,192.01493773460388 c-0.30000000000000016,0 -0.6000000000000003,-0.1 -0.8,-0.30000000000000016 s-0.30000000000000016,-0.5 -0.30000000000000016,-0.8 c0,-0.2 0,-0.4 0.1,-0.6000000000000003 l14.3,-36.6 c0.2,-0.4 0.30000000000000016,-0.7000000000000003 0.6000000000000003,-0.8 c0.2,-0.2 0.6000000000000003,-0.30000000000000016 1,-0.30000000000000016 h1.9 c0.5,0 0.8,0.1 1,0.30000000000000016 s0.4,0.5 0.6000000000000003,0.8 l14.3,36.6 c0.1,0.2 0.1,0.4 0.1,0.6000000000000003 c0,0.30000000000000016 -0.1,0.6000000000000003 -0.30000000000000016,0.8 s-0.5,0.30000000000000016 -0.8,0.30000000000000016 h-1.1 c-0.4,0 -0.7000000000000003,-0.1 -0.8,-0.30000000000000016 c-0.2,-0.2 -0.30000000000000016,-0.4 -0.4,-0.5 l-3.5,-9 h-19.9 l-3.5,9 c0,0.2 -0.2,0.30000000000000016 -0.4,0.5 c-0.2,0.2 -0.5,0.30000000000000016 -0.9,0.30000000000000016 H317.5999978542328 zM324.7999978542328,178.8149377346039 H341.9999978542328 l-8.6,-22.2 L324.7999978542328,178.8149377346039 z" id="svg_27"></path>
	<path class="st0" d="M362.1999978542328,192.01493773460388 c-0.4,0 -0.7000000000000003,-0.1 -0.9,-0.30000000000000016 s-0.30000000000000016,-0.5 -0.30000000000000016,-0.9 v-36.9 c0,-0.4 0.1,-0.7000000000000003 0.30000000000000016,-1 s0.5,-0.30000000000000016 0.9,-0.30000000000000016 h14.7 c2.6,0 4.8,0.5 6.5,1.4 s2.9,2.2 3.7,3.7 s1.2,3.2 1.2,5 c0,1.6 -0.30000000000000016,3 -0.8,4.1 s-1.1,2.1 -1.9,2.8 s-1.5,1.3 -2.3,1.6 c1.5,0.8 2.8,2 4,3.6 c1.2,1.7000000000000002 1.7000000000000002,3.7 1.7000000000000002,6 c0,1.9 -0.4,3.7 -1.3,5.4 s-2.2,3.1 -3.9,4.2 c-1.7000000000000002,1.1 -3.9,1.6 -6.5,1.6 H362.1999978542328 L362.1999978542328,192.01493773460388 zM364.4999978542328,169.7149377346039 h11.7 c2.8,0 4.9,-0.6000000000000003 6.3,-1.9 c1.4,-1.2 2.2,-3 2.2,-5.2 s-0.7000000000000003,-3.9 -2.2,-5 s-3.6,-1.7000000000000002 -6.3,-1.7000000000000002 h-11.7 V169.7149377346039 zM364.4999978542328,188.61493773460387 h12.2 c2.8,0 4.9,-0.7000000000000003 6.5,-2.2 s2.3,-3.3 2.3,-5.6 s-0.8,-4.2 -2.3,-5.6 c-1.5,-1.4 -3.7,-2.2 -6.5,-2.2 h-12.2 V188.61493773460387 z" id="svg_28"></path>
</g><g id="svg_29" class="">
	<g id="svg_30">
		<path class="st1" d="M77.19999785423279,41.114937734603885 c7.1,-4.4 14.3,-8.7 21.4,-13.1 c8.2,-5 16.4,-10 24.6,-15 c0.30000000000000016,-0.2 0.6000000000000003,-0.4 0.9,-0.6000000000000003 c1.1,-0.6000000000000003 -0.1,-0.1 -0.1,0 c0,0 0.8,-0.30000000000000016 0.8,-0.2 c0.30000000000000016,-0.1 0.5,-0.1 0.8,-0.2 c1.3,-0.30000000000000016 -1.4,0 0,0 c0.30000000000000016,0 0.5,0 0.8,0 c1.1,0 -0.4,0 -0.4,-0.1 c0,0.1 1.1,0.2 1.2,0.30000000000000016 c0.1,0 0.30000000000000016,0.1 0.4,0.1 c0.6000000000000003,0.2 0.5,0.2 -0.30000000000000016,-0.2 c0.2,-0.1 1.7000000000000002,0.9 2,1.1 c2.5,1.5 5,3.1 7.5,4.6 c9.6,5.9 19.2,11.7 28.8,17.6 c10,6.1 20,12.2 30,18.3 c3.1,1.9 6.1,3.7 9.2,5.6 c0.6000000000000003,0.4 1.3,0.8 1.9,1.2 c0.4,0.2 1.4,1 0.6000000000000003,0.4 c-0.9,-0.7000000000000003 0.30000000000000016,0.30000000000000016 0.5,0.5 s0.30000000000000016,0.4 0.5,0.6000000000000003 c0.6000000000000003,0.5 -0.9,-1.3 -0.30000000000000016,-0.4 c0.2,0.30000000000000016 0.4,0.7000000000000003 0.6000000000000003,1 c0.1,0.2 0.2,0.6000000000000003 0.4,0.8 c-0.30000000000000016,-0.4 -0.5,-1.4 -0.2,-0.4 c0.1,0.4 0.30000000000000016,0.8 0.30000000000000016,1.3 c0,0.2 0.2,0.6000000000000003 0.1,0.7000000000000003 c0,0.1 -0.1,-1.7000000000000002 -0.1,-0.8 c0,0.5 0.1,1 0,1.5 c0,0.2 0,0.4 0,0.6000000000000003 c0,1.1 0.30000000000000016,-1.6 0.1,-0.5 c-0.1,0.5 -0.2,0.9 -0.30000000000000016,1.4 c-0.1,0.2 -0.1,0.4 -0.2,0.6000000000000003 c-0.30000000000000016,0.9 0.30000000000000016,-0.6000000000000003 0.30000000000000016,-0.6000000000000003 c-0.30000000000000016,0.4 -0.4,0.9 -0.7000000000000003,1.3 c-0.1,0.2 -0.2,0.30000000000000016 -0.30000000000000016,0.5 c-0.6000000000000003,0.9 0.9,-1 0.2,-0.30000000000000016 c-0.4,0.4 -0.7000000000000003,0.7000000000000003 -1.1,1.1 c-0.7000000000000003,0.6000000000000003 0.4,-0.30000000000000016 0.5,-0.4 c-0.30000000000000016,0.1 -0.5,0.4 -0.8,0.5 c0,0 -0.1,0 -0.1,0.1 c-0.2,0.1 -0.4,0.2 -0.6000000000000003,0.4 c-2.5,1.5 -5,3 -7.4,4.5 c-9.8,6 -19.6,11.9 -29.4,17.9 c-9.5,5.8 -18.9,11.6 -28.4,17.3 c-2.1,1.3 -4.2,2.6 -6.3,3.8 c-0.4,0.2 -0.8,0.5 -1.1,0.7000000000000003 s-1.3,0.9 -1.7000000000000002,0.8 c0.2,-0.1 0.5,-0.2 0.7000000000000003,-0.30000000000000016 c-0.2,0.1 -0.4,0.2 -0.6000000000000003,0.2 c-0.30000000000000016,0.1 -0.6000000000000003,0.2 -1,0.30000000000000016 c-0.6000000000000003,0.2 -1.2,0.30000000000000016 -1.8,0.5 c-0.30000000000000016,0.1 -0.7000000000000003,0.1 -1,0.2 c-0.1,0 -0.30000000000000016,0 -0.4,0.1 c-0.7000000000000003,0.1 -0.5,0.1 0.4,-0.1 c-0.1,-0.1 -1.6,0.1 -1.8,0.1 c-0.6000000000000003,0 -1.2,0 -1.8,0 c-0.30000000000000016,0 -0.7000000000000003,-0.1 -1,-0.1 c-0.9,-0.1 1.6,0.30000000000000016 0.2,0 c-0.7000000000000003,-0.1 -1.3,-0.2 -2,-0.4 s-1.3,-0.4 -1.9,-0.6000000000000003 c-0.2,-0.1 -0.5,-0.2 -0.8,-0.30000000000000016 c1.3,0.30000000000000016 0.6000000000000003,0.30000000000000016 0.1,0 c-0.8,-0.4 -1.5,-0.8 -2.2,-1.2 c-1.9,-1.2 -3.8,-2.3 -5.7,-3.5 c-2.7,-1.7000000000000002 -6.8,-0.7000000000000003 -8.3,2.2 c-1.6,3 -0.7000000000000003,6.6 2.2,8.3 c2,1.2 3.9,2.4 5.9,3.6 c4.9,3 10.9,4.6 16.7,4 c4.5,-0.4 8.9,-1.7000000000000002 12.8,-4.1 c0.7000000000000003,-0.4 1.3,-0.8 2,-1.2 c8.2,-5 16.3,-10 24.5,-14.9 c10.7,-6.5 21.4,-13 32,-19.5 c3.6,-2.2 7.1,-4.4 10.7,-6.5 c3.1,-1.9 6,-3.7 8.3,-6.8 c3,-4.2 3.8,-9.8 2.6,-14.8 c-1.1,-4.4 -4,-8.1 -7.8,-10.5 c-1.7000000000000002,-1 -3.4,-2.1 -5.1,-3.1 c-9.1,-5.5 -18.1,-11.1 -27.2,-16.6 c-10.6,-6.5 -21.2,-12.9 -31.8,-19.4 c-3.6,-2.2 -7.2,-4.4 -10.8,-6.6 c-2.3,-1.4 -4.5,-2.9 -7,-3.8 c-4.6,-1.6 -9.7,-0.8 -13.8,1.6 c-1,0.6000000000000003 -2,1.2 -2.9,1.8 c-4.4,2.7 -8.8,5.4 -13.3,8.1 C91.49999785423279,17.914937734603882 81.99999785423279,23.61493773460388 72.59999785423278,29.414937734603882 c-0.6000000000000003,0.4 -1.2,0.7000000000000003 -1.7000000000000002,1.1 c-2.7,1.7000000000000002 -4,5.5 -2.2,8.3 C70.59999785423278,41.614937734603885 74.29999785423279,42.81493773460388 77.19999785423279,41.114937734603885 L77.19999785423279,41.114937734603885 z" id="svg_31"></path>
	</g>
</g><g id="svg_32" class="">
	<g id="svg_33">
		<path class="st1" d="M209.2999978542328,108.51493773460388 c0,11.6 0,23.3 0,34.9 c0,1.5 0,2.9 0,4.4 c0,0.2 -0.1,1 -0.1,1.2 c-0.30000000000000016,-0.6000000000000003 0.2,-1.3 0,-0.30000000000000016 c-0.1,0.30000000000000016 -0.1,0.6000000000000003 -0.2,0.9 c-0.1,0.30000000000000016 -0.4,0.8 -0.4,1 c0.1,-0.30000000000000016 0.2,-0.5 0.30000000000000016,-0.8 c-0.1,0.2 -0.2,0.4 -0.30000000000000016,0.6000000000000003 c-0.2,0.30000000000000016 -0.4,0.6000000000000003 -0.6000000000000003,0.9 c-0.6000000000000003,1 0.9,-1 0.1,-0.1 c-0.30000000000000016,0.30000000000000016 -0.5,0.5 -0.8,0.8 c-0.1,0.1 -0.2,0.2 -0.30000000000000016,0.2 c-0.5,0.4 -0.4,0.30000000000000016 0.4,-0.30000000000000016 l-0.6000000000000003,0.4 c-0.1,0 -0.1,0.1 -0.2,0.1 c-2.7,1.7000000000000002 -5.4,3.5 -8.1,5.2 c-11.8,7.7 -23.6,15.3 -35.4,23 c-9.2,6 -18.4,12 -27.6,17.9 c-0.30000000000000016,0.2 -0.6000000000000003,0.4 -0.9,0.6000000000000003 l-0.1,0.1 c-0.4,0.2 -0.7000000000000003,0.4 -1.1,0.6000000000000003 c-0.4,0.2 -0.7000000000000003,0.4 -1.1,0.6000000000000003 c-1.1,0.6000000000000003 1.2,-0.4 -0.2,0.1 c-0.7000000000000003,0.30000000000000016 -1.4,0.5 -2.1,0.7000000000000003 c-0.4,0.1 -2.2,0.2 -2.4,0.5 c0.30000000000000016,0 0.5,-0.1 0.8,-0.1 c-0.2,0 -0.4,0 -0.6000000000000003,0.1 c-0.30000000000000016,0 -0.7000000000000003,0 -1,0.1 c-0.9,0 -1.9,0 -2.8,-0.1 c-1.4,-0.1 1.4,0.30000000000000016 0,0 c-0.30000000000000016,-0.1 -0.5,-0.1 -0.8,-0.1 c-0.8,-0.2 -1.6,-0.4 -2.3,-0.6000000000000003 c-0.4,-0.1 -0.8,-0.30000000000000016 -1.2,-0.4 c-1.3,-0.5 1.2,0.6000000000000003 -0.1,0 c-0.7000000000000003,-0.4 -1.5,-0.8 -2.2,-1.2 c-1.9,-1.1 -3.8,-2.3 -5.6,-3.4 c-11,-6.7 -22,-13.4 -33.1,-20.2 c-11.8,-7.2 -23.6,-14.4 -35.4,-21.6 c-2.9,-1.7000000000000002 -5.7,-3.5 -8.6,-5.2 c-0.2,-0.1 -0.30000000000000016,-0.2 -0.5,-0.30000000000000016 s-0.4,-0.30000000000000016 -0.6000000000000003,-0.4 c0.2,0.2 0.4,0.30000000000000016 0.7000000000000003,0.5 c-0.2,-0.2 -0.4,-0.30000000000000016 -0.5,-0.5 c-0.30000000000000016,-0.2 -0.5,-0.5 -0.8,-0.8 c-0.9,-0.9 0.7000000000000003,1.2 0.1,0.1 c-0.2,-0.30000000000000016 -0.30000000000000016,-0.5 -0.5,-0.8 c-0.1,-0.2 -0.30000000000000016,-0.7000000000000003 -0.4,-0.8 c0.4,0.9 0.4,1 0.2,0.4 c-0.1,-0.2 -0.2,-0.5 -0.2,-0.7000000000000003 c-0.1,-0.4 -0.2,-0.7000000000000003 -0.30000000000000016,-1.1 c-0.30000000000000016,-1.3 0,1.5 0,0.1 c0,-0.30000000000000016 0,-0.5 0,-0.8 c0,-0.1 0,-0.2 0,-0.2 c0,-0.5 0,-0.9 0,-1.4 c0,-12 0,-24 0,-36.1 c0,-11.7 0,-23.5 0,-35.2 c0,-0.4 0,-0.7000000000000003 0,-1.1 c0,-0.1 0,-0.1 0,-0.2 c0.1,0.4 -0.30000000000000016,1.5 -0.1,0.7000000000000003 c-0.30000000000000016,1 -0.8,1.7000000000000002 -1.8,2.3 c0.1,0 0.2,-0.1 0.2,-0.1 c-0.6000000000000003,0.4 -1.3,0.5 -2,0.5 c0.1,0 0.2,0 0.30000000000000016,0 c-0.7000000000000003,0 -1.3,-0.1 -1.9,-0.5 c2.8,1.5 6.7,0.8 8.3,-2.2 c1.5,-2.8 0.8,-6.7 -2.2,-8.3 c-5.1,-2.7 -11.2,-0.2 -12.8,5.4 c-0.2,0.9 -0.30000000000000016,1.8 -0.30000000000000016,2.7 c0,1.4 0,2.8 0,4.2 c0,6 0,12 0,18 c0,14.5 0,28.9 0,43.4 c0,3.1 -0.30000000000000016,6.4 0.1,9.5 c0.6000000000000003,5.7 3.5,10.6 8.5,13.7 c0.8,0.5 1.7000000000000002,1 2.5,1.5 c10.2,6.2 20.3,12.4 30.5,18.6 c12.5,7.7 25.1,15.3 37.6,23 c3.6,2.2 7.2,4.4 10.8,6.6 c0.5,0.30000000000000016 1,0.6000000000000003 1.5,0.9 c6.6,4 14.8,5.2 22.2,3.1 c4.4,-1.2 7.9,-3.6 11.6,-6 c4.8,-3.1 9.7,-6.3 14.5,-9.4 c12.7,-8.2 25.3,-16.4 38,-24.7 c4.3,-2.8 8.5,-5.5 12.8,-8.3 c0.8,-0.5 1.7000000000000002,-1.1 2.5,-1.6 c5.3,-3.4 8.4,-8.9 8.5,-15.2 c0.2,-11.8 0,-23.6 0,-35.4 c0,-1.3 0,-2.6 0,-3.9 c0,-3.2 -2.8,-6.2 -6.1,-6.1 C211.9999978542328,102.61493773460388 209.2999978542328,105.11493773460388 209.2999978542328,108.51493773460388 L209.2999978542328,108.51493773460388 z" id="svg_34"></path>
	</g>
</g><g id="svg_35" class="">
	<g id="svg_36">
		<path class="st1" d="M31.999997854232788,70.01493773460388 c0,0.30000000000000016 -0.1,0.7000000000000003 -0.1,1 c0.2,-0.6000000000000003 0.1,-0.4 -0.30000000000000016,0.6000000000000003 c-0.30000000000000016,0.6000000000000003 -0.8,1 -1.4,1.4 c0.1,0 0.2,-0.1 0.2,-0.1 c-0.6000000000000003,0.4 -1.3,0.5 -2,0.5 c0.9,0 -0.7000000000000003,-0.1 -0.8,-0.1 c-1.4,-0.30000000000000016 -0.9,-0.4 -0.30000000000000016,0 c0.30000000000000016,0.2 0.6000000000000003,0.4 0.9,0.6000000000000003 c1.3,0.8 2.6,1.6 3.9,2.4 c3.4,2.1 6.8,4.2 10.2,6.2 c7.6,4.6 15.1,9.2 22.7,13.8 c3,1.8 6,3.7 9,5.5 c2.7,1.7000000000000002 6.8,0.7000000000000003 8.3,-2.2 c1.6,-3 0.7000000000000003,-6.6 -2.2,-8.3 c-14.5,-8.8 -28.9,-17.6 -43.4,-26.4 c-1.4,-0.9 -2.8,-1.8 -4.3,-2.6 c-2.7,-1.4 -6,-1.4 -8.6,0.2 c-2.7,1.6 -4,4.5 -4.2,7.6 c-0.2,3.2 2.9,6.2 6.1,6.1 C29.299997854232785,75.91493773460388 31.799997854232785,73.41493773460388 31.999997854232788,70.01493773460388 L31.999997854232788,70.01493773460388 z" id="svg_37"></path>
	</g>
</g><circle class="st2" cx="25.89999747276306" cy="26.21493625640869" r="25.799999237060547" id="svg_38"></circle></g></svg>
