<?xml version="1.0" encoding="utf-8"?>
<!-- Generator: Adobe Illustrator 28.0.0, SVG Export Plug-In . SVG Version: 6.00 Build 0)  -->
<svg version="1.1" id="Ebene_1" xmlns="http://www.w3.org/2000/svg" xmlns:xlink="http://www.w3.org/1999/xlink" x="0px" y="0px"
	 viewBox="0 0 1000 1000" style="enable-background:new 0 0 1000 1000;" xml:space="preserve">
<style type="text/css">
	.st0{fill:none;stroke:#1D1D1B;stroke-width:25.0827;stroke-linecap:round;stroke-linejoin:round;stroke-miterlimit:10;}
</style>
<g>
	<path class="st0" d="M455.1,604.8"/>
	<path class="st0" d="M717.7,503.9c24.2-40.2,28.8-77.3,27.6-88.7c-2.1-19.8,4.4-34.9,12.5-43c8.1-8.1,20.1-20.1,20.1-20.1
		L655.3,229.4c0,0-14.1,14.1-18.9,18.9c-16.6,16.6-26.5,15.5-35.4,17.8c-6.4,1.7-16.9,3.4-30.3,8"/>
	
		<rect x="706.4" y="157.7" transform="matrix(0.7071 -0.7071 0.7071 0.7071 28.617 601.8065)" class="st0" width="68.6" height="217.3"/>
	
		<rect x="231.3" y="615.9" transform="matrix(0.7071 -0.7071 0.7071 0.7071 -434.784 399.325)" class="st0" width="66.7" height="217.3"/>
	<path class="st0" d="M459.3,725.8c-22.7,7.5-38.2,4.8-46.5,3.9c-19.8-2.1-34.9,4.4-43,12.5c-8.1,8.1-20.1,20.1-20.1,20.1L227,639.7
		c0,0,14.1-14.1,18.9-18.9c16.6-16.6,15.5-26.5,17.8-35.4c1.7-6.4,3.4-16.9,8-30.3"/>
	<path class="st0" d="M736.1,577.5c2.6,12.6,4.8,23.7,5.6,26.5c2.3,8.8,1.2,18.7,17.8,35.4c4.9,4.9,18.9,18.9,18.9,18.9L655.8,780.9
		c0,0-12-12-20.1-20.1c-8.1-8.1-23.2-14.6-43-12.5c-9.6,1-32.6,1.7-63-12.2"/>
	
		<rect x="633.5" y="709.2" transform="matrix(0.7071 -0.7071 0.7071 0.7071 -309.0672 742.8445)" class="st0" width="217.3" height="70.6"/>
	<path class="st0" d="M539.3,403.3l5.9,5.9c14.4,14.4,37.7,14.4,52.1,0l0,0c9.9-9.9,9.9-26,0-36c0,0-41.4-39-71.5-59.8
		c-46.9-32.5-77-26.8-90.2-25.5c-20.8,2.2-36.8-4.6-45.2-13.1c-8.5-8.5-21.2-21.2-21.2-21.2L240.3,382.6c0,0,14.8,14.8,19.9,19.9
		c17.5,17.5,16.3,27.9,18.7,37.2c4.6,17.6,9.8,64.5,66.3,121l95.1,95.1c11.7,11.7,30.8,11.7,42.5,0l0.6-0.6
		c12.2-12.2,12.2-31.8,0.1-44c-17.1-17.1-92.1-92.1-92.1-92.1l127.9,127.9c12.1,12.1,31.7,12.1,43.9,0l0,0
		c12.1-12.1,12.1-31.7,0-43.9l-93.7-93.7l120.3,120.3c12.1,12.1,31.7,12.1,43.9,0l1-1c11.5-11.5,11.5-30.2,0-41.8L511.3,463.7
		l107.1,106.4c11.7,11.7,30.8,11.7,42.5,0l0.6-0.6c12.2-12.2,12.2-31.8,0.1-44c-47.8-47.8-132.5-132.5-132.5-132.5"/>
	
		<rect x="164.6" y="255.9" transform="matrix(0.7071 -0.7071 0.7071 0.7071 -125.0943 282.8142)" class="st0" width="228.5" height="73"/>
</g>
</svg>
