<?xml version="1.0" encoding="utf-8"?>
<!-- Generator: Adobe Illustrator 28.0.0, SVG Export Plug-In . SVG Version: 6.00 Build 0)  -->
<svg version="1.1" id="Ebene_1" xmlns="http://www.w3.org/2000/svg" xmlns:xlink="http://www.w3.org/1999/xlink" x="0px" y="0px"
	 viewBox="0 0 1000 1000" style="enable-background:new 0 0 1000 1000;" xml:space="preserve">
<style type="text/css">
	.st0{fill:none;stroke:#1D1D1B;stroke-width:25.0827;stroke-linecap:round;stroke-linejoin:round;stroke-miterlimit:10;}
</style>
<g>
	<g>
		<path class="st0" d="M507,267.1c-111,0-201.1,90-201.1,201.1c0,111,71.8,140,87.7,246.5l2.8,23.8c1.6,13.5,13,23.7,26.6,23.7h84"
			/>
		<line class="st0" x1="408.5" y1="829.9" x2="508.1" y2="829.9"/>
		<line class="st0" x1="423.1" y1="896.7" x2="508.1" y2="896.7"/>
		<path class="st0" d="M508.1,267.1c111,0,201.1,90,201.1,201.1c0,111-71.8,140-87.7,246.5l-2.8,23.8c-1.6,13.5-13,23.7-26.6,23.7
			h-84"/>
		<line class="st0" x1="606.6" y1="829.9" x2="507" y2="829.9"/>
		<line class="st0" x1="591.9" y1="896.7" x2="507" y2="896.7"/>
		<line class="st0" x1="507" y1="153.5" x2="507" y2="83.9"/>
		<line class="st0" x1="665" y1="195.9" x2="699.9" y2="135.7"/>
		<line class="st0" x1="780.5" y1="311.9" x2="840.8" y2="277.3"/>
		<line class="st0" x1="822.3" y1="470.1" x2="891.9" y2="470.4"/>
		<line class="st0" x1="779.2" y1="628" x2="839.2" y2="663.1"/>
		<line class="st0" x1="232.2" y1="623.4" x2="171.6" y2="657.5"/>
		<line class="st0" x1="191.7" y1="464.9" x2="122.1" y2="464"/>
		<line class="st0" x1="236.1" y1="307.4" x2="176.4" y2="271.8"/>
		<line class="st0" x1="353.5" y1="193.3" x2="319.6" y2="132.6"/>
	</g>
	<path class="st0" d="M372,464.9c0-74.6,60.4-135,135-135"/>
</g>
</svg>
