<?xml version="1.0" encoding="utf-8"?>
<!-- Generator: Adobe Illustrator 28.0.0, SVG Export Plug-In . SVG Version: 6.00 Build 0)  -->
<svg version="1.1" id="Ebene_1" xmlns="http://www.w3.org/2000/svg" xmlns:xlink="http://www.w3.org/1999/xlink" x="0px" y="0px"
	 viewBox="0 0 1000 1000" style="enable-background:new 0 0 1000 1000;" xml:space="preserve">
<style type="text/css">
	.st0{fill:none;stroke:#1D1D1B;stroke-width:25.0827;stroke-linecap:round;stroke-linejoin:round;stroke-miterlimit:10;}
</style>
<g>
	<g>
		
			<ellipse transform="matrix(0.7071 -0.7071 0.7071 0.7071 -215.1219 512.9061)" class="st0" cx="511.6" cy="516.1" rx="82.5" ry="82.5"/>
		<path class="st0" d="M352,844.9l0.8-91.2c-1.2-39,22.8-70.4,59.4-82.2c23.7-7.6,55.7-8.8,98.7-8.6c42.9,0.2,74.9,1.5,98.5,9.3
			c36.6,12.1,60.4,43.7,58.9,82.7l0.4,90.5L352,844.9z"/>
		<line class="st0" x1="438.2" y1="843.8" x2="438" y2="749.8"/>
		<line class="st0" x1="582.8" y1="750.3" x2="582" y2="843.8"/>
	</g>
	<ellipse transform="matrix(0.9871 -0.16 0.16 0.9871 -77.0747 122.7478)" class="st0" cx="723.8" cy="540" rx="60.5" ry="60.5"/>
	
		<ellipse transform="matrix(0.2559 -0.9667 0.9667 0.2559 -300.213 690.093)" class="st0" cx="298.1" cy="540" rx="60.5" ry="60.5"/>
	<path class="st0" d="M697,667.8c9.7-0.3,20.2-0.4,31.8-0.4c34.6,0.1,60.4,1.2,79.4,7.5c29.5,9.7,48.7,35.3,47.5,66.7l0.3,72.9
		l-133.7-0.2"/>
	<line class="st0" x1="786.7" y1="738" x2="786.1" y2="813.3"/>
	<path class="st0" d="M324.9,667.8c-9.7-0.3-20.2-0.4-31.8-0.4c-34.6,0.1-60.4,1.2-79.4,7.5c-29.5,9.7-48.7,35.3-47.5,66.7
		l-0.3,72.9l133.7-0.2"/>
	<line class="st0" x1="235.3" y1="738" x2="235.9" y2="813.3"/>
	<path class="st0" d="M534.1,345.6c23,19.7,61,32.6,104,32.6c4.5,0,8.9-0.1,13.2-0.4l51.5,39l16.8-56.5l0,0
		c27.8-14.1,45.5-35.2,45.5-58.8c0-42.3-56.9-76.7-127-76.7c-19.6,0-38.1,2.7-54.6,7.4"/>
	<path class="st0" d="M302.3,340.7c-31.3-18.7-50.7-44.6-50.7-73.3c0-57,76.5-103.2,170.9-103.2s170.9,46.2,170.9,103.2
		S517,370.6,422.6,370.6c-12,0-23.7-0.7-35-2.2l0,0l-66.5,46.9L302.3,340.7z"/>
</g>
</svg>
