<?xml version="1.0" encoding="utf-8"?>
<!-- Generator: Adobe Illustrator 28.0.0, SVG Export Plug-In . SVG Version: 6.00 Build 0)  -->
<svg version="1.1" id="Ebene_1" xmlns="http://www.w3.org/2000/svg" xmlns:xlink="http://www.w3.org/1999/xlink" x="0px" y="0px"
	 viewBox="0 0 566.93 566.93" style="enable-background:new 0 0 566.93 566.93;" xml:space="preserve">
<style type="text/css">
	.st0{fill-rule:evenodd;clip-rule:evenodd;fill:#FFED00;}
	.st1{fill-rule:evenodd;clip-rule:evenodd;fill:#1A1A18;}
	.st2{fill-rule:evenodd;clip-rule:evenodd;fill:#878787;}
</style>
<rect x="0" y="0" class="st0" width="566.93" height="566.93"/>
<g>
	<g>
		<path class="st1" d="M84.48,444.32c0,12.41-4.79,24.58-19.05,24.58c-14.38,0-20.04-11.55-20.04-24.09
			c0-11.92,5.41-23.97,19.42-23.97C78.33,420.84,84.48,432.39,84.48,444.32z M35.31,500.98h10.45v-32.82H46
			c4.67,7.5,14.01,9.96,20.53,9.96c19.42,0,29.01-15.12,29.01-33.07c0-17.95-9.71-33.43-29.25-33.43c-8.73,0-16.84,3.07-20.28,10.08
			h-0.25v-8.6H35.31V500.98z"/>
		<path class="st1" d="M100.03,476.64h10.45v-28.27c0-16.1,6.15-25.69,22.99-25.69v-11.06c-11.31-0.37-18.32,4.67-23.35,14.87h-0.25
			v-13.4h-9.83V476.64z"/>
		<path class="st1" d="M165.1,403.87h11.06v-12.78H165.1V403.87z M142,403.87h11.06v-12.78H142V403.87z M173.22,454.52
			c0,5.78-5.65,14.38-19.42,14.38c-6.39,0-12.29-2.46-12.29-9.34c0-7.74,5.9-10.2,12.78-11.43c7.01-1.23,14.87-1.35,18.93-4.3
			V454.52z M190.18,468.28c-1.35,0.49-2.34,0.61-3.2,0.61c-3.32,0-3.32-2.21-3.32-7.13v-32.7c0-14.87-12.41-17.45-23.85-17.45
			c-14.14,0-26.3,5.53-26.92,21.27h10.45c0.49-9.34,7.01-12.05,15.86-12.05c6.64,0,14.14,1.47,14.14,10.57
			c0,7.87-9.83,7.13-21.39,9.34c-10.82,2.09-21.51,5.16-21.51,19.54c0,12.66,9.47,17.82,21.02,17.82c8.85,0,16.59-3.07,22.37-9.83
			c0,6.88,3.44,9.83,8.85,9.83c3.32,0,5.65-0.61,7.5-1.72V468.28z"/>
		<polygon class="st1" points="244.35,413.09 233.41,413.09 216.08,466.07 215.83,466.07 198.01,413.09 186.33,413.09 
			209.93,476.64 221.12,476.64 		"/>
		<path class="st1" d="M290.44,456.48c-1.84,8.24-7.87,12.41-16.47,12.41c-13.89,0-20.16-9.83-19.79-20.9h47.57
			c0.61-15.36-6.27-36.38-28.76-36.38c-17.33,0-29.87,14.01-29.87,33.07c0.61,19.42,10.2,33.43,30.48,33.43
			c14.26,0,24.34-7.62,27.17-21.63H290.44z M254.18,438.78c0.74-9.71,7.25-17.95,18.19-17.95c10.32,0,17.82,7.99,18.31,17.95H254.18
			z"/>
		<path class="st1" d="M305.15,476.64h10.45v-35.89c0-11.43,6.15-19.91,18.81-19.91c7.99,0,12.91,5.04,12.91,12.78v43.02h10.45
			v-41.79c0-13.64-5.16-23.23-21.88-23.23c-9.1,0-16.23,3.69-20.65,11.55h-0.25v-10.08h-9.83V476.64z"/>
		<path class="st1" d="M380.61,394.04h-10.45v19.05h-10.82v9.22h10.82v40.44c0,11.68,4.3,13.89,15.12,13.89h7.99v-9.22h-4.79
			c-6.51,0-7.87-0.86-7.87-5.65v-39.46h12.66v-9.22h-12.66V394.04z"/>
		<path class="st1" d="M399.26,476.64h10.45v-63.55h-10.45V476.64z M409.71,388.88h-10.45v12.78h10.45V388.88z"/>
		<path class="st1" d="M415.1,444.93c0,18.56,10.69,33.19,30.85,33.19s30.85-14.63,30.85-33.19c0-18.68-10.69-33.31-30.85-33.31
			S415.1,426.25,415.1,444.93z M426.16,444.93c0-15.49,8.85-24.09,19.79-24.09c10.94,0,19.79,8.6,19.79,24.09
			c0,15.36-8.85,23.97-19.79,23.97C435.01,468.9,426.16,460.29,426.16,444.93z"/>
		<path class="st1" d="M481.7,476.64h10.45v-35.89c0-11.43,6.15-19.91,18.81-19.91c7.99,0,12.91,5.04,12.91,12.78v43.02h10.45
			v-41.79c0-13.64-5.16-23.23-21.88-23.23c-9.1,0-16.23,3.69-20.65,11.55h-0.25v-10.08h-9.83V476.64z"/>
	</g>
	<g>
		<path class="st1" d="M272.67,358.27c0.61,15.73,12.66,21.51,26.92,21.51c12.91,0,27.04-4.92,27.04-20.04
			c0-12.29-10.33-15.73-20.77-18.07c-9.71-2.34-20.77-3.56-20.77-11.06c0-6.39,7.25-8.11,13.52-8.11c6.88,0,14.01,2.58,14.75,10.69
			h10.45c-0.86-15.49-12.05-19.91-26.06-19.91c-11.06,0-23.72,5.29-23.72,18.07c0,12.17,10.45,15.61,20.77,17.95
			c10.45,2.34,20.77,3.69,20.77,11.8c0,7.99-8.85,9.47-15.36,9.47c-8.6,0-16.72-2.95-17.09-12.29H272.67z"/>
		<path class="st1" d="M383.42,314.76h-10.45v35.89c0,11.43-6.15,19.91-18.81,19.91c-7.99,0-12.91-5.04-12.91-12.78v-43.02h-10.45
			v41.79c0,13.64,5.16,23.23,21.88,23.23c9.1,0,16.23-3.69,20.65-11.55h0.25v10.08h9.83V314.76z"/>
		<path class="st1" d="M445.73,335.16c-1.47-15.12-13.03-21.88-27.41-21.88c-20.16,0-29.99,15-29.99,34.05
			c0,18.93,10.32,32.45,29.75,32.45c15.98,0,25.69-9.22,28.03-24.71H435.4c-1.35,9.59-7.38,15.49-17.45,15.49
			c-13.28,0-18.56-11.55-18.56-23.23c0-12.91,4.67-24.83,19.79-24.83c8.6,0,14.14,4.67,15.73,12.66H445.73z"/>
		<path class="st1" d="M450.37,378.31h10.45v-35.89c0-11.43,6.15-19.91,18.81-19.91c7.99,0,12.91,5.04,12.91,12.78v43.02h10.45
			v-41.79c0-13.64-5.16-23.23-21.88-23.23c-7.62,0-16.59,3.2-20.04,10.82h-0.25v-33.56h-10.45V378.31z"/>
		<path class="st1" d="M525.83,295.7h-10.45v19.05h-10.82v9.22h10.82v40.44c0,11.68,4.3,13.89,15.12,13.89h7.99v-9.22h-4.79
			c-6.51,0-7.87-0.86-7.87-5.65v-39.46h12.66v-9.22h-12.66V295.7z"/>
	</g>
	<g>
		<path class="st2" d="M215.17,279.97h10.45v-63.55h-10.45V279.97z M225.62,192.2h-10.45v12.78h10.45V192.2z"/>
		<path class="st2" d="M235.68,279.97h10.45v-35.89c0-11.43,6.15-19.91,18.81-19.91c7.99,0,12.91,5.04,12.91,12.78v43.02h10.45
			v-41.79c0-13.64-5.16-23.23-21.88-23.23c-9.1,0-16.23,3.69-20.65,11.55h-0.25v-10.08h-9.83V279.97z"/>
		<path class="st2" d="M295.04,259.93c0.61,15.73,12.66,21.51,26.92,21.51c12.91,0,27.04-4.92,27.04-20.04
			c0-12.29-10.32-15.73-20.77-18.07c-9.71-2.34-20.77-3.56-20.77-11.06c0-6.39,7.25-8.11,13.52-8.11c6.88,0,14.01,2.58,14.75,10.69
			h10.45c-0.86-15.49-12.05-19.91-26.06-19.91c-11.06,0-23.72,5.29-23.72,18.07c0,12.17,10.45,15.61,20.77,17.95
			c10.45,2.34,20.77,3.69,20.77,11.8c0,7.99-8.85,9.47-15.36,9.47c-8.6,0-16.72-2.95-17.09-12.29H295.04z"/>
		<path class="st2" d="M370.15,197.37H359.7v19.05h-10.82v9.22h10.82v40.44c0,11.68,4.3,13.89,15.12,13.89h7.99v-9.22h-4.79
			c-6.51,0-7.87-0.86-7.87-5.65v-39.46h12.66v-9.22h-12.66V197.37z"/>
		<path class="st2" d="M390.05,279.97h10.45v-63.55h-10.45V279.97z M400.5,192.2h-10.45v12.78h10.45V192.2z"/>
		<path class="st2" d="M427.77,197.37h-10.45v19.05H406.5v9.22h10.82v40.44c0,11.68,4.3,13.89,15.12,13.89h7.99v-9.22h-4.79
			c-6.51,0-7.87-0.86-7.87-5.65v-39.46h12.66v-9.22h-12.66V197.37z"/>
		<path class="st2" d="M499.66,216.42h-10.45v35.89c0,11.43-6.15,19.91-18.81,19.91c-7.99,0-12.91-5.04-12.91-12.78v-43.02h-10.45
			v41.79c0,13.64,5.16,23.23,21.88,23.23c9.1,0,16.23-3.69,20.65-11.55h0.25v10.08h9.83V216.42z"/>
		<path class="st2" d="M525.83,197.37h-10.45v19.05h-10.82v9.22h10.82v40.44c0,11.68,4.3,13.89,15.12,13.89h7.99v-9.22h-4.79
			c-6.51,0-7.87-0.86-7.87-5.65v-39.46h12.66v-9.22h-12.66V197.37z"/>
	</g>
</g>
<g>
	<path d="M235.37,508.94h4.23v3.41c0.86-1.17,1.81-2.07,2.84-2.71c1.46-0.96,3.18-1.44,5.15-1.44c2.92,0,5.4,1.12,7.43,3.35
		c2.04,2.23,3.06,5.42,3.06,9.56c0,5.6-1.47,9.6-4.41,12c-1.87,1.52-4.03,2.28-6.51,2.28c-1.94,0-3.57-0.43-4.89-1.27
		c-0.77-0.48-1.63-1.3-2.58-2.47v13.12h-4.32V508.94z M251.63,529.08c1.34-1.69,2.01-4.21,2.01-7.57c0-2.05-0.3-3.81-0.89-5.28
		c-1.12-2.83-3.18-4.25-6.17-4.25c-3,0-5.06,1.5-6.16,4.49c-0.59,1.6-0.89,3.64-0.89,6.1c0,1.99,0.3,3.67,0.89,5.06
		c1.12,2.66,3.18,3.98,6.16,3.98C248.6,531.61,250.29,530.77,251.63,529.08z"/>
	<path d="M262.94,508.82h4.1v4.44c0.34-0.86,1.16-1.92,2.47-3.16c1.31-1.24,2.82-1.86,4.54-1.86c0.08,0,0.21,0.01,0.41,0.02
		c0.19,0.02,0.52,0.05,0.98,0.1v4.56c-0.26-0.04-0.49-0.08-0.71-0.09c-0.22-0.02-0.45-0.03-0.71-0.03c-2.17,0-3.85,0.7-5.02,2.1
		c-1.16,1.4-1.75,3.01-1.75,4.84v14.78h-4.32V508.82z"/>
	<path d="M297.57,511.38c2.27,2.21,3.41,5.45,3.41,9.73c0,4.14-1,7.56-3,10.26c-2,2.7-5.11,4.05-9.32,4.05
		c-3.51,0-6.3-1.19-8.36-3.58c-2.06-2.39-3.1-5.6-3.1-9.63c0-4.31,1.09-7.75,3.26-10.31c2.17-2.55,5.1-3.83,8.77-3.83
		C292.51,508.07,295.29,509.18,297.57,511.38z M294.88,528.46c1.05-2.16,1.58-4.57,1.58-7.23c0-2.4-0.38-4.35-1.14-5.85
		c-1.2-2.36-3.27-3.55-6.22-3.55c-2.61,0-4.51,1.01-5.69,3.02c-1.19,2.02-1.78,4.44-1.78,7.29c0,2.73,0.6,5.01,1.78,6.83
		c1.18,1.82,3.07,2.73,5.65,2.73C291.89,531.71,293.83,530.63,294.88,528.46z"/>
	<path d="M318.21,508.82h4.27v3.65c1.02-1.26,1.95-2.18,2.78-2.76c1.42-0.98,3.04-1.46,4.85-1.46c2.05,0,3.69,0.5,4.94,1.51
		c0.71,0.58,1.35,1.42,1.92,2.55c0.96-1.38,2.09-2.4,3.38-3.06c1.3-0.67,2.75-1,4.37-1c3.46,0,5.81,1.25,7.05,3.74
		c0.68,1.35,1.01,3.15,1.01,5.43v17.11h-4.49v-17.85c0-1.71-0.43-2.89-1.28-3.53s-1.9-0.96-3.13-0.96c-1.7,0-3.15,0.57-4.38,1.7
		c-1.22,1.14-1.84,3.03-1.84,5.69v14.95h-4.39v-16.77c0-1.74-0.21-3.02-0.63-3.82c-0.65-1.2-1.88-1.8-3.67-1.8
		c-1.63,0-3.11,0.63-4.45,1.9c-1.34,1.26-2,3.55-2,6.86v13.63h-4.32V508.82z"/>
	<path d="M374.77,509.53c1.7,0.86,3,1.96,3.89,3.32c0.86,1.3,1.43,2.81,1.72,4.54c0.25,1.19,0.38,3.07,0.38,5.66h-18.69
		c0.08,2.62,0.69,4.71,1.84,6.29c1.14,1.58,2.91,2.37,5.31,2.37c2.24,0,4.02-0.75,5.36-2.24c0.75-0.86,1.27-1.87,1.59-3.01h4.24
		c-0.11,0.94-0.48,2-1.11,3.15c-0.64,1.16-1.34,2.11-2.12,2.85c-1.3,1.28-2.91,2.14-4.84,2.59c-1.03,0.26-2.2,0.38-3.5,0.38
		c-3.18,0-5.88-1.16-8.09-3.49c-2.21-2.33-3.31-5.59-3.31-9.78c0-4.13,1.11-7.48,3.34-10.05c2.22-2.58,5.14-3.86,8.73-3.86
		C371.31,508.24,373.07,508.67,374.77,509.53z M376.32,519.62c-0.18-1.87-0.58-3.37-1.21-4.49c-1.17-2.08-3.13-3.12-5.88-3.12
		c-1.97,0-3.62,0.71-4.95,2.15c-1.33,1.43-2.04,3.25-2.12,5.46H376.32z"/>
	<path d="M385.98,508.82h4.1v3.65c1.22-1.5,2.51-2.58,3.86-3.24c1.36-0.66,2.87-0.98,4.54-0.98c3.65,0,6.11,1.27,7.39,3.82
		c0.71,1.39,1.05,3.38,1.05,5.97v16.49h-4.39v-16.2c0-1.57-0.23-2.83-0.7-3.79c-0.77-1.6-2.16-2.4-4.17-2.4
		c-1.02,0-1.87,0.11-2.52,0.31c-1.19,0.35-2.22,1.05-3.12,2.11c-0.72,0.85-1.19,1.72-1.41,2.63c-0.21,0.9-0.32,2.2-0.32,3.87v13.46
		h-4.32V508.82z"/>
	<path d="M413.93,501.64h4.37v7.17h4.1v3.53h-4.1v16.77c0,0.9,0.3,1.5,0.91,1.8c0.34,0.18,0.9,0.26,1.68,0.26
		c0.21,0,0.43,0,0.67-0.02c0.24-0.01,0.52-0.04,0.84-0.08v3.43c-0.5,0.14-1.01,0.25-1.55,0.31c-0.54,0.07-1.12,0.1-1.74,0.1
		c-2.02,0-3.38-0.52-4.1-1.55c-0.72-1.03-1.08-2.37-1.08-4.02v-17.01h-3.48v-3.53h3.48V501.64z"/>
	<path d="M442.35,509.53c1.7,0.86,3,1.96,3.89,3.32c0.86,1.3,1.43,2.81,1.72,4.54c0.25,1.19,0.38,3.07,0.38,5.66h-18.69
		c0.08,2.62,0.69,4.71,1.84,6.29c1.14,1.58,2.91,2.37,5.31,2.37c2.24,0,4.02-0.75,5.36-2.24c0.75-0.86,1.27-1.87,1.59-3.01h4.24
		c-0.11,0.94-0.48,2-1.11,3.15c-0.64,1.16-1.34,2.11-2.12,2.85c-1.3,1.28-2.91,2.14-4.84,2.59c-1.03,0.26-2.2,0.38-3.5,0.38
		c-3.18,0-5.88-1.16-8.09-3.49c-2.21-2.33-3.31-5.59-3.31-9.78c0-4.13,1.11-7.48,3.34-10.05c2.22-2.58,5.14-3.86,8.73-3.86
		C438.89,508.24,440.65,508.67,442.35,509.53z M443.9,519.62c-0.18-1.87-0.58-3.37-1.21-4.49c-1.17-2.08-3.13-3.12-5.88-3.12
		c-1.97,0-3.62,0.71-4.95,2.15c-1.33,1.43-2.04,3.25-2.12,5.46H443.9z"/>
	<path d="M496.09,504.31c2.33,3.12,3.5,7.11,3.5,11.97c0,5.26-1.34,9.64-4.01,13.12c-3.14,4.1-7.61,6.15-13.42,6.15
		c-5.42,0-9.68-1.79-12.79-5.38c-2.77-3.45-4.15-7.82-4.15-13.1c0-4.76,1.18-8.85,3.55-12.24c3.04-4.35,7.54-6.52,13.49-6.52
		C488.49,498.31,493.1,500.31,496.09,504.31z M491.87,526.78c1.88-3.02,2.82-6.49,2.82-10.41c0-4.15-1.08-7.49-3.25-10.01
		c-2.17-2.53-5.13-3.79-8.89-3.79c-3.65,0-6.62,1.25-8.92,3.76c-2.3,2.51-3.45,6.2-3.45,11.08c0,3.91,0.98,7.2,2.96,9.88
		c1.98,2.68,5.18,4.02,9.61,4.02C486.95,531.3,490,529.79,491.87,526.78z"/>
	<path d="M534.07,504.31c2.33,3.12,3.5,7.11,3.5,11.97c0,5.26-1.34,9.64-4.01,13.12c-3.14,4.1-7.61,6.15-13.42,6.15
		c-5.42,0-9.68-1.79-12.79-5.38c-2.77-3.45-4.15-7.82-4.15-13.1c0-4.76,1.18-8.85,3.55-12.24c3.04-4.35,7.54-6.52,13.49-6.52
		C526.47,498.31,531.08,500.31,534.07,504.31z M529.85,526.78c1.88-3.02,2.82-6.49,2.82-10.41c0-4.15-1.08-7.49-3.25-10.01
		c-2.17-2.53-5.13-3.79-8.89-3.79c-3.65,0-6.62,1.25-8.92,3.76c-2.3,2.51-3.45,6.2-3.45,11.08c0,3.91,0.98,7.2,2.96,9.88
		c1.98,2.68,5.18,4.02,9.61,4.02C524.93,531.3,527.98,529.79,529.85,526.78z M514.73,489.96h4.49v4.99h-4.49V489.96z M522.65,489.96
		h4.49v4.99h-4.49V489.96z"/>
</g>
<g>
</g>
<g>
</g>
<g>
</g>
<g>
</g>
<g>
</g>
<g>
</g>
</svg>
