<?xml version="1.0" encoding="utf-8"?>
<!-- Generator: Adobe Illustrator 28.0.0, SVG Export Plug-In . SVG Version: 6.00 Build 0)  -->
<svg version="1.1" id="Ebene_1" xmlns="http://www.w3.org/2000/svg" xmlns:xlink="http://www.w3.org/1999/xlink" x="0px" y="0px"
	 viewBox="0 0 1366 768" style="enable-background:new 0 0 1366 768;" xml:space="preserve">
<style type="text/css">
	.st0{fill:#1D1D1B;}
</style>
<path class="st0" d="M1036.45,208.78c-81.15,0-149.27,56.68-166.97,132.51H238.22c-19.72,0-35.71,15.99-35.71,35.71
	c0,19.72,15.99,35.71,35.71,35.71h23.08v107.55c0,14.01,14.21,25.37,31.74,25.37h46.34c17.53,0,31.74-11.36,31.74-25.37v-70.73
	h55.52v48.35c0,10.6,9.24,19.19,20.64,19.19h30.13c11.4,0,20.64-8.59,20.64-19.19v-85.17h370.03
	c15.21,79.09,84.91,139.05,168.37,139.05c94.56,0,171.49-76.93,171.49-171.49S1131.01,208.78,1036.45,208.78z M1036.45,480.34
	c-55.18,0-100.07-44.89-100.07-100.07s44.89-100.07,100.07-100.07c55.18,0,100.07,44.89,100.07,100.07
	S1091.63,480.34,1036.45,480.34z"/>
<g>
</g>
<g>
</g>
<g>
</g>
<g>
</g>
<g>
</g>
<g>
</g>
<g>
</g>
<g>
</g>
<g>
</g>
<g>
</g>
<g>
</g>
<g>
</g>
<g>
</g>
<g>
</g>
<g>
</g>
</svg>
