<?xml version="1.0" encoding="utf-8"?>
<!-- Generator: Adobe Illustrator 28.0.0, SVG Export Plug-In . SVG Version: 6.00 Build 0)  -->
<svg version="1.1" id="Ebene_1" xmlns="http://www.w3.org/2000/svg" xmlns:xlink="http://www.w3.org/1999/xlink" x="0px" y="0px"
	 viewBox="0 0 1000 1000" style="enable-background:new 0 0 1000 1000;" xml:space="preserve">
<style type="text/css">
	.st0{fill:none;stroke:#1D1D1B;stroke-width:25.0827;stroke-linecap:round;stroke-linejoin:round;stroke-miterlimit:10;}
</style>
<g>
	<polygon class="st0" points="514.5,432.2 455,472 474.4,403.1 418.2,358.7 489.7,355.9 514.5,288.7 539.3,355.9 610.8,358.7 
		554.6,403.1 574,472 	"/>
	<path class="st0" d="M311.5,251.2l-76.1,12.6c-15.2,2.5-26.1,15.9-25.5,31.2c1.7,42,7.4,122.6,26.2,162.2
		c17,35.7,68.1,88.1,125.1,95.5"/>
	<path class="st0" d="M314.8,193c0,0,78.9-25.3,199-25.3s199,25.3,199,25.3c0,61.6,7.8,235.2-38.1,341.5c-2.7,6.2-5.5,12.3-8.4,18.3
		c-28.9,58.5-73.3,106.9-152.5,106.9c-87.3,0-132.3-58.8-161-125.1C307,428.2,314.8,254.7,314.8,193z"/>
	<path class="st0" d="M716.2,251.2l76.1,12.6c15.2,2.5,26.1,15.9,25.5,31.2c-1.7,42-7.4,122.6-26.2,162.2
		c-17,35.7-68.1,88.1-125.1,95.5"/>
	<rect x="376.5" y="774.1" class="st0" width="275.9" height="94"/>
	<path class="st0" d="M556.1,654.4c0,0,11.8,46.4,53.3,87.3c12,11.9,3.5,32.4-13.4,32.4h-82.2"/>
	<path class="st0" d="M471.6,654.4c0,0-11.8,46.4-53.3,87.3c-12,11.9-3.5,32.4,13.4,32.4h82.2"/>
</g>
</svg>
