<?xml version="1.0" encoding="UTF-8"?>
<svg xmlns="http://www.w3.org/2000/svg" xmlns:xlink="http://www.w3.org/1999/xlink" version="1.1" id="Ebene_1" x="0px" y="0px" viewBox="0 0 50 50" style="enable-background:new 0 0 50 50;" xml:space="preserve">
<style type="text/css">
	.st0{fill:#FFFFFF;}
</style>
<g>
	<path class="st0" d="M28.1,25.6c-1.4-1-2.6-2.2-3.6-3.5L0,50L28.1,25.6z"></path>
	<path class="st0" d="M37,25.9c7.2,0,13-5.8,13-13c0-7.2-5.8-13-13-13S24,5.8,24,13C24,20.1,29.8,25.9,37,25.9z M47.1,13   c0,5.6-4.5,10.1-10.1,10.1c-2.6,0-4.9-1-6.7-2.5c1.2,0.4,2.5,0.6,3.8,0.6c6.4,0,11.6-5.2,11.6-11.5c0-0.8-0.1-1.5-0.2-2.2   C46.5,9,47.1,10.9,47.1,13z"></path>
	<path class="st0" d="M36.6,28c-0.2,0-0.4,0-0.6,0c-1.7,0-3.3-0.3-4.8-0.9L16.9,44.2L36.6,28z"></path>
	<path class="st0" d="M23.1,19.5c-0.7-1.6-1-3.3-1.1-5.1L5.9,33.7L23.1,19.5z"></path>
</g>
</svg>
