<?xml version="1.0" encoding="UTF-8"?>
<svg xmlns="http://www.w3.org/2000/svg" xmlns:xlink="http://www.w3.org/1999/xlink" version="1.1" id="Ebene_1" x="0px" y="0px" viewBox="0 0 260 44" style="enable-background:new 0 0 260 44;" xml:space="preserve">
<style type="text/css">
	.st0{opacity:0.8;}
	.st1{fill:#FFFFFF;}
</style>
<g class="st0">
	<path class="st1" d="M84.1,34.5c1.2,0,2.2,0.4,3.1,1.2c0.1,0.1,0.1,0.3,0,0.4c-0.2,0.2-0.4,0.4-0.6,0.6c-0.1,0.1-0.2,0.1-0.3,0   c-0.6-0.5-1.4-0.9-2.2-0.9c-1.8,0-3.2,1.5-3.2,3.3c0,1.8,1.4,3.3,3.2,3.3c1.1,0,1.8-0.4,1.9-0.4v-1.4h-1.3c-0.1,0-0.2-0.1-0.2-0.2   v-0.7c0-0.1,0.1-0.2,0.2-0.2h2.3c0.1,0,0.2,0.1,0.2,0.2c0,1,0,2.1,0,3.1c0,0.1-0.1,0.2-0.1,0.2c0,0-1.3,0.8-3.2,0.8   c-2.6,0-4.6-2-4.6-4.6C79.5,36.5,81.6,34.5,84.1,34.5z"></path>
	<path class="st1" d="M89.6,34.8c0-0.1,0.1-0.2,0.2-0.2h0.8c0.1,0,0.2,0.1,0.2,0.2v7.5h3.5c0.1,0,0.2,0.1,0.2,0.2v0.7   c0,0.1-0.1,0.2-0.2,0.2h-4.6c-0.1,0-0.2-0.1-0.2-0.2V34.8z"></path>
	<path class="st1" d="M100.1,34.5c2.6,0,4.6,2.1,4.6,4.6c0,2.6-2.1,4.6-4.6,4.6c-2.6,0-4.6-2-4.6-4.6   C95.5,36.5,97.5,34.5,100.1,34.5z M100.1,42.4c1.8,0,3.3-1.5,3.3-3.3c0-1.8-1.5-3.4-3.3-3.4c-1.8,0-3.3,1.5-3.3,3.4   C96.8,40.9,98.3,42.4,100.1,42.4z"></path>
	<path class="st1" d="M106.7,34.8c0-0.1,0.1-0.2,0.2-0.2h2.9c1.6,0,2.7,1,2.7,2.4c0,1-0.7,1.7-1.3,2c0.7,0.3,1.6,0.9,1.6,2.1   c0,1.4-1.2,2.5-2.8,2.5h-3c-0.1,0-0.2-0.1-0.2-0.2V34.8z M110,42.4c0.8,0,1.4-0.6,1.4-1.4c0-0.8-0.7-1.3-1.6-1.3H108v2.7H110z    M109.8,38.5c0.8,0,1.3-0.6,1.3-1.4c0-0.8-0.5-1.3-1.3-1.3H108v2.7H109.8z"></path>
	<path class="st1" d="M113.7,43.3l3.9-8.6c0-0.1,0.2-0.1,0.2-0.1h0.1c0.1,0,0.2,0.1,0.2,0.1l3.9,8.6c0.1,0.2,0,0.3-0.2,0.3h-0.8   c-0.2,0-0.2-0.1-0.3-0.2l-0.8-1.8h-4.2c-0.3,0.6-0.5,1.2-0.8,1.8c0,0.1-0.1,0.2-0.3,0.2h-0.8C113.7,43.6,113.6,43.4,113.7,43.3z    M119.5,40.5l-1.6-3.5h-0.1l-1.6,3.5H119.5z"></path>
	<path class="st1" d="M123.6,34.8c0-0.1,0.1-0.2,0.2-0.2h0.8c0.1,0,0.2,0.1,0.2,0.2v7.5h3.5c0.1,0,0.2,0.1,0.2,0.2v0.7   c0,0.1-0.1,0.2-0.2,0.2h-4.6c-0.1,0-0.2-0.1-0.2-0.2V34.8z"></path>
	<path class="st1" d="M134.5,35.8h-2.1c-0.1,0-0.2-0.1-0.2-0.2v-0.7c0-0.1,0.1-0.2,0.2-0.2h5.5c0.1,0,0.2,0.1,0.2,0.2v0.7   c0,0.1-0.1,0.2-0.2,0.2h-2.1v7.5c0,0.1-0.1,0.2-0.2,0.2h-0.8c-0.1,0-0.2-0.1-0.2-0.2V35.8z"></path>
	<path class="st1" d="M139.7,34.8c0-0.1,0.1-0.2,0.2-0.2h3.5c1.5,0,2.8,1.2,2.8,2.7c0,1.2-0.8,2.2-1.9,2.6l1.8,3.3   c0.1,0.2,0,0.4-0.2,0.4h-1c-0.1,0-0.2-0.1-0.2-0.1l-1.7-3.4H141v3.3c0,0.1-0.1,0.2-0.2,0.2H140c-0.1,0-0.2-0.1-0.2-0.2V34.8z    M143.3,39c0.8,0,1.6-0.7,1.6-1.6c0-0.8-0.7-1.5-1.6-1.5h-2.3V39H143.3z"></path>
	<path class="st1" d="M147.2,43.3l3.9-8.6c0-0.1,0.2-0.1,0.2-0.1h0.1c0.1,0,0.2,0.1,0.2,0.1l3.9,8.6c0.1,0.2,0,0.3-0.2,0.3h-0.8   c-0.2,0-0.2-0.1-0.3-0.2l-0.8-1.8h-4.2c-0.3,0.6-0.5,1.2-0.8,1.8c0,0.1-0.1,0.2-0.3,0.2h-0.8C147.3,43.6,147.2,43.4,147.2,43.3z    M153,40.5l-1.6-3.5h-0.1l-1.6,3.5H153z"></path>
	<path class="st1" d="M157.1,34.8c0-0.1,0.1-0.2,0.2-0.2h0.8c0.1,0,0.2,0.1,0.2,0.2v8.5c0,0.1-0.1,0.2-0.2,0.2h-0.8   c-0.1,0-0.2-0.1-0.2-0.2V34.8z"></path>
	<path class="st1" d="M161.1,34.7c0-0.1,0.1-0.2,0.2-0.2h0.3l5.6,6.4h0v-6.1c0-0.1,0.1-0.2,0.2-0.2h0.8c0.1,0,0.2,0.1,0.2,0.2v8.6   c0,0.1-0.1,0.2-0.2,0.2H168l-5.6-6.6h0v6.3c0,0.1-0.1,0.2-0.2,0.2h-0.8c-0.1,0-0.2-0.1-0.2-0.2V34.7z"></path>
	<path class="st1" d="M171.3,34.8c0-0.1,0.1-0.2,0.2-0.2h0.8c0.1,0,0.2,0.1,0.2,0.2v8.5c0,0.1-0.1,0.2-0.2,0.2h-0.8   c-0.1,0-0.2-0.1-0.2-0.2V34.8z"></path>
	<path class="st1" d="M175.3,34.7c0-0.1,0.1-0.2,0.2-0.2h0.3l5.6,6.4h0v-6.1c0-0.1,0.1-0.2,0.2-0.2h0.8c0.1,0,0.2,0.1,0.2,0.2v8.6   c0,0.1-0.1,0.2-0.2,0.2h-0.3l-5.6-6.6h0v6.3c0,0.1-0.1,0.2-0.2,0.2h-0.8c-0.1,0-0.2-0.1-0.2-0.2V34.7z"></path>
	<path class="st1" d="M189.4,34.5c1.2,0,2.2,0.4,3.1,1.2c0.1,0.1,0.1,0.3,0,0.4c-0.2,0.2-0.4,0.4-0.6,0.6c-0.1,0.1-0.2,0.1-0.3,0   c-0.6-0.5-1.4-0.9-2.2-0.9c-1.8,0-3.2,1.5-3.2,3.3c0,1.8,1.4,3.3,3.2,3.3c1.1,0,1.8-0.4,1.9-0.4v-1.4h-1.3c-0.1,0-0.2-0.1-0.2-0.2   v-0.7c0-0.1,0.1-0.2,0.2-0.2h2.3c0.1,0,0.2,0.1,0.2,0.2c0,1,0,2.1,0,3.1c0,0.1-0.1,0.2-0.1,0.2c0,0-1.3,0.8-3.2,0.8   c-2.6,0-4.6-2-4.6-4.6C184.8,36.5,186.9,34.5,189.4,34.5z"></path>
	<path class="st1" d="M197.9,34.7c0-0.1,0.1-0.2,0.2-0.2h0.3l5.6,6.4h0v-6.1c0-0.1,0.1-0.2,0.2-0.2h0.8c0.1,0,0.2,0.1,0.2,0.2v8.6   c0,0.1-0.1,0.2-0.2,0.2h-0.3l-5.6-6.6h0v6.3c0,0.1-0.1,0.2-0.2,0.2h-0.8c-0.1,0-0.2-0.1-0.2-0.2V34.7z"></path>
	<path class="st1" d="M208.1,34.8c0-0.1,0.1-0.2,0.2-0.2h5.1c0.1,0,0.2,0.1,0.2,0.2v0.7c0,0.1-0.1,0.2-0.2,0.2h-4.1v2.6h3.4   c0.1,0,0.2,0.1,0.2,0.2v0.7c0,0.1-0.1,0.2-0.2,0.2h-3.4v2.8h4.1c0.1,0,0.2,0.1,0.2,0.2v0.7c0,0.1-0.1,0.2-0.2,0.2h-5.1   c-0.1,0-0.2-0.1-0.2-0.2V34.8z"></path>
	<path class="st1" d="M217.1,35.8H215c-0.1,0-0.2-0.1-0.2-0.2v-0.7c0-0.1,0.1-0.2,0.2-0.2h5.5c0.1,0,0.2,0.1,0.2,0.2v0.7   c0,0.1-0.1,0.2-0.2,0.2h-2.1v7.5c0,0.1-0.1,0.2-0.2,0.2h-0.8c-0.1,0-0.2-0.1-0.2-0.2V35.8z"></path>
	<path class="st1" d="M221.5,34.9c-0.1-0.2,0.1-0.3,0.2-0.3h0.9c0.1,0,0.2,0.1,0.2,0.2l1.6,5.9h0.1l2.1-6.1c0-0.1,0.1-0.1,0.2-0.1   h0.2c0.1,0,0.2,0.1,0.2,0.1l2.1,6.1h0.1l1.5-5.9c0-0.1,0.1-0.2,0.2-0.2h0.9c0.2,0,0.3,0.1,0.2,0.3l-2.4,8.6c0,0.1-0.1,0.2-0.2,0.2   h-0.2c-0.1,0-0.2-0.1-0.2-0.1l-2.3-6.4h-0.1l-2.2,6.4c0,0.1-0.1,0.1-0.2,0.1h-0.2c-0.1,0-0.2-0.1-0.2-0.2L221.5,34.9z"></path>
	<path class="st1" d="M238,34.5c2.6,0,4.6,2.1,4.6,4.6c0,2.6-2.1,4.6-4.6,4.6c-2.6,0-4.6-2-4.6-4.6C233.4,36.5,235.4,34.5,238,34.5z    M238,42.4c1.8,0,3.3-1.5,3.3-3.3c0-1.8-1.5-3.4-3.3-3.4c-1.8,0-3.3,1.5-3.3,3.4C234.6,40.9,236.1,42.4,238,42.4z"></path>
	<path class="st1" d="M244.6,34.8c0-0.1,0.1-0.2,0.2-0.2h3.5c1.5,0,2.8,1.2,2.8,2.7c0,1.2-0.8,2.2-1.9,2.6l1.8,3.3   c0.1,0.2,0,0.4-0.2,0.4h-1c-0.1,0-0.2-0.1-0.2-0.1l-1.7-3.4h-1.9v3.3c0,0.1-0.1,0.2-0.2,0.2h-0.8c-0.1,0-0.2-0.1-0.2-0.2V34.8z    M248.3,39c0.8,0,1.6-0.7,1.6-1.6c0-0.8-0.7-1.5-1.6-1.5H246V39H248.3z"></path>
	<path class="st1" d="M253.4,34.9c0-0.2,0.1-0.3,0.3-0.3h0.7c0.2,0,0.3,0.1,0.3,0.3v3.6l3.6-3.7c0.1-0.1,0.1-0.1,0.2-0.1h1   c0.2,0,0.4,0.3,0.2,0.5l-3.7,3.8l3.9,4.3c0.1,0.1,0,0.4-0.2,0.4h-1c-0.1,0-0.2-0.1-0.2-0.1l-3.7-4.2v4c0,0.2-0.1,0.3-0.3,0.3h-0.7   c-0.2,0-0.3-0.1-0.3-0.3V34.9z"></path>
</g>
<path class="st1" d="M11.5,0c3.2,0,5.6,1.1,7.7,3c0.3,0.3,0.3,0.6,0,0.9c-0.3,0.3-0.6,0.6-0.9,0.9c-0.3,0.3-0.5,0.3-0.8,0  c-1.6-1.4-3.9-2.5-6.1-2.5c-5,0-8.9,4.2-8.9,9.2c0,4.9,3.8,9.2,8.9,9.2c3.5,0,5.7-1.3,5.7-1.3v-4.5h-3.7c-0.4,0-0.6-0.3-0.6-0.6  v-1.2c0-0.4,0.3-0.6,0.6-0.6h5.5c0.3,0,0.6,0.3,0.6,0.6v7.3c0,0.2-0.1,0.4-0.3,0.5c0,0-3.3,2.1-7.9,2.1C5.1,23,0,17.9,0,11.5  C0,5.1,5.1,0,11.5,0z"></path>
<path class="st1" d="M29.7,2.5h-5.6c-0.4,0-0.6-0.3-0.6-0.6V0.9c0-0.3,0.3-0.6,0.6-0.6h13.5c0.4,0,0.6,0.3,0.6,0.6v0.9  c0,0.3-0.3,0.6-0.6,0.6h-5.6v19.6c0,0.3-0.3,0.6-0.6,0.6h-1.2c-0.3,0-0.6-0.3-0.6-0.6V2.5z"></path>
<path class="st1" d="M43.4,0.6C43.4,0.3,43.7,0,44,0h0.8l14.4,17.9c0,0,0,0,0.1,0v-17c0-0.3,0.3-0.6,0.6-0.6H61  c0.3,0,0.6,0.3,0.6,0.6v21.5c0,0.3-0.3,0.6-0.6,0.6h-0.6L45.8,4.7h0v17.4c0,0.3-0.3,0.6-0.6,0.6H44c-0.3,0-0.6-0.3-0.6-0.6V0.6z"></path>
<path class="st1" d="M77,19.3c0.2-0.2,0.3-0.4,0.5-0.6c0.3-0.4,0.7-0.7,1.1-0.3c0.2,0.2,2.6,2.4,5.4,2.4c2.6,0,4.3-1.6,4.3-3.5  c0-2.2-1.9-3.5-5.6-5c-3.5-1.5-5.6-3-5.6-6.6C77,3.5,78.8,0,83.8,0c3.1,0,5.5,1.6,5.5,1.6c0.2,0.1,0.6,0.5,0.2,1.1  c-0.1,0.2-0.3,0.4-0.4,0.6c-0.3,0.4-0.6,0.6-1.1,0.3c-0.2-0.1-2.2-1.5-4.2-1.5c-3.4,0-4.4,2.2-4.4,3.5c0,2.1,1.6,3.4,4.3,4.5  c4.3,1.8,7.1,3.4,7.1,7.1c0,3.3-3.2,5.7-6.9,5.7c-3.8,0-6.3-2.2-6.7-2.6C76.9,20.2,76.6,19.9,77,19.3z"></path>
<path class="st1" d="M124.8,0.9c0-0.3,0.3-0.6,0.6-0.6h1.2c0.3,0,0.6,0.3,0.6,0.6v19.6h9.2c0.4,0,0.6,0.3,0.6,0.6v0.9  c0,0.3-0.3,0.6-0.6,0.6h-11c-0.4,0-0.6-0.3-0.6-0.6V0.9z"></path>
<path class="st1" d="M141.3,0.9c0-0.3,0.3-0.6,0.6-0.6h1.2c0.4,0,0.6,0.3,0.6,0.6v13.3c0,3.6,2.3,6.5,6,6.5c3.8,0,6.1-2.8,6.1-6.4  V0.9c0-0.3,0.3-0.6,0.6-0.6h1.2c0.3,0,0.6,0.3,0.6,0.6v13.5c0,4.9-3.4,8.6-8.5,8.6c-5,0-8.4-3.7-8.4-8.6V0.9z"></path>
<path class="st1" d="M169.2,2.5h-5.6c-0.4,0-0.6-0.3-0.6-0.6V0.9c0-0.3,0.3-0.6,0.6-0.6h13.5c0.4,0,0.6,0.3,0.6,0.6v0.9  c0,0.3-0.3,0.6-0.6,0.6h-5.6v19.6c0,0.3-0.3,0.6-0.6,0.6h-1.2c-0.3,0-0.6-0.3-0.6-0.6V2.5z"></path>
<path class="st1" d="M182.9,0.9c0-0.3,0.3-0.6,0.6-0.6h1.3c0.3,0,0.6,0.3,0.6,0.6v21.1c0,0.3-0.3,0.6-0.6,0.6h-1.3  c-0.3,0-0.6-0.3-0.6-0.6V0.9z"></path>
<path class="st1" d="M203.3,0c6.4,0,11.5,5.1,11.5,11.5c0,6.4-5.1,11.5-11.5,11.5c-6.4,0-11.5-5.1-11.5-11.5  C191.9,5.1,197,0,203.3,0z M203.3,20.8c5.1,0,9.3-4.1,9.3-9.2c0-5.1-4.2-9.3-9.3-9.3c-5.1,0-9.2,4.2-9.2,9.3  C194.1,16.6,198.3,20.8,203.3,20.8z"></path>
<path class="st1" d="M221.3,0.6c0-0.3,0.3-0.6,0.6-0.6h0.8l14.4,17.9c0,0,0,0,0.1,0v-17c0-0.3,0.3-0.6,0.6-0.6h1.1  c0.3,0,0.6,0.3,0.6,0.6v21.5c0,0.3-0.3,0.6-0.6,0.6h-0.6L223.7,4.7h0v17.4c0,0.3-0.3,0.6-0.6,0.6h-1.1c-0.3,0-0.6-0.3-0.6-0.6V0.6z"></path>
<path class="st1" d="M246.2,19.3c0.2-0.2,0.3-0.4,0.5-0.6c0.3-0.4,0.7-0.7,1.1-0.3c0.2,0.2,2.6,2.4,5.4,2.4c2.6,0,4.3-1.6,4.3-3.5  c0-2.2-1.9-3.5-5.6-5c-3.5-1.5-5.6-3-5.6-6.6c0-2.2,1.7-5.7,6.8-5.7c3.1,0,5.5,1.6,5.5,1.6c0.2,0.1,0.6,0.5,0.2,1.1  c-0.1,0.2-0.3,0.4-0.4,0.6c-0.3,0.4-0.6,0.6-1.1,0.3C257,3.5,255,2.2,253,2.2c-3.4,0-4.4,2.2-4.4,3.5c0,2.1,1.6,3.4,4.3,4.5  c4.3,1.8,7.1,3.4,7.1,7.1c0,3.3-3.2,5.7-6.9,5.7c-3.8,0-6.3-2.2-6.7-2.6C246.1,20.2,245.8,19.9,246.2,19.3z"></path>
<path class="st1" d="M106.9,0c-6.3,0-11.5,5.1-11.5,11.5c0,2.6,0.8,5,2.3,6.9c-0.5,1.7-1.2,3.4-2.2,4.6c1.6-0.1,3.9-0.7,6.1-1.3  c1.6,0.8,3.4,1.3,5.3,1.3c6.3,0,11.5-5.1,11.5-11.5C118.4,5.1,113.3,0,106.9,0z M106.9,19c-4.1,0-7.5-3.3-7.5-7.5  c0-4.1,3.3-7.5,7.5-7.5c4.1,0,7.5,3.3,7.5,7.5C114.4,15.6,111.1,19,106.9,19z"></path>
</svg>
