<?xml version="1.0" encoding="UTF-8"?>
<svg xmlns="http://www.w3.org/2000/svg" xmlns:xlink="http://www.w3.org/1999/xlink" version="1.1" id="Ebene_1" x="0px" y="0px" viewBox="0 0 306 59" style="enable-background:new 0 0 306 59;" xml:space="preserve">
<style type="text/css">
	.st0{fill:#FFFFFF;}
	.st1{fill:#709D25;}
</style>
<g>
	<path class="st0" d="M84.62,7.5v11.99L95.92,7.5h7.94l-11.3,11.42l12.39,17.49h-7.98l-8.71-13l-3.64,3.69v9.31h-6.36V7.5H84.62z"></path>
	<path class="st0" d="M107.22,16.07c0.65-1.85,1.58-3.46,2.79-4.84c1.21-1.38,2.71-2.46,4.47-3.24c1.77-0.78,3.76-1.17,5.97-1.17   c2.24,0,4.24,0.39,5.99,1.17c1.75,0.78,3.24,1.86,4.45,3.24c1.21,1.38,2.15,2.99,2.79,4.84c0.65,1.85,0.97,3.85,0.97,6.01   c0,2.11-0.32,4.07-0.97,5.89c-0.65,1.82-1.58,3.41-2.79,4.76c-1.22,1.35-2.7,2.41-4.45,3.18c-1.76,0.77-3.75,1.15-5.99,1.15   c-2.21,0-4.21-0.38-5.97-1.15c-1.77-0.77-3.26-1.83-4.47-3.18c-1.22-1.35-2.15-2.94-2.79-4.76c-0.65-1.82-0.97-3.79-0.97-5.89   C106.24,19.92,106.57,17.92,107.22,16.07z M113.03,25.62c0.28,1.15,0.74,2.18,1.36,3.1c0.62,0.92,1.43,1.65,2.43,2.21   c1,0.55,2.21,0.83,3.64,0.83c1.43,0,2.65-0.28,3.64-0.83c1-0.55,1.81-1.29,2.43-2.21c0.62-0.92,1.07-1.95,1.36-3.1   c0.28-1.15,0.43-2.33,0.43-3.54c0-1.27-0.14-2.5-0.43-3.69c-0.28-1.19-0.74-2.25-1.36-3.18c-0.62-0.93-1.43-1.67-2.43-2.23   c-1-0.55-2.21-0.83-3.64-0.83c-1.43,0-2.65,0.28-3.64,0.83c-1,0.55-1.81,1.3-2.43,2.23c-0.62,0.93-1.07,1.99-1.36,3.18   c-0.28,1.19-0.43,2.42-0.43,3.69C112.6,23.3,112.74,24.48,113.03,25.62z"></path>
	<path class="st0" d="M147.96,7.5l6.76,19.88h0.08l6.4-19.88h8.95v28.91h-5.95V15.93h-0.08l-7.09,20.49h-4.9l-7.09-20.29h-0.08   v20.29h-5.95V7.5H147.96z"></path>
	<path class="st0" d="M197.36,7.5v5.35h-15.27v6.2h14.01v4.94h-14.01v7.09h15.59v5.35h-21.95V7.5H197.36z"></path>
	<path class="st0" d="M199.71,12.85V7.5h23.69v5.35h-8.67v23.57h-6.36V12.85H199.71z"></path>
</g>
<g>
	<path class="st0" d="M86.49,54.13h-1.5l-4-5.33l-1.15,1.02v4.31h-1.28V43.15h1.28v5.45l4.98-5.45h1.51l-4.42,4.77L86.49,54.13z"></path>
	<path class="st0" d="M94.92,50.01c0,1.34-0.34,2.39-1.01,3.14c-0.68,0.75-1.61,1.13-2.8,1.13c-0.74,0-1.39-0.17-1.96-0.52   c-0.57-0.35-1.01-0.84-1.32-1.49c-0.31-0.65-0.47-1.4-0.47-2.27c0-1.34,0.34-2.39,1.01-3.14c0.67-0.75,1.6-1.12,2.79-1.12   c1.15,0,2.07,0.38,2.75,1.15C94.58,47.66,94.92,48.7,94.92,50.01z M88.64,50.01c0,1.05,0.21,1.85,0.63,2.4   c0.42,0.55,1.04,0.83,1.86,0.83c0.82,0,1.44-0.27,1.86-0.82c0.42-0.55,0.63-1.35,0.63-2.41c0-1.05-0.21-1.84-0.63-2.39   c-0.42-0.54-1.05-0.82-1.87-0.82c-0.82,0-1.43,0.27-1.85,0.8C88.85,48.15,88.64,48.94,88.64,50.01z"></path>
	<path class="st0" d="M107.6,54.13v-5.36c0-0.66-0.14-1.15-0.42-1.48c-0.28-0.33-0.72-0.49-1.31-0.49c-0.78,0-1.35,0.22-1.72,0.67   c-0.37,0.45-0.56,1.13-0.56,2.06v4.6h-1.25v-5.36c0-0.66-0.14-1.15-0.42-1.48c-0.28-0.33-0.72-0.49-1.31-0.49   c-0.78,0-1.35,0.23-1.72,0.7c-0.36,0.47-0.54,1.24-0.54,2.3v4.32H97.1V45.9h1.01l0.2,1.13h0.06c0.24-0.4,0.57-0.71,1-0.94   c0.43-0.23,0.91-0.34,1.44-0.34c1.29,0,2.13,0.47,2.52,1.4h0.06c0.25-0.43,0.6-0.77,1.07-1.02c0.47-0.25,1-0.38,1.59-0.38   c0.93,0,1.63,0.24,2.09,0.72c0.46,0.48,0.7,1.24,0.7,2.3v5.37H107.6z"></path>
	<path class="st0" d="M115.25,54.28c-0.54,0-1.03-0.1-1.47-0.3c-0.44-0.2-0.82-0.5-1.12-0.91h-0.09c0.06,0.48,0.09,0.94,0.09,1.37   v3.39h-1.25V45.9h1.01l0.17,1.13h0.06c0.32-0.45,0.69-0.78,1.12-0.98c0.43-0.2,0.91-0.3,1.47-0.3c1.09,0,1.93,0.37,2.53,1.12   c0.59,0.75,0.89,1.79,0.89,3.14c0,1.35-0.3,2.4-0.91,3.15C117.16,53.91,116.32,54.28,115.25,54.28z M115.07,46.8   c-0.84,0-1.45,0.23-1.83,0.7c-0.38,0.47-0.57,1.21-0.58,2.22v0.28c0,1.16,0.19,1.98,0.58,2.48c0.39,0.5,1,0.75,1.86,0.75   c0.71,0,1.27-0.29,1.67-0.86c0.4-0.58,0.6-1.37,0.6-2.38c0-1.03-0.2-1.81-0.6-2.36C116.37,47.08,115.8,46.8,115.07,46.8z"></path>
	<path class="st0" d="M124.32,54.28c-1.22,0-2.18-0.37-2.88-1.11c-0.7-0.74-1.06-1.77-1.06-3.09c0-1.33,0.33-2.38,0.98-3.16   c0.65-0.78,1.53-1.17,2.63-1.17c1.03,0,1.85,0.34,2.45,1.02c0.6,0.68,0.9,1.57,0.9,2.69v0.79h-5.67c0.02,0.97,0.27,1.7,0.73,2.2   c0.46,0.5,1.12,0.75,1.96,0.75c0.89,0,1.76-0.19,2.63-0.56v1.11c-0.44,0.19-0.86,0.33-1.25,0.41   C125.35,54.24,124.88,54.28,124.32,54.28z M123.99,46.79c-0.66,0-1.19,0.22-1.58,0.65c-0.39,0.43-0.62,1.03-0.69,1.79h4.31   c0-0.79-0.18-1.39-0.53-1.81C125.14,47,124.64,46.79,123.99,46.79z"></path>
	<path class="st0" d="M132.14,53.25c0.22,0,0.43-0.02,0.64-0.05c0.21-0.03,0.37-0.07,0.49-0.1v0.95c-0.14,0.07-0.33,0.12-0.6,0.16   c-0.26,0.04-0.5,0.06-0.71,0.06c-1.59,0-2.39-0.84-2.39-2.52v-4.9h-1.18v-0.6l1.18-0.52l0.53-1.76h0.72v1.91h2.39v0.97h-2.39v4.85   c0,0.5,0.12,0.88,0.35,1.14C131.4,53.12,131.73,53.25,132.14,53.25z"></path>
	<path class="st0" d="M138.39,54.28c-1.22,0-2.18-0.37-2.88-1.11c-0.7-0.74-1.06-1.77-1.06-3.09c0-1.33,0.33-2.38,0.98-3.16   c0.65-0.78,1.53-1.17,2.63-1.17c1.03,0,1.85,0.34,2.45,1.02c0.6,0.68,0.9,1.57,0.9,2.69v0.79h-5.67c0.02,0.97,0.27,1.7,0.73,2.2   c0.46,0.5,1.12,0.75,1.96,0.75c0.89,0,1.76-0.19,2.63-0.56v1.11c-0.44,0.19-0.86,0.33-1.25,0.41   C139.42,54.24,138.94,54.28,138.39,54.28z M138.05,46.79c-0.66,0-1.19,0.22-1.58,0.65c-0.39,0.43-0.62,1.03-0.69,1.79h4.31   c0-0.79-0.18-1.39-0.53-1.81C139.2,47,138.7,46.79,138.05,46.79z"></path>
	<path class="st0" d="M149.18,54.13V48.8c0-0.67-0.15-1.17-0.46-1.5c-0.31-0.33-0.78-0.5-1.44-0.5c-0.86,0-1.49,0.23-1.89,0.7   c-0.4,0.47-0.6,1.23-0.6,2.31v4.32h-1.25V45.9h1.01l0.2,1.13h0.06c0.26-0.41,0.61-0.72,1.07-0.94c0.46-0.22,0.97-0.33,1.54-0.33   c0.99,0,1.74,0.24,2.24,0.72c0.5,0.48,0.75,1.24,0.75,2.3v5.37H149.18z"></path>
	<path class="st0" d="M158.25,54.13h-5.97v-0.85l4.49-6.42h-4.21V45.9h5.58v0.97l-4.43,6.3h4.55V54.13z"></path>
	<path class="st0" d="M163.94,45.75c0.37,0,0.69,0.03,0.98,0.09l-0.17,1.16c-0.34-0.08-0.64-0.11-0.9-0.11   c-0.67,0-1.24,0.27-1.71,0.81c-0.47,0.54-0.71,1.21-0.71,2.02v4.42h-1.25V45.9h1.03l0.14,1.53h0.06c0.31-0.54,0.67-0.95,1.1-1.24   C162.95,45.89,163.42,45.75,163.94,45.75z"></path>
	<path class="st0" d="M171.53,54.13l-0.25-1.17h-0.06c-0.41,0.52-0.82,0.87-1.23,1.05c-0.41,0.18-0.92,0.27-1.53,0.27   c-0.82,0-1.46-0.21-1.92-0.63c-0.46-0.42-0.69-1.02-0.69-1.8c0-1.66,1.33-2.53,3.99-2.61l1.4-0.05v-0.51   c0-0.65-0.14-1.12-0.42-1.43c-0.28-0.31-0.72-0.46-1.33-0.46c-0.69,0-1.46,0.21-2.33,0.63l-0.38-0.95   c0.41-0.22,0.85-0.39,1.33-0.52c0.48-0.13,0.97-0.19,1.45-0.19c0.98,0,1.71,0.22,2.18,0.65c0.47,0.44,0.71,1.13,0.71,2.1v5.62   H171.53z M168.71,53.25c0.78,0,1.39-0.21,1.83-0.64c0.44-0.43,0.66-1.02,0.66-1.79v-0.74l-1.25,0.05   c-0.99,0.04-1.71,0.19-2.15,0.46c-0.44,0.27-0.66,0.7-0.66,1.27c0,0.45,0.14,0.79,0.41,1.03   C167.84,53.13,168.22,53.25,168.71,53.25z"></path>
	<path class="st0" d="M180.33,51.88c0,0.77-0.29,1.36-0.86,1.77c-0.57,0.42-1.37,0.62-2.4,0.62c-1.09,0-1.94-0.17-2.55-0.52v-1.16   c0.4,0.2,0.82,0.36,1.27,0.47c0.45,0.12,0.89,0.17,1.31,0.17c0.65,0,1.15-0.1,1.5-0.31c0.35-0.21,0.53-0.52,0.53-0.95   c0-0.32-0.14-0.59-0.42-0.82c-0.28-0.23-0.82-0.5-1.63-0.81c-0.77-0.29-1.31-0.53-1.63-0.75c-0.32-0.21-0.56-0.45-0.72-0.72   c-0.16-0.27-0.24-0.59-0.24-0.97c0-0.67,0.27-1.2,0.82-1.59c0.55-0.39,1.29-0.58,2.25-0.58c0.89,0,1.75,0.18,2.6,0.54l-0.44,1.01   c-0.83-0.34-1.58-0.51-2.25-0.51c-0.59,0-1.04,0.09-1.34,0.28s-0.45,0.44-0.45,0.77c0,0.22,0.06,0.41,0.17,0.56   c0.11,0.16,0.29,0.3,0.54,0.44c0.25,0.14,0.73,0.34,1.44,0.61c0.98,0.36,1.64,0.71,1.98,1.07   C180.16,50.88,180.33,51.34,180.33,51.88z"></path>
	<path class="st0" d="M185.02,53.25c0.22,0,0.43-0.02,0.64-0.05c0.21-0.03,0.37-0.07,0.49-0.1v0.95c-0.14,0.07-0.33,0.12-0.6,0.16   c-0.26,0.04-0.5,0.06-0.71,0.06c-1.59,0-2.39-0.84-2.39-2.52v-4.9h-1.18v-0.6l1.18-0.52l0.53-1.76h0.72v1.91h2.39v0.97h-2.39v4.85   c0,0.5,0.12,0.88,0.35,1.14C184.29,53.12,184.61,53.25,185.02,53.25z"></path>
	<path class="st0" d="M191.27,54.28c-1.22,0-2.18-0.37-2.88-1.11c-0.7-0.74-1.06-1.77-1.06-3.09c0-1.33,0.33-2.38,0.98-3.16   c0.65-0.78,1.53-1.17,2.63-1.17c1.03,0,1.85,0.34,2.45,1.02c0.6,0.68,0.9,1.57,0.9,2.69v0.79h-5.67c0.02,0.97,0.27,1.7,0.73,2.2   c0.46,0.5,1.12,0.75,1.96,0.75c0.89,0,1.76-0.19,2.63-0.56v1.11c-0.44,0.19-0.86,0.33-1.25,0.41   C192.3,54.24,191.83,54.28,191.27,54.28z M190.94,46.79c-0.66,0-1.19,0.22-1.58,0.65c-0.39,0.43-0.62,1.03-0.69,1.79h4.31   c0-0.79-0.18-1.39-0.53-1.81C192.09,47,191.59,46.79,190.94,46.79z"></path>
	<path class="st0" d="M200.18,45.75c0.37,0,0.69,0.03,0.98,0.09L201,46.99c-0.34-0.08-0.64-0.11-0.9-0.11   c-0.67,0-1.24,0.27-1.71,0.81c-0.47,0.54-0.71,1.21-0.71,2.02v4.42h-1.25V45.9h1.03l0.14,1.53h0.06c0.31-0.54,0.67-0.95,1.1-1.24   S199.67,45.75,200.18,45.75z"></path>
	<path class="st0" d="M206.19,54.28c-1.22,0-2.18-0.37-2.88-1.11c-0.7-0.74-1.06-1.77-1.06-3.09c0-1.33,0.33-2.38,0.98-3.16   c0.65-0.78,1.53-1.17,2.63-1.17c1.03,0,1.85,0.34,2.45,1.02c0.6,0.68,0.9,1.57,0.9,2.69v0.79h-5.67c0.02,0.97,0.27,1.7,0.73,2.2   c0.46,0.5,1.12,0.75,1.96,0.75c0.89,0,1.76-0.19,2.63-0.56v1.11c-0.44,0.19-0.86,0.33-1.25,0.41   C207.22,54.24,206.74,54.28,206.19,54.28z M205.85,46.79c-0.66,0-1.19,0.22-1.58,0.65c-0.39,0.43-0.62,1.03-0.69,1.79h4.31   c0-0.79-0.18-1.39-0.53-1.81C207,47,206.5,46.79,205.85,46.79z"></path>
	<path class="st0" d="M215.1,45.75c0.37,0,0.69,0.03,0.98,0.09l-0.17,1.16c-0.34-0.08-0.64-0.11-0.9-0.11   c-0.67,0-1.24,0.27-1.71,0.81c-0.47,0.54-0.71,1.21-0.71,2.02v4.42h-1.25V45.9h1.03l0.14,1.53h0.06c0.31-0.54,0.67-0.95,1.1-1.24   S214.58,45.75,215.1,45.75z"></path>
	<path class="st0" d="M221.33,46.87h-2.1v7.27h-1.25v-7.27h-1.47V46.3l1.47-0.45v-0.46c0-2.02,0.88-3.04,2.65-3.04   c0.44,0,0.95,0.09,1.53,0.26l-0.32,1c-0.48-0.16-0.89-0.23-1.23-0.23c-0.47,0-0.82,0.16-1.04,0.47c-0.23,0.31-0.34,0.82-0.34,1.51   v0.53h2.1V46.87z"></path>
	<path class="st0" d="M227.9,54.13l-0.25-1.17h-0.06c-0.41,0.52-0.82,0.87-1.23,1.05c-0.41,0.18-0.92,0.27-1.53,0.27   c-0.82,0-1.46-0.21-1.92-0.63c-0.46-0.42-0.69-1.02-0.69-1.8c0-1.66,1.33-2.53,3.99-2.61l1.4-0.05v-0.51   c0-0.65-0.14-1.12-0.42-1.43c-0.28-0.31-0.72-0.46-1.33-0.46c-0.69,0-1.46,0.21-2.33,0.63l-0.38-0.95   c0.41-0.22,0.85-0.39,1.33-0.52c0.48-0.13,0.97-0.19,1.45-0.19c0.98,0,1.71,0.22,2.18,0.65c0.47,0.44,0.71,1.13,0.71,2.1v5.62   H227.9z M225.08,53.25c0.78,0,1.39-0.21,1.83-0.64c0.44-0.43,0.66-1.02,0.66-1.79v-0.74l-1.25,0.05c-0.99,0.04-1.71,0.19-2.15,0.46   c-0.44,0.27-0.66,0.7-0.66,1.27c0,0.45,0.14,0.79,0.41,1.03C224.21,53.13,224.59,53.25,225.08,53.25z"></path>
	<path class="st0" d="M236.71,51.88c0,0.77-0.29,1.36-0.86,1.77c-0.57,0.42-1.37,0.62-2.4,0.62c-1.09,0-1.94-0.17-2.55-0.52v-1.16   c0.4,0.2,0.82,0.36,1.27,0.47c0.45,0.12,0.89,0.17,1.31,0.17c0.65,0,1.15-0.1,1.5-0.31c0.35-0.21,0.53-0.52,0.53-0.95   c0-0.32-0.14-0.59-0.42-0.82c-0.28-0.23-0.82-0.5-1.63-0.81c-0.77-0.29-1.31-0.53-1.63-0.75c-0.32-0.21-0.56-0.45-0.72-0.72   c-0.16-0.27-0.24-0.59-0.24-0.97c0-0.67,0.27-1.2,0.82-1.59c0.55-0.39,1.29-0.58,2.25-0.58c0.89,0,1.75,0.18,2.6,0.54l-0.44,1.01   c-0.83-0.34-1.58-0.51-2.25-0.51c-0.59,0-1.04,0.09-1.34,0.28c-0.3,0.19-0.45,0.44-0.45,0.77c0,0.22,0.06,0.41,0.17,0.56   c0.11,0.16,0.29,0.3,0.54,0.44c0.25,0.14,0.73,0.34,1.44,0.61c0.98,0.36,1.64,0.71,1.98,1.07   C236.53,50.88,236.71,51.34,236.71,51.88z"></path>
	<path class="st0" d="M244.05,51.88c0,0.77-0.29,1.36-0.86,1.77c-0.57,0.42-1.37,0.62-2.4,0.62c-1.09,0-1.94-0.17-2.55-0.52v-1.16   c0.4,0.2,0.82,0.36,1.27,0.47c0.45,0.12,0.89,0.17,1.31,0.17c0.65,0,1.15-0.1,1.5-0.31c0.35-0.21,0.53-0.52,0.53-0.95   c0-0.32-0.14-0.59-0.42-0.82c-0.28-0.23-0.82-0.5-1.63-0.81c-0.77-0.29-1.31-0.53-1.63-0.75c-0.32-0.21-0.56-0.45-0.72-0.72   c-0.16-0.27-0.24-0.59-0.24-0.97c0-0.67,0.27-1.2,0.82-1.59c0.55-0.39,1.29-0.58,2.25-0.58c0.89,0,1.75,0.18,2.6,0.54l-0.44,1.01   c-0.83-0.34-1.58-0.51-2.25-0.51c-0.59,0-1.04,0.09-1.34,0.28c-0.3,0.19-0.45,0.44-0.45,0.77c0,0.22,0.06,0.41,0.17,0.56   c0.11,0.16,0.29,0.3,0.54,0.44c0.25,0.14,0.73,0.34,1.44,0.61c0.98,0.36,1.64,0.71,1.98,1.07   C243.87,50.88,244.05,51.34,244.05,51.88z"></path>
	<path class="st0" d="M247.25,45.9v5.34c0,0.67,0.15,1.17,0.46,1.5c0.31,0.33,0.78,0.5,1.44,0.5c0.86,0,1.49-0.24,1.89-0.71   c0.4-0.47,0.6-1.24,0.6-2.31V45.9h1.25v8.23h-1.03l-0.18-1.1h-0.07c-0.26,0.41-0.61,0.72-1.06,0.93c-0.45,0.22-0.97,0.32-1.55,0.32   c-1,0-1.75-0.24-2.25-0.71c-0.5-0.48-0.75-1.24-0.75-2.28V45.9H247.25z"></path>
	<path class="st0" d="M261.15,54.13V48.8c0-0.67-0.15-1.17-0.46-1.5c-0.31-0.33-0.78-0.5-1.44-0.5c-0.86,0-1.49,0.23-1.89,0.7   c-0.4,0.47-0.6,1.23-0.6,2.31v4.32h-1.25V45.9h1.01l0.2,1.13h0.06c0.26-0.41,0.61-0.72,1.07-0.94c0.46-0.22,0.97-0.33,1.54-0.33   c0.99,0,1.74,0.24,2.24,0.72c0.5,0.48,0.75,1.24,0.75,2.3v5.37H261.15z"></path>
	<path class="st0" d="M271.7,45.9v0.79l-1.53,0.18c0.14,0.18,0.27,0.4,0.38,0.69c0.11,0.28,0.17,0.6,0.17,0.96   c0,0.81-0.28,1.45-0.83,1.93c-0.55,0.48-1.31,0.72-2.27,0.72c-0.25,0-0.48-0.02-0.69-0.06c-0.53,0.28-0.8,0.63-0.8,1.06   c0,0.23,0.09,0.39,0.28,0.5c0.19,0.11,0.5,0.16,0.95,0.16h1.46c0.89,0,1.58,0.19,2.05,0.56c0.48,0.38,0.72,0.92,0.72,1.64   c0,0.91-0.37,1.61-1.1,2.08c-0.73,0.48-1.8,0.72-3.2,0.72c-1.08,0-1.91-0.2-2.49-0.6c-0.58-0.4-0.88-0.97-0.88-1.7   c0-0.5,0.16-0.93,0.48-1.3c0.32-0.37,0.77-0.61,1.35-0.74c-0.21-0.09-0.39-0.24-0.53-0.44c-0.14-0.2-0.21-0.43-0.21-0.7   c0-0.3,0.08-0.56,0.24-0.79c0.16-0.23,0.41-0.44,0.76-0.65c-0.43-0.18-0.77-0.47-1.04-0.89c-0.27-0.42-0.4-0.9-0.4-1.44   c0-0.9,0.27-1.6,0.81-2.09c0.54-0.49,1.31-0.73,2.3-0.73c0.43,0,0.82,0.05,1.16,0.15H271.7z M265.14,55.51   c0,0.45,0.19,0.78,0.56,1.01c0.38,0.23,0.91,0.35,1.62,0.35c1.05,0,1.82-0.16,2.33-0.47c0.5-0.31,0.75-0.74,0.75-1.27   c0-0.45-0.14-0.75-0.41-0.93c-0.28-0.17-0.79-0.26-1.56-0.26h-1.5c-0.57,0-1.01,0.14-1.32,0.41   C265.29,54.62,265.14,55.01,265.14,55.51z M265.81,48.53c0,0.58,0.16,1.01,0.49,1.31s0.78,0.44,1.36,0.44   c1.22,0,1.83-0.59,1.83-1.77c0-1.24-0.62-1.86-1.85-1.86c-0.59,0-1.04,0.16-1.35,0.47C265.97,47.44,265.81,47.91,265.81,48.53z"></path>
	<path class="st0" d="M278.7,51.88c0,0.77-0.29,1.36-0.86,1.77c-0.57,0.42-1.37,0.62-2.4,0.62c-1.09,0-1.94-0.17-2.55-0.52v-1.16   c0.4,0.2,0.82,0.36,1.27,0.47c0.45,0.12,0.89,0.17,1.31,0.17c0.65,0,1.15-0.1,1.5-0.31c0.35-0.21,0.53-0.52,0.53-0.95   c0-0.32-0.14-0.59-0.42-0.82c-0.28-0.23-0.82-0.5-1.63-0.81c-0.77-0.29-1.31-0.53-1.63-0.75c-0.32-0.21-0.56-0.45-0.72-0.72   c-0.16-0.27-0.24-0.59-0.24-0.97c0-0.67,0.27-1.2,0.82-1.59c0.55-0.39,1.29-0.58,2.25-0.58c0.89,0,1.75,0.18,2.6,0.54l-0.44,1.01   c-0.83-0.34-1.58-0.51-2.25-0.51c-0.59,0-1.04,0.09-1.34,0.28c-0.3,0.19-0.45,0.44-0.45,0.77c0,0.22,0.06,0.41,0.17,0.56   c0.11,0.16,0.29,0.3,0.54,0.44c0.25,0.14,0.73,0.34,1.44,0.61c0.98,0.36,1.64,0.71,1.98,1.07C278.53,50.88,278.7,51.34,278.7,51.88   z"></path>
	<path class="st0" d="M283.39,53.25c0.22,0,0.43-0.02,0.64-0.05c0.21-0.03,0.37-0.07,0.49-0.1v0.95c-0.14,0.07-0.33,0.12-0.6,0.16   c-0.26,0.04-0.5,0.06-0.71,0.06c-1.59,0-2.39-0.84-2.39-2.52v-4.9h-1.18v-0.6l1.18-0.52l0.53-1.76h0.72v1.91h2.39v0.97h-2.39v4.85   c0,0.5,0.12,0.88,0.35,1.14C282.66,53.12,282.98,53.25,283.39,53.25z"></path>
	<path class="st0" d="M293.27,50.01c0,1.34-0.34,2.39-1.01,3.14c-0.68,0.75-1.61,1.13-2.8,1.13c-0.74,0-1.39-0.17-1.96-0.52   c-0.57-0.35-1.01-0.84-1.32-1.49c-0.31-0.65-0.47-1.4-0.47-2.27c0-1.34,0.34-2.39,1.01-3.14c0.67-0.75,1.6-1.12,2.79-1.12   c1.15,0,2.07,0.38,2.75,1.15C292.93,47.66,293.27,48.7,293.27,50.01z M287,50.01c0,1.05,0.21,1.85,0.63,2.4   c0.42,0.55,1.04,0.83,1.86,0.83c0.82,0,1.44-0.27,1.86-0.82c0.42-0.55,0.63-1.35,0.63-2.41c0-1.05-0.21-1.84-0.63-2.39   c-0.42-0.54-1.05-0.82-1.87-0.82c-0.82,0-1.43,0.27-1.85,0.8C287.21,48.15,287,48.94,287,50.01z"></path>
	<path class="st0" d="M302.57,50.01c0,1.34-0.34,2.39-1.01,3.14c-0.68,0.75-1.61,1.13-2.8,1.13c-0.74,0-1.39-0.17-1.96-0.52   c-0.57-0.35-1.01-0.84-1.32-1.49c-0.31-0.65-0.47-1.4-0.47-2.27c0-1.34,0.34-2.39,1.01-3.14c0.67-0.75,1.6-1.12,2.79-1.12   c1.15,0,2.07,0.38,2.75,1.15C302.23,47.66,302.57,48.7,302.57,50.01z M296.29,50.01c0,1.05,0.21,1.85,0.63,2.4   c0.42,0.55,1.04,0.83,1.86,0.83c0.82,0,1.44-0.27,1.86-0.82c0.42-0.55,0.63-1.35,0.63-2.41c0-1.05-0.21-1.84-0.63-2.39   c-0.42-0.54-1.05-0.82-1.87-0.82c-0.82,0-1.43,0.27-1.85,0.8C296.5,48.15,296.29,48.94,296.29,50.01z"></path>
	<path class="st0" d="M306,54.13h-1.25V42.44H306V54.13z"></path>
</g>
<path class="st1" d="M58.78,48.85c0,5.49-4.45,9.94-9.94,9.94H9.94C4.45,58.78,0,54.33,0,48.85V9.94C0,4.45,4.45,0,9.94,0h38.91  c5.49,0,9.94,4.45,9.94,9.94V48.85z"></path>
<g>
	<path class="st0" d="M32.01,29.88c-1.19-0.81-2.21-1.84-3.04-3.02L8.19,50.67L32.01,29.88z"></path>
	<path class="st0" d="M39.55,30.19c6.09,0,11.04-4.95,11.04-11.04c0-6.09-4.95-11.04-11.04-11.04s-11.04,4.95-11.04,11.04   C28.51,25.24,33.46,30.19,39.55,30.19z M48.14,19.15c0,4.74-3.86,8.6-8.6,8.6c-2.17,0-4.15-0.81-5.66-2.15   c1.01,0.35,2.09,0.55,3.22,0.55c5.42,0,9.82-4.4,9.82-9.82c0-0.64-0.07-1.27-0.18-1.88C47.62,15.81,48.14,17.42,48.14,19.15z"></path>
	<path class="st0" d="M39.19,31.94c-0.16,0.01-0.31,0.02-0.47,0.02c-1.45,0-2.83-0.27-4.11-0.74L22.55,45.75L39.19,31.94z"></path>
	<path class="st0" d="M27.78,24.73c-0.57-1.34-0.89-2.81-0.93-4.36L13.19,36.83L27.78,24.73z"></path>
</g>
</svg>
