<?xml version="1.0" encoding="UTF-8"?>
<svg xmlns="http://www.w3.org/2000/svg" xmlns:xlink="http://www.w3.org/1999/xlink" version="1.1" id="Ebene_1" x="0px" y="0px" viewBox="0 0 306 59" style="enable-background:new 0 0 306 59;" xml:space="preserve">
<style type="text/css">
	.st0{fill:#FFFFFF;}
</style>
<g>
	<g>
		<g>
			<path class="st0" d="M84.6,7.5v12l11.3-12h7.9L92.6,18.9l12.4,17.5h-8l-8.7-13l-3.6,3.7v9.3h-6.4V7.5H84.6z"></path>
			<path class="st0" d="M107.2,16.1c0.6-1.8,1.6-3.5,2.8-4.8c1.2-1.4,2.7-2.5,4.5-3.2c1.8-0.8,3.8-1.2,6-1.2c2.2,0,4.2,0.4,6,1.2     c1.8,0.8,3.2,1.9,4.5,3.2c1.2,1.4,2.1,3,2.8,4.8c0.6,1.8,1,3.9,1,6c0,2.1-0.3,4.1-1,5.9c-0.6,1.8-1.6,3.4-2.8,4.8     c-1.2,1.4-2.7,2.4-4.5,3.2c-1.8,0.8-3.8,1.2-6,1.2c-2.2,0-4.2-0.4-6-1.2c-1.8-0.8-3.3-1.8-4.5-3.2c-1.2-1.3-2.1-2.9-2.8-4.8     c-0.6-1.8-1-3.8-1-5.9C106.2,19.9,106.6,17.9,107.2,16.1z M113,25.6c0.3,1.1,0.7,2.2,1.4,3.1c0.6,0.9,1.4,1.7,2.4,2.2     c1,0.6,2.2,0.8,3.6,0.8c1.4,0,2.6-0.3,3.6-0.8c1-0.6,1.8-1.3,2.4-2.2c0.6-0.9,1.1-2,1.4-3.1c0.3-1.1,0.4-2.3,0.4-3.5     c0-1.3-0.1-2.5-0.4-3.7c-0.3-1.2-0.7-2.2-1.4-3.2c-0.6-0.9-1.4-1.7-2.4-2.2c-1-0.6-2.2-0.8-3.6-0.8c-1.4,0-2.6,0.3-3.6,0.8     c-1,0.6-1.8,1.3-2.4,2.2c-0.6,0.9-1.1,2-1.4,3.2c-0.3,1.2-0.4,2.4-0.4,3.7C112.6,23.3,112.7,24.5,113,25.6z"></path>
			<path class="st0" d="M148,7.5l6.8,19.9h0.1l6.4-19.9h8.9v28.9h-6V15.9h-0.1L157,36.4h-4.9L145,16.1H145v20.3h-6V7.5H148z"></path>
			<path class="st0" d="M197.4,7.5v5.3h-15.3V19h14V24h-14v7.1h15.6v5.3h-21.9V7.5H197.4z"></path>
			<path class="st0" d="M199.7,12.8V7.5h23.7v5.3h-8.7v23.6h-6.4V12.8H199.7z"></path>
		</g>
		<g>
			<path class="st0" d="M86.5,54.1H85l-4-5.3l-1.1,1v4.3h-1.3v-11h1.3v5.4l5-5.4h1.5l-4.4,4.8L86.5,54.1z"></path>
			<path class="st0" d="M94.9,50c0,1.3-0.3,2.4-1,3.1c-0.7,0.8-1.6,1.1-2.8,1.1c-0.7,0-1.4-0.2-2-0.5c-0.6-0.3-1-0.8-1.3-1.5     c-0.3-0.6-0.5-1.4-0.5-2.3c0-1.3,0.3-2.4,1-3.1c0.7-0.7,1.6-1.1,2.8-1.1c1.2,0,2.1,0.4,2.7,1.1C94.6,47.7,94.9,48.7,94.9,50z      M88.6,50c0,1.1,0.2,1.9,0.6,2.4c0.4,0.6,1,0.8,1.9,0.8c0.8,0,1.4-0.3,1.9-0.8c0.4-0.5,0.6-1.4,0.6-2.4c0-1-0.2-1.8-0.6-2.4     c-0.4-0.5-1-0.8-1.9-0.8c-0.8,0-1.4,0.3-1.8,0.8C88.9,48.1,88.6,48.9,88.6,50z"></path>
			<path class="st0" d="M107.6,54.1v-5.4c0-0.7-0.1-1.1-0.4-1.5c-0.3-0.3-0.7-0.5-1.3-0.5c-0.8,0-1.3,0.2-1.7,0.7     c-0.4,0.4-0.6,1.1-0.6,2.1v4.6h-1.2v-5.4c0-0.7-0.1-1.1-0.4-1.5c-0.3-0.3-0.7-0.5-1.3-0.5c-0.8,0-1.4,0.2-1.7,0.7     c-0.4,0.5-0.5,1.2-0.5,2.3v4.3h-1.2v-8.2h1l0.2,1.1h0.1c0.2-0.4,0.6-0.7,1-0.9c0.4-0.2,0.9-0.3,1.4-0.3c1.3,0,2.1,0.5,2.5,1.4     h0.1c0.2-0.4,0.6-0.8,1.1-1c0.5-0.3,1-0.4,1.6-0.4c0.9,0,1.6,0.2,2.1,0.7c0.5,0.5,0.7,1.2,0.7,2.3v5.4H107.6z"></path>
			<path class="st0" d="M115.2,54.3c-0.5,0-1-0.1-1.5-0.3c-0.4-0.2-0.8-0.5-1.1-0.9h-0.1c0.1,0.5,0.1,0.9,0.1,1.4v3.4h-1.2V45.9h1     l0.2,1.1h0.1c0.3-0.5,0.7-0.8,1.1-1c0.4-0.2,0.9-0.3,1.5-0.3c1.1,0,1.9,0.4,2.5,1.1c0.6,0.7,0.9,1.8,0.9,3.1     c0,1.4-0.3,2.4-0.9,3.2C117.2,53.9,116.3,54.3,115.2,54.3z M115.1,46.8c-0.8,0-1.4,0.2-1.8,0.7c-0.4,0.5-0.6,1.2-0.6,2.2V50     c0,1.2,0.2,2,0.6,2.5c0.4,0.5,1,0.7,1.9,0.7c0.7,0,1.3-0.3,1.7-0.9c0.4-0.6,0.6-1.4,0.6-2.4c0-1-0.2-1.8-0.6-2.4     C116.4,47.1,115.8,46.8,115.1,46.8z"></path>
			<path class="st0" d="M124.3,54.3c-1.2,0-2.2-0.4-2.9-1.1c-0.7-0.7-1.1-1.8-1.1-3.1c0-1.3,0.3-2.4,1-3.2c0.7-0.8,1.5-1.2,2.6-1.2     c1,0,1.8,0.3,2.4,1c0.6,0.7,0.9,1.6,0.9,2.7v0.8h-5.7c0,1,0.3,1.7,0.7,2.2c0.5,0.5,1.1,0.8,2,0.8c0.9,0,1.8-0.2,2.6-0.6v1.1     c-0.4,0.2-0.9,0.3-1.3,0.4C125.4,54.2,124.9,54.3,124.3,54.3z M124,46.8c-0.7,0-1.2,0.2-1.6,0.6c-0.4,0.4-0.6,1-0.7,1.8h4.3     c0-0.8-0.2-1.4-0.5-1.8C125.1,47,124.6,46.8,124,46.8z"></path>
			<path class="st0" d="M132.1,53.3c0.2,0,0.4,0,0.6,0c0.2,0,0.4-0.1,0.5-0.1v1c-0.1,0.1-0.3,0.1-0.6,0.2s-0.5,0.1-0.7,0.1     c-1.6,0-2.4-0.8-2.4-2.5v-4.9h-1.2v-0.6l1.2-0.5l0.5-1.8h0.7v1.9h2.4v1h-2.4v4.8c0,0.5,0.1,0.9,0.4,1.1     C131.4,53.1,131.7,53.3,132.1,53.3z"></path>
			<path class="st0" d="M138.4,54.3c-1.2,0-2.2-0.4-2.9-1.1c-0.7-0.7-1.1-1.8-1.1-3.1c0-1.3,0.3-2.4,1-3.2c0.7-0.8,1.5-1.2,2.6-1.2     c1,0,1.8,0.3,2.4,1c0.6,0.7,0.9,1.6,0.9,2.7v0.8h-5.7c0,1,0.3,1.7,0.7,2.2c0.5,0.5,1.1,0.8,2,0.8c0.9,0,1.8-0.2,2.6-0.6v1.1     c-0.4,0.2-0.9,0.3-1.3,0.4C139.4,54.2,138.9,54.3,138.4,54.3z M138,46.8c-0.7,0-1.2,0.2-1.6,0.6c-0.4,0.4-0.6,1-0.7,1.8h4.3     c0-0.8-0.2-1.4-0.5-1.8C139.2,47,138.7,46.8,138,46.8z"></path>
			<path class="st0" d="M149.2,54.1v-5.3c0-0.7-0.2-1.2-0.5-1.5c-0.3-0.3-0.8-0.5-1.4-0.5c-0.9,0-1.5,0.2-1.9,0.7     c-0.4,0.5-0.6,1.2-0.6,2.3v4.3h-1.2v-8.2h1l0.2,1.1h0.1c0.3-0.4,0.6-0.7,1.1-0.9c0.5-0.2,1-0.3,1.5-0.3c1,0,1.7,0.2,2.2,0.7     c0.5,0.5,0.8,1.2,0.8,2.3v5.4H149.2z"></path>
			<path class="st0" d="M158.3,54.1h-6v-0.8l4.5-6.4h-4.2v-1h5.6v1l-4.4,6.3h4.5V54.1z"></path>
			<path class="st0" d="M163.9,45.7c0.4,0,0.7,0,1,0.1l-0.2,1.2c-0.3-0.1-0.6-0.1-0.9-0.1c-0.7,0-1.2,0.3-1.7,0.8     c-0.5,0.5-0.7,1.2-0.7,2v4.4h-1.2v-8.2h1l0.1,1.5h0.1c0.3-0.5,0.7-0.9,1.1-1.2C163,45.9,163.4,45.7,163.9,45.7z"></path>
			<path class="st0" d="M171.5,54.1l-0.2-1.2h-0.1c-0.4,0.5-0.8,0.9-1.2,1c-0.4,0.2-0.9,0.3-1.5,0.3c-0.8,0-1.5-0.2-1.9-0.6     c-0.5-0.4-0.7-1-0.7-1.8c0-1.7,1.3-2.5,4-2.6l1.4,0v-0.5c0-0.6-0.1-1.1-0.4-1.4c-0.3-0.3-0.7-0.5-1.3-0.5c-0.7,0-1.5,0.2-2.3,0.6     l-0.4-1c0.4-0.2,0.9-0.4,1.3-0.5c0.5-0.1,1-0.2,1.5-0.2c1,0,1.7,0.2,2.2,0.7c0.5,0.4,0.7,1.1,0.7,2.1v5.6H171.5z M168.7,53.3     c0.8,0,1.4-0.2,1.8-0.6c0.4-0.4,0.7-1,0.7-1.8v-0.7l-1.2,0.1c-1,0-1.7,0.2-2.1,0.5c-0.4,0.3-0.7,0.7-0.7,1.3c0,0.5,0.1,0.8,0.4,1     C167.8,53.1,168.2,53.3,168.7,53.3z"></path>
			<path class="st0" d="M180.3,51.9c0,0.8-0.3,1.4-0.9,1.8c-0.6,0.4-1.4,0.6-2.4,0.6c-1.1,0-1.9-0.2-2.6-0.5v-1.2     c0.4,0.2,0.8,0.4,1.3,0.5c0.5,0.1,0.9,0.2,1.3,0.2c0.7,0,1.2-0.1,1.5-0.3c0.4-0.2,0.5-0.5,0.5-1c0-0.3-0.1-0.6-0.4-0.8     c-0.3-0.2-0.8-0.5-1.6-0.8c-0.8-0.3-1.3-0.5-1.6-0.7c-0.3-0.2-0.6-0.5-0.7-0.7c-0.2-0.3-0.2-0.6-0.2-1c0-0.7,0.3-1.2,0.8-1.6     c0.5-0.4,1.3-0.6,2.2-0.6c0.9,0,1.8,0.2,2.6,0.5l-0.4,1c-0.8-0.3-1.6-0.5-2.2-0.5c-0.6,0-1,0.1-1.3,0.3s-0.5,0.4-0.5,0.8     c0,0.2,0.1,0.4,0.2,0.6c0.1,0.2,0.3,0.3,0.5,0.4c0.3,0.1,0.7,0.3,1.4,0.6c1,0.4,1.6,0.7,2,1.1C180.2,50.9,180.3,51.3,180.3,51.9z     "></path>
			<path class="st0" d="M185,53.3c0.2,0,0.4,0,0.6,0c0.2,0,0.4-0.1,0.5-0.1v1c-0.1,0.1-0.3,0.1-0.6,0.2s-0.5,0.1-0.7,0.1     c-1.6,0-2.4-0.8-2.4-2.5v-4.9h-1.2v-0.6l1.2-0.5L183,44h0.7v1.9h2.4v1h-2.4v4.8c0,0.5,0.1,0.9,0.4,1.1     C184.3,53.1,184.6,53.3,185,53.3z"></path>
			<path class="st0" d="M191.3,54.3c-1.2,0-2.2-0.4-2.9-1.1c-0.7-0.7-1.1-1.8-1.1-3.1c0-1.3,0.3-2.4,1-3.2c0.7-0.8,1.5-1.2,2.6-1.2     c1,0,1.8,0.3,2.4,1c0.6,0.7,0.9,1.6,0.9,2.7v0.8h-5.7c0,1,0.3,1.7,0.7,2.2s1.1,0.8,2,0.8c0.9,0,1.8-0.2,2.6-0.6v1.1     c-0.4,0.2-0.9,0.3-1.3,0.4C192.3,54.2,191.8,54.3,191.3,54.3z M190.9,46.8c-0.7,0-1.2,0.2-1.6,0.6c-0.4,0.4-0.6,1-0.7,1.8h4.3     c0-0.8-0.2-1.4-0.5-1.8C192.1,47,191.6,46.8,190.9,46.8z"></path>
			<path class="st0" d="M200.2,45.7c0.4,0,0.7,0,1,0.1L201,47c-0.3-0.1-0.6-0.1-0.9-0.1c-0.7,0-1.2,0.3-1.7,0.8     c-0.5,0.5-0.7,1.2-0.7,2v4.4h-1.2v-8.2h1l0.1,1.5h0.1c0.3-0.5,0.7-0.9,1.1-1.2C199.2,45.9,199.7,45.7,200.2,45.7z"></path>
			<path class="st0" d="M206.2,54.3c-1.2,0-2.2-0.4-2.9-1.1c-0.7-0.7-1.1-1.8-1.1-3.1c0-1.3,0.3-2.4,1-3.2c0.7-0.8,1.5-1.2,2.6-1.2     c1,0,1.8,0.3,2.4,1c0.6,0.7,0.9,1.6,0.9,2.7v0.8h-5.7c0,1,0.3,1.7,0.7,2.2c0.5,0.5,1.1,0.8,2,0.8c0.9,0,1.8-0.2,2.6-0.6v1.1     c-0.4,0.2-0.9,0.3-1.3,0.4C207.2,54.2,206.7,54.3,206.2,54.3z M205.8,46.8c-0.7,0-1.2,0.2-1.6,0.6c-0.4,0.4-0.6,1-0.7,1.8h4.3     c0-0.8-0.2-1.4-0.5-1.8C207,47,206.5,46.8,205.8,46.8z"></path>
			<path class="st0" d="M215.1,45.7c0.4,0,0.7,0,1,0.1l-0.2,1.2c-0.3-0.1-0.6-0.1-0.9-0.1c-0.7,0-1.2,0.3-1.7,0.8     c-0.5,0.5-0.7,1.2-0.7,2v4.4h-1.2v-8.2h1l0.1,1.5h0.1c0.3-0.5,0.7-0.9,1.1-1.2C214.1,45.9,214.6,45.7,215.1,45.7z"></path>
			<path class="st0" d="M221.3,46.9h-2.1v7.3H218v-7.3h-1.5v-0.6l1.5-0.5v-0.5c0-2,0.9-3,2.7-3c0.4,0,0.9,0.1,1.5,0.3l-0.3,1     c-0.5-0.2-0.9-0.2-1.2-0.2c-0.5,0-0.8,0.2-1,0.5c-0.2,0.3-0.3,0.8-0.3,1.5v0.5h2.1V46.9z"></path>
			<path class="st0" d="M227.9,54.1l-0.2-1.2h-0.1c-0.4,0.5-0.8,0.9-1.2,1c-0.4,0.2-0.9,0.3-1.5,0.3c-0.8,0-1.5-0.2-1.9-0.6     c-0.5-0.4-0.7-1-0.7-1.8c0-1.7,1.3-2.5,4-2.6l1.4,0v-0.5c0-0.6-0.1-1.1-0.4-1.4c-0.3-0.3-0.7-0.5-1.3-0.5c-0.7,0-1.5,0.2-2.3,0.6     l-0.4-1c0.4-0.2,0.9-0.4,1.3-0.5c0.5-0.1,1-0.2,1.5-0.2c1,0,1.7,0.2,2.2,0.7c0.5,0.4,0.7,1.1,0.7,2.1v5.6H227.9z M225.1,53.3     c0.8,0,1.4-0.2,1.8-0.6c0.4-0.4,0.7-1,0.7-1.8v-0.7l-1.2,0.1c-1,0-1.7,0.2-2.1,0.5c-0.4,0.3-0.7,0.7-0.7,1.3c0,0.5,0.1,0.8,0.4,1     C224.2,53.1,224.6,53.3,225.1,53.3z"></path>
			<path class="st0" d="M236.7,51.9c0,0.8-0.3,1.4-0.9,1.8c-0.6,0.4-1.4,0.6-2.4,0.6c-1.1,0-1.9-0.2-2.6-0.5v-1.2     c0.4,0.2,0.8,0.4,1.3,0.5c0.5,0.1,0.9,0.2,1.3,0.2c0.7,0,1.2-0.1,1.5-0.3c0.4-0.2,0.5-0.5,0.5-1c0-0.3-0.1-0.6-0.4-0.8     c-0.3-0.2-0.8-0.5-1.6-0.8c-0.8-0.3-1.3-0.5-1.6-0.7c-0.3-0.2-0.6-0.5-0.7-0.7c-0.2-0.3-0.2-0.6-0.2-1c0-0.7,0.3-1.2,0.8-1.6     c0.5-0.4,1.3-0.6,2.2-0.6c0.9,0,1.8,0.2,2.6,0.5l-0.4,1c-0.8-0.3-1.6-0.5-2.2-0.5c-0.6,0-1,0.1-1.3,0.3c-0.3,0.2-0.5,0.4-0.5,0.8     c0,0.2,0.1,0.4,0.2,0.6c0.1,0.2,0.3,0.3,0.5,0.4c0.3,0.1,0.7,0.3,1.4,0.6c1,0.4,1.6,0.7,2,1.1C236.5,50.9,236.7,51.3,236.7,51.9z     "></path>
			<path class="st0" d="M244,51.9c0,0.8-0.3,1.4-0.9,1.8c-0.6,0.4-1.4,0.6-2.4,0.6c-1.1,0-1.9-0.2-2.6-0.5v-1.2     c0.4,0.2,0.8,0.4,1.3,0.5c0.5,0.1,0.9,0.2,1.3,0.2c0.7,0,1.2-0.1,1.5-0.3c0.4-0.2,0.5-0.5,0.5-1c0-0.3-0.1-0.6-0.4-0.8     c-0.3-0.2-0.8-0.5-1.6-0.8c-0.8-0.3-1.3-0.5-1.6-0.7c-0.3-0.2-0.6-0.5-0.7-0.7c-0.2-0.3-0.2-0.6-0.2-1c0-0.7,0.3-1.2,0.8-1.6     c0.5-0.4,1.3-0.6,2.2-0.6c0.9,0,1.8,0.2,2.6,0.5l-0.4,1c-0.8-0.3-1.6-0.5-2.2-0.5c-0.6,0-1,0.1-1.3,0.3c-0.3,0.2-0.5,0.4-0.5,0.8     c0,0.2,0.1,0.4,0.2,0.6c0.1,0.2,0.3,0.3,0.5,0.4c0.3,0.1,0.7,0.3,1.4,0.6c1,0.4,1.6,0.7,2,1.1C243.9,50.9,244,51.3,244,51.9z"></path>
			<path class="st0" d="M247.2,45.9v5.3c0,0.7,0.2,1.2,0.5,1.5c0.3,0.3,0.8,0.5,1.4,0.5c0.9,0,1.5-0.2,1.9-0.7     c0.4-0.5,0.6-1.2,0.6-2.3v-4.3h1.2v8.2h-1l-0.2-1.1h-0.1c-0.3,0.4-0.6,0.7-1.1,0.9c-0.5,0.2-1,0.3-1.6,0.3c-1,0-1.8-0.2-2.3-0.7     c-0.5-0.5-0.7-1.2-0.7-2.3v-5.4H247.2z"></path>
			<path class="st0" d="M261.2,54.1v-5.3c0-0.7-0.2-1.2-0.5-1.5c-0.3-0.3-0.8-0.5-1.4-0.5c-0.9,0-1.5,0.2-1.9,0.7     c-0.4,0.5-0.6,1.2-0.6,2.3v4.3h-1.2v-8.2h1l0.2,1.1h0.1c0.3-0.4,0.6-0.7,1.1-0.9c0.5-0.2,1-0.3,1.5-0.3c1,0,1.7,0.2,2.2,0.7     c0.5,0.5,0.8,1.2,0.8,2.3v5.4H261.2z"></path>
			<path class="st0" d="M271.7,45.9v0.8l-1.5,0.2c0.1,0.2,0.3,0.4,0.4,0.7c0.1,0.3,0.2,0.6,0.2,1c0,0.8-0.3,1.5-0.8,1.9     c-0.6,0.5-1.3,0.7-2.3,0.7c-0.2,0-0.5,0-0.7-0.1c-0.5,0.3-0.8,0.6-0.8,1.1c0,0.2,0.1,0.4,0.3,0.5c0.2,0.1,0.5,0.2,1,0.2h1.5     c0.9,0,1.6,0.2,2.1,0.6c0.5,0.4,0.7,0.9,0.7,1.6c0,0.9-0.4,1.6-1.1,2.1c-0.7,0.5-1.8,0.7-3.2,0.7c-1.1,0-1.9-0.2-2.5-0.6     c-0.6-0.4-0.9-1-0.9-1.7c0-0.5,0.2-0.9,0.5-1.3c0.3-0.4,0.8-0.6,1.4-0.7c-0.2-0.1-0.4-0.2-0.5-0.4c-0.1-0.2-0.2-0.4-0.2-0.7     c0-0.3,0.1-0.6,0.2-0.8c0.2-0.2,0.4-0.4,0.8-0.7c-0.4-0.2-0.8-0.5-1-0.9c-0.3-0.4-0.4-0.9-0.4-1.4c0-0.9,0.3-1.6,0.8-2.1     c0.5-0.5,1.3-0.7,2.3-0.7c0.4,0,0.8,0,1.2,0.2H271.7z M265.1,55.5c0,0.4,0.2,0.8,0.6,1c0.4,0.2,0.9,0.3,1.6,0.3     c1,0,1.8-0.2,2.3-0.5c0.5-0.3,0.8-0.7,0.8-1.3c0-0.4-0.1-0.8-0.4-0.9c-0.3-0.2-0.8-0.3-1.6-0.3h-1.5c-0.6,0-1,0.1-1.3,0.4     C265.3,54.6,265.1,55,265.1,55.5z M265.8,48.5c0,0.6,0.2,1,0.5,1.3s0.8,0.4,1.4,0.4c1.2,0,1.8-0.6,1.8-1.8c0-1.2-0.6-1.9-1.8-1.9     c-0.6,0-1,0.2-1.4,0.5C266,47.4,265.8,47.9,265.8,48.5z"></path>
			<path class="st0" d="M278.7,51.9c0,0.8-0.3,1.4-0.9,1.8c-0.6,0.4-1.4,0.6-2.4,0.6c-1.1,0-1.9-0.2-2.6-0.5v-1.2     c0.4,0.2,0.8,0.4,1.3,0.5c0.5,0.1,0.9,0.2,1.3,0.2c0.7,0,1.2-0.1,1.5-0.3c0.4-0.2,0.5-0.5,0.5-1c0-0.3-0.1-0.6-0.4-0.8     c-0.3-0.2-0.8-0.5-1.6-0.8c-0.8-0.3-1.3-0.5-1.6-0.7c-0.3-0.2-0.6-0.5-0.7-0.7c-0.2-0.3-0.2-0.6-0.2-1c0-0.7,0.3-1.2,0.8-1.6     c0.5-0.4,1.3-0.6,2.2-0.6c0.9,0,1.8,0.2,2.6,0.5l-0.4,1c-0.8-0.3-1.6-0.5-2.2-0.5c-0.6,0-1,0.1-1.3,0.3s-0.5,0.4-0.5,0.8     c0,0.2,0.1,0.4,0.2,0.6c0.1,0.2,0.3,0.3,0.5,0.4c0.3,0.1,0.7,0.3,1.4,0.6c1,0.4,1.6,0.7,2,1.1C278.5,50.9,278.7,51.3,278.7,51.9z     "></path>
			<path class="st0" d="M283.4,53.3c0.2,0,0.4,0,0.6,0c0.2,0,0.4-0.1,0.5-0.1v1c-0.1,0.1-0.3,0.1-0.6,0.2c-0.3,0-0.5,0.1-0.7,0.1     c-1.6,0-2.4-0.8-2.4-2.5v-4.9h-1.2v-0.6l1.2-0.5l0.5-1.8h0.7v1.9h2.4v1h-2.4v4.8c0,0.5,0.1,0.9,0.4,1.1     C282.7,53.1,283,53.3,283.4,53.3z"></path>
			<path class="st0" d="M293.3,50c0,1.3-0.3,2.4-1,3.1c-0.7,0.8-1.6,1.1-2.8,1.1c-0.7,0-1.4-0.2-2-0.5c-0.6-0.3-1-0.8-1.3-1.5     c-0.3-0.6-0.5-1.4-0.5-2.3c0-1.3,0.3-2.4,1-3.1c0.7-0.7,1.6-1.1,2.8-1.1c1.2,0,2.1,0.4,2.7,1.1C292.9,47.7,293.3,48.7,293.3,50z      M287,50c0,1.1,0.2,1.9,0.6,2.4c0.4,0.6,1,0.8,1.9,0.8c0.8,0,1.4-0.3,1.9-0.8c0.4-0.5,0.6-1.4,0.6-2.4c0-1-0.2-1.8-0.6-2.4     c-0.4-0.5-1-0.8-1.9-0.8c-0.8,0-1.4,0.3-1.8,0.8C287.2,48.1,287,48.9,287,50z"></path>
			<path class="st0" d="M302.6,50c0,1.3-0.3,2.4-1,3.1c-0.7,0.8-1.6,1.1-2.8,1.1c-0.7,0-1.4-0.2-2-0.5c-0.6-0.3-1-0.8-1.3-1.5     c-0.3-0.6-0.5-1.4-0.5-2.3c0-1.3,0.3-2.4,1-3.1c0.7-0.7,1.6-1.1,2.8-1.1c1.2,0,2.1,0.4,2.7,1.1C302.2,47.7,302.6,48.7,302.6,50z      M296.3,50c0,1.1,0.2,1.9,0.6,2.4c0.4,0.6,1,0.8,1.9,0.8c0.8,0,1.4-0.3,1.9-0.8c0.4-0.5,0.6-1.4,0.6-2.4c0-1-0.2-1.8-0.6-2.4     c-0.4-0.5-1-0.8-1.9-0.8c-0.8,0-1.4,0.3-1.8,0.8C296.5,48.1,296.3,48.9,296.3,50z"></path>
			<path class="st0" d="M306,54.1h-1.2V42.4h1.2V54.1z"></path>
		</g>
	</g>
	<path class="st0" d="M48.8,0H9.9C4.4,0,0,4.4,0,9.9v38.9c0,5.5,4.4,9.9,9.9,9.9h38.9c5.5,0,9.9-4.4,9.9-9.9V9.9   C58.8,4.4,54.3,0,48.8,0z M26.9,20.4c0,1.5,0.4,3,0.9,4.4L13.2,36.8L26.9,20.4z M8.2,50.7L29,26.9c0.8,1.2,1.8,2.2,3,3L8.2,50.7z    M22.5,45.7l12.1-14.5c1.3,0.5,2.7,0.7,4.1,0.7c0.2,0,0.3,0,0.5,0L22.5,45.7z M39.5,30.2c-6.1,0-11-5-11-11c0-6.1,5-11,11-11   s11,5,11,11C50.6,25.2,45.6,30.2,39.5,30.2z"></path>
	<path class="st0" d="M46.9,16.3c0,5.4-4.4,9.8-9.8,9.8c-1.1,0-2.2-0.2-3.2-0.5c1.5,1.3,3.5,2.1,5.7,2.1c4.7,0,8.6-3.9,8.6-8.6   c0-1.7-0.5-3.3-1.4-4.7C46.9,15.1,46.9,15.7,46.9,16.3z"></path>
</g>
</svg>
