<?xml version="1.0" encoding="UTF-8"?>
<svg xmlns="http://www.w3.org/2000/svg" xmlns:xlink="http://www.w3.org/1999/xlink" version="1.1" id="Ebene_1" x="0px" y="0px" viewBox="0 0 273 59" style="enable-background:new 0 0 273 59;" xml:space="preserve">
<style type="text/css">
	.st0{fill:#383B45;}
	.st1{fill:#719D3F;}
	.st2{fill:#FFFFFF;}
</style>
<g>
	<path class="st0" d="M96.8,15.2c-0.4-0.6-0.9-1.1-1.4-1.6c-0.6-0.5-1.2-0.8-1.9-1.1c-0.7-0.3-1.5-0.4-2.2-0.4   c-1.4,0-2.6,0.3-3.6,0.8c-1,0.6-1.8,1.3-2.4,2.2c-0.6,0.9-1.1,2-1.4,3.2c-0.3,1.2-0.4,2.4-0.4,3.7c0,1.2,0.1,2.4,0.4,3.5   c0.3,1.1,0.7,2.2,1.4,3.1c0.6,0.9,1.4,1.7,2.4,2.2c1,0.6,2.2,0.8,3.6,0.8c1.9,0,3.5-0.6,4.6-1.8c1.1-1.2,1.8-2.8,2-4.7h6.2   c-0.2,1.8-0.6,3.4-1.3,4.9c-0.7,1.5-1.6,2.7-2.7,3.7c-1.1,1-2.4,1.8-3.9,2.3c-1.5,0.5-3.1,0.8-4.9,0.8c-2.2,0-4.2-0.4-6-1.2   c-1.8-0.8-3.3-1.8-4.5-3.2c-1.2-1.3-2.1-2.9-2.8-4.8c-0.6-1.8-1-3.8-1-5.9c0-2.2,0.3-4.2,1-6c0.6-1.8,1.6-3.5,2.8-4.8   C82,9.9,83.5,8.8,85.3,8c1.8-0.8,3.8-1.2,6-1.2c1.6,0,3.1,0.2,4.5,0.7c1.4,0.5,2.7,1.1,3.8,2c1.1,0.9,2,2,2.8,3.3   c0.7,1.3,1.2,2.8,1.4,4.5h-6.2C97.4,16.5,97.2,15.8,96.8,15.2z"></path>
	<path class="st0" d="M108,16.1c0.6-1.8,1.6-3.5,2.8-4.8c1.2-1.4,2.7-2.5,4.5-3.2c1.8-0.8,3.8-1.2,6-1.2c2.2,0,4.2,0.4,6,1.2   c1.8,0.8,3.2,1.9,4.5,3.2c1.2,1.4,2.1,3,2.8,4.8c0.6,1.9,1,3.9,1,6c0,2.1-0.3,4.1-1,5.9c-0.6,1.8-1.6,3.4-2.8,4.8   c-1.2,1.4-2.7,2.4-4.5,3.2c-1.8,0.8-3.8,1.2-6,1.2c-2.2,0-4.2-0.4-6-1.2c-1.8-0.8-3.3-1.8-4.5-3.2c-1.2-1.3-2.1-2.9-2.8-4.8   c-0.6-1.8-1-3.8-1-5.9C107,19.9,107.4,17.9,108,16.1z M113.8,25.6c0.3,1.1,0.7,2.2,1.4,3.1c0.6,0.9,1.4,1.7,2.4,2.2   c1,0.6,2.2,0.8,3.6,0.8c1.4,0,2.6-0.3,3.6-0.8c1-0.6,1.8-1.3,2.4-2.2c0.6-0.9,1.1-2,1.4-3.1c0.3-1.1,0.4-2.3,0.4-3.5   c0-1.3-0.1-2.5-0.4-3.7c-0.3-1.2-0.7-2.2-1.4-3.2c-0.6-0.9-1.4-1.7-2.4-2.2c-1-0.6-2.2-0.8-3.6-0.8c-1.4,0-2.6,0.3-3.6,0.8   c-1,0.6-1.8,1.3-2.4,2.2c-0.6,0.9-1.1,2-1.4,3.2c-0.3,1.2-0.4,2.4-0.4,3.7C113.4,23.3,113.5,24.5,113.8,25.6z"></path>
	<path class="st0" d="M148.7,7.5l6.8,19.9h0.1L162,7.5h9v28.9h-6V15.9h-0.1l-7.1,20.5h-4.9l-7.1-20.3h-0.1v20.3h-6V7.5H148.7z"></path>
	<path class="st0" d="M198.2,7.5v5.3h-15.3V19h14V24h-14v7.1h15.6v5.3h-22V7.5H198.2z"></path>
	<path class="st0" d="M200.5,12.8V7.5h23.7v5.3h-8.7v23.6h-6.4V12.8H200.5z"></path>
</g>
<g>
	<path class="st0" d="M83.3,44.1c-1.2,0-2.2,0.4-2.9,1.2c-0.7,0.8-1,1.9-1,3.3c0,1.4,0.3,2.5,1,3.3c0.7,0.8,1.6,1.2,2.9,1.2   c0.8,0,1.6-0.1,2.6-0.4v1.1c-0.8,0.3-1.7,0.4-2.8,0.4c-1.6,0-2.9-0.5-3.7-1.5c-0.9-1-1.3-2.4-1.3-4.2c0-1.1,0.2-2.1,0.6-3   s1-1.5,1.8-2c0.8-0.5,1.7-0.7,2.8-0.7c1.2,0,2.2,0.2,3,0.6l-0.5,1.1C84.9,44.3,84.1,44.1,83.3,44.1z"></path>
	<path class="st0" d="M95.2,50c0,1.3-0.3,2.4-1,3.1s-1.6,1.1-2.8,1.1c-0.7,0-1.4-0.2-2-0.5c-0.6-0.3-1-0.8-1.3-1.5s-0.5-1.4-0.5-2.3   c0-1.3,0.3-2.4,1-3.1s1.6-1.1,2.8-1.1c1.2,0,2.1,0.4,2.7,1.1S95.2,48.7,95.2,50z M88.9,50c0,1.1,0.2,1.9,0.6,2.4   c0.4,0.6,1,0.8,1.9,0.8c0.8,0,1.4-0.3,1.9-0.8c0.4-0.5,0.6-1.4,0.6-2.4c0-1-0.2-1.8-0.6-2.4c-0.4-0.5-1-0.8-1.9-0.8   c-0.8,0-1.4,0.3-1.8,0.8C89.1,48.2,88.9,49,88.9,50z"></path>
	<path class="st0" d="M107.9,54.1v-5.4c0-0.7-0.1-1.1-0.4-1.5c-0.3-0.3-0.7-0.5-1.3-0.5c-0.8,0-1.4,0.2-1.7,0.7   c-0.4,0.4-0.6,1.1-0.6,2.1v4.6h-1.2v-5.4c0-0.7-0.1-1.1-0.4-1.5c-0.3-0.3-0.7-0.5-1.3-0.5c-0.8,0-1.4,0.2-1.7,0.7s-0.5,1.2-0.5,2.3   v4.3h-1.2v-8.2h1l0.2,1.1h0.1c0.2-0.4,0.6-0.7,1-0.9s0.9-0.3,1.4-0.3c1.3,0,2.1,0.5,2.5,1.4h0.1c0.2-0.4,0.6-0.8,1.1-1   c0.5-0.2,1-0.4,1.6-0.4c0.9,0,1.6,0.2,2.1,0.7c0.5,0.5,0.7,1.2,0.7,2.3v5.4H107.9z"></path>
	<path class="st0" d="M115.5,54.3c-0.5,0-1-0.1-1.5-0.3c-0.4-0.2-0.8-0.5-1.1-0.9h-0.1c0.1,0.5,0.1,0.9,0.1,1.4v3.4h-1.2V45.9h1   l0.2,1.1h0.1c0.3-0.5,0.7-0.8,1.1-1c0.4-0.2,0.9-0.3,1.5-0.3c1.1,0,1.9,0.4,2.5,1.1c0.6,0.7,0.9,1.8,0.9,3.1c0,1.4-0.3,2.4-0.9,3.2   C117.4,53.9,116.6,54.3,115.5,54.3z M115.3,46.8c-0.8,0-1.5,0.2-1.8,0.7s-0.6,1.2-0.6,2.2V50c0,1.2,0.2,2,0.6,2.5   c0.4,0.5,1,0.7,1.9,0.7c0.7,0,1.3-0.3,1.7-0.9s0.6-1.4,0.6-2.4c0-1-0.2-1.8-0.6-2.4S116.1,46.8,115.3,46.8z"></path>
	<path class="st0" d="M124.6,54.3c-1.2,0-2.2-0.4-2.9-1.1c-0.7-0.7-1.1-1.8-1.1-3.1c0-1.3,0.3-2.4,1-3.2s1.5-1.2,2.6-1.2   c1,0,1.8,0.3,2.4,1s0.9,1.6,0.9,2.7v0.8H122c0,1,0.3,1.7,0.7,2.2c0.5,0.5,1.1,0.8,2,0.8c0.9,0,1.8-0.2,2.6-0.6v1.1   c-0.4,0.2-0.9,0.3-1.3,0.4C125.6,54.2,125.2,54.3,124.6,54.3z M124.3,46.8c-0.7,0-1.2,0.2-1.6,0.6c-0.4,0.4-0.6,1-0.7,1.8h4.3   c0-0.8-0.2-1.4-0.5-1.8C125.4,47,124.9,46.8,124.3,46.8z"></path>
	<path class="st0" d="M132.4,53.3c0.2,0,0.4,0,0.6,0c0.2,0,0.4-0.1,0.5-0.1v1c-0.1,0.1-0.3,0.1-0.6,0.2c-0.3,0-0.5,0.1-0.7,0.1   c-1.6,0-2.4-0.8-2.4-2.5v-4.9h-1.2v-0.6l1.2-0.5l0.5-1.8h0.7v1.9h2.4v1h-2.4v4.8c0,0.5,0.1,0.9,0.4,1.1S132,53.3,132.4,53.3z"></path>
	<path class="st0" d="M138.7,54.3c-1.2,0-2.2-0.4-2.9-1.1c-0.7-0.7-1.1-1.8-1.1-3.1c0-1.3,0.3-2.4,1-3.2s1.5-1.2,2.6-1.2   c1,0,1.8,0.3,2.4,1s0.9,1.6,0.9,2.7v0.8H136c0,1,0.3,1.7,0.7,2.2c0.5,0.5,1.1,0.8,2,0.8c0.9,0,1.8-0.2,2.6-0.6v1.1   c-0.4,0.2-0.9,0.3-1.3,0.4C139.7,54.2,139.2,54.3,138.7,54.3z M138.3,46.8c-0.7,0-1.2,0.2-1.6,0.6c-0.4,0.4-0.6,1-0.7,1.8h4.3   c0-0.8-0.2-1.4-0.5-1.8C139.5,47,139,46.8,138.3,46.8z"></path>
	<path class="st0" d="M149.5,54.1v-5.3c0-0.7-0.2-1.2-0.5-1.5c-0.3-0.3-0.8-0.5-1.4-0.5c-0.9,0-1.5,0.2-1.9,0.7s-0.6,1.2-0.6,2.3   v4.3h-1.2v-8.2h1L145,47h0.1c0.3-0.4,0.6-0.7,1.1-0.9s1-0.3,1.5-0.3c1,0,1.7,0.2,2.2,0.7c0.5,0.5,0.8,1.2,0.8,2.3v5.4H149.5z"></path>
	<path class="st0" d="M156.6,54.3c-1.2,0-2.1-0.4-2.8-1.1c-0.7-0.7-1-1.8-1-3.1c0-1.4,0.3-2.4,1-3.2c0.7-0.8,1.6-1.1,2.8-1.1   c0.4,0,0.8,0,1.2,0.1c0.4,0.1,0.7,0.2,0.9,0.3l-0.4,1.1c-0.3-0.1-0.6-0.2-0.9-0.3c-0.3-0.1-0.6-0.1-0.9-0.1c-1.7,0-2.5,1.1-2.5,3.2   c0,1,0.2,1.8,0.6,2.3s1,0.8,1.8,0.8c0.7,0,1.4-0.1,2.1-0.4v1.1C158.1,54.1,157.4,54.3,156.6,54.3z"></path>
	<path class="st0" d="M164.1,54.3c-1.2,0-2.2-0.4-2.9-1.1s-1.1-1.8-1.1-3.1c0-1.3,0.3-2.4,1-3.2s1.5-1.2,2.6-1.2c1,0,1.8,0.3,2.5,1   c0.6,0.7,0.9,1.6,0.9,2.7v0.8h-5.7c0,1,0.3,1.7,0.7,2.2c0.5,0.5,1.1,0.8,2,0.8c0.9,0,1.8-0.2,2.6-0.6v1.1c-0.4,0.2-0.9,0.3-1.3,0.4   C165.1,54.2,164.6,54.3,164.1,54.3z M163.7,46.8c-0.7,0-1.2,0.2-1.6,0.6c-0.4,0.4-0.6,1-0.7,1.8h4.3c0-0.8-0.2-1.4-0.5-1.8   C164.9,47,164.4,46.8,163.7,46.8z"></path>
	<path class="st0" d="M180,45.9v0.8l-1.5,0.2c0.1,0.2,0.3,0.4,0.4,0.7c0.1,0.3,0.2,0.6,0.2,1c0,0.8-0.3,1.5-0.8,1.9   c-0.6,0.5-1.3,0.7-2.3,0.7c-0.2,0-0.5,0-0.7-0.1c-0.5,0.3-0.8,0.6-0.8,1.1c0,0.2,0.1,0.4,0.3,0.5c0.2,0.1,0.5,0.2,1,0.2h1.5   c0.9,0,1.6,0.2,2.1,0.6c0.5,0.4,0.7,0.9,0.7,1.6c0,0.9-0.4,1.6-1.1,2.1c-0.7,0.5-1.8,0.7-3.2,0.7c-1.1,0-1.9-0.2-2.5-0.6   c-0.6-0.4-0.9-1-0.9-1.7c0-0.5,0.2-0.9,0.5-1.3c0.3-0.4,0.8-0.6,1.4-0.7c-0.2-0.1-0.4-0.2-0.5-0.4c-0.1-0.2-0.2-0.4-0.2-0.7   c0-0.3,0.1-0.6,0.2-0.8c0.2-0.2,0.4-0.4,0.8-0.7c-0.4-0.2-0.8-0.5-1-0.9c-0.3-0.4-0.4-0.9-0.4-1.4c0-0.9,0.3-1.6,0.8-2.1   s1.3-0.7,2.3-0.7c0.4,0,0.8,0,1.2,0.2H180z M173.4,55.5c0,0.4,0.2,0.8,0.6,1c0.4,0.2,0.9,0.3,1.6,0.3c1,0,1.8-0.2,2.3-0.5   c0.5-0.3,0.8-0.7,0.8-1.3c0-0.4-0.1-0.8-0.4-0.9s-0.8-0.3-1.6-0.3h-1.5c-0.6,0-1,0.1-1.3,0.4C173.6,54.6,173.4,55,173.4,55.5z    M174.1,48.5c0,0.6,0.2,1,0.5,1.3c0.3,0.3,0.8,0.4,1.4,0.4c1.2,0,1.8-0.6,1.8-1.8c0-1.2-0.6-1.9-1.8-1.9c-0.6,0-1,0.2-1.4,0.5   C174.2,47.5,174.1,47.9,174.1,48.5z"></path>
	<path class="st0" d="M185.4,45.8c0.4,0,0.7,0,1,0.1l-0.2,1.2c-0.3-0.1-0.6-0.1-0.9-0.1c-0.7,0-1.2,0.3-1.7,0.8s-0.7,1.2-0.7,2v4.4   h-1.2v-8.2h1l0.1,1.5h0.1c0.3-0.5,0.7-1,1.1-1.2C184.4,45.9,184.9,45.8,185.4,45.8z"></path>
	<path class="st0" d="M187.8,43.7c0-0.3,0.1-0.5,0.2-0.6c0.1-0.1,0.3-0.2,0.5-0.2c0.2,0,0.4,0.1,0.5,0.2c0.1,0.1,0.2,0.3,0.2,0.6   c0,0.3-0.1,0.5-0.2,0.6s-0.3,0.2-0.5,0.2c-0.2,0-0.4-0.1-0.5-0.2C187.9,44.2,187.8,44,187.8,43.7z M189.2,54.1h-1.2v-8.2h1.2V54.1z   "></path>
	<path class="st0" d="M197.4,53L197.4,53c-0.6,0.8-1.5,1.3-2.7,1.3c-1.1,0-1.9-0.4-2.5-1.1c-0.6-0.7-0.9-1.8-0.9-3.1   s0.3-2.4,0.9-3.2c0.6-0.8,1.4-1.1,2.5-1.1c1.1,0,2,0.4,2.6,1.2h0.1l-0.1-0.6l0-0.6v-3.4h1.2v11.7h-1L197.4,53z M194.9,53.2   c0.9,0,1.5-0.2,1.9-0.7c0.4-0.5,0.6-1.2,0.6-2.2V50c0-1.2-0.2-2-0.6-2.5c-0.4-0.5-1-0.7-1.9-0.7c-0.7,0-1.3,0.3-1.7,0.9   c-0.4,0.6-0.6,1.4-0.6,2.4c0,1.1,0.2,1.8,0.6,2.4S194.2,53.2,194.9,53.2z"></path>
	<path class="st0" d="M208.7,54.3c-1.2,0-2.2-0.4-2.9-1.1c-0.7-0.7-1.1-1.8-1.1-3.1c0-1.3,0.3-2.4,1-3.2c0.7-0.8,1.5-1.2,2.6-1.2   c1,0,1.8,0.3,2.4,1s0.9,1.6,0.9,2.7v0.8h-5.7c0,1,0.3,1.7,0.7,2.2c0.5,0.5,1.1,0.8,2,0.8c0.9,0,1.8-0.2,2.6-0.6v1.1   c-0.4,0.2-0.9,0.3-1.3,0.4C209.8,54.2,209.3,54.3,208.7,54.3z M208.4,46.8c-0.7,0-1.2,0.2-1.6,0.6c-0.4,0.4-0.6,1-0.7,1.8h4.3   c0-0.8-0.2-1.4-0.5-1.8C209.6,47,209.1,46.8,208.4,46.8z"></path>
	<path class="st0" d="M219.5,54.1v-5.3c0-0.7-0.2-1.2-0.5-1.5c-0.3-0.3-0.8-0.5-1.4-0.5c-0.9,0-1.5,0.2-1.9,0.7   c-0.4,0.5-0.6,1.2-0.6,2.3v4.3h-1.2v-8.2h1l0.2,1.1h0.1c0.3-0.4,0.6-0.7,1.1-0.9s1-0.3,1.5-0.3c1,0,1.7,0.2,2.2,0.7   c0.5,0.5,0.8,1.2,0.8,2.3v5.4H219.5z"></path>
	<path class="st0" d="M226,53.3c0.2,0,0.4,0,0.6,0c0.2,0,0.4-0.1,0.5-0.1v1c-0.1,0.1-0.3,0.1-0.6,0.2c-0.3,0-0.5,0.1-0.7,0.1   c-1.6,0-2.4-0.8-2.4-2.5v-4.9h-1.2v-0.6l1.2-0.5L224,44h0.7v1.9h2.4v1h-2.4v4.8c0,0.5,0.1,0.9,0.4,1.1S225.6,53.3,226,53.3z"></path>
	<path class="st0" d="M232.5,45.8c0.4,0,0.7,0,1,0.1l-0.2,1.2c-0.3-0.1-0.6-0.1-0.9-0.1c-0.7,0-1.2,0.3-1.7,0.8   c-0.5,0.5-0.7,1.2-0.7,2v4.4h-1.2v-8.2h1l0.1,1.5h0.1c0.3-0.5,0.7-1,1.1-1.2C231.5,45.9,232,45.8,232.5,45.8z"></path>
	<path class="st0" d="M233.7,45.9h1.3l1.8,4.7c0.4,1.1,0.6,1.8,0.7,2.3h0.1c0.1-0.3,0.2-0.7,0.4-1.3c0.2-0.6,0.9-2.5,2-5.7h1.3   l-3.5,9.4c-0.4,0.9-0.8,1.6-1.2,2c-0.5,0.4-1,0.6-1.7,0.6c-0.4,0-0.8,0-1.1-0.1v-1c0.3,0.1,0.6,0.1,0.9,0.1c0.9,0,1.5-0.5,1.8-1.4   l0.5-1.2L233.7,45.9z"></path>
	<path class="st0" d="M249.5,53.3c0.2,0,0.4,0,0.6,0c0.2,0,0.4-0.1,0.5-0.1v1c-0.1,0.1-0.3,0.1-0.6,0.2c-0.3,0-0.5,0.1-0.7,0.1   c-1.6,0-2.4-0.8-2.4-2.5v-4.9h-1.2v-0.6l1.2-0.5l0.5-1.8h0.7v1.9h2.4v1h-2.4v4.8c0,0.5,0.1,0.9,0.4,1.1S249.1,53.3,249.5,53.3z"></path>
	<path class="st0" d="M259.3,50c0,1.3-0.3,2.4-1,3.1s-1.6,1.1-2.8,1.1c-0.7,0-1.4-0.2-2-0.5c-0.6-0.3-1-0.8-1.3-1.5   s-0.5-1.4-0.5-2.3c0-1.3,0.3-2.4,1-3.1c0.7-0.7,1.6-1.1,2.8-1.1c1.2,0,2.1,0.4,2.7,1.1S259.3,48.7,259.3,50z M253.1,50   c0,1.1,0.2,1.9,0.6,2.4c0.4,0.6,1,0.8,1.9,0.8c0.8,0,1.4-0.3,1.9-0.8c0.4-0.5,0.6-1.4,0.6-2.4c0-1-0.2-1.8-0.6-2.4   c-0.4-0.5-1-0.8-1.9-0.8c-0.8,0-1.4,0.3-1.8,0.8S253.1,49,253.1,50z"></path>
	<path class="st0" d="M268.6,50c0,1.3-0.3,2.4-1,3.1c-0.7,0.8-1.6,1.1-2.8,1.1c-0.7,0-1.4-0.2-2-0.5c-0.6-0.3-1-0.8-1.3-1.5   s-0.5-1.4-0.5-2.3c0-1.3,0.3-2.4,1-3.1s1.6-1.1,2.8-1.1c1.2,0,2.1,0.4,2.7,1.1C268.3,47.7,268.6,48.7,268.6,50z M262.4,50   c0,1.1,0.2,1.9,0.6,2.4c0.4,0.6,1,0.8,1.9,0.8c0.8,0,1.4-0.3,1.9-0.8c0.4-0.5,0.6-1.4,0.6-2.4c0-1-0.2-1.8-0.6-2.4   c-0.4-0.5-1-0.8-1.9-0.8c-0.8,0-1.4,0.3-1.8,0.8C262.6,48.2,262.4,49,262.4,50z"></path>
	<path class="st0" d="M272.1,54.1h-1.2V42.4h1.2V54.1z"></path>
</g>
<path class="st1" d="M58.8,48.9c0,5.5-4.4,9.9-9.9,9.9H9.9c-5.5,0-9.9-4.4-9.9-9.9V9.9C0,4.4,4.4,0,9.9,0h38.9  c5.5,0,9.9,4.4,9.9,9.9V48.9z"></path>
<g>
	<path class="st2" d="M32,29.9c-1.2-0.8-2.2-1.8-3-3L8.2,50.7L32,29.9z"></path>
	<path class="st2" d="M39.6,30.2c6.1,0,11-5,11-11c0-6.1-5-11-11-11s-11,5-11,11C28.5,25.2,33.5,30.2,39.6,30.2z M48.1,19.2   c0,4.7-3.9,8.6-8.6,8.6c-2.2,0-4.1-0.8-5.7-2.1c1,0.4,2.1,0.5,3.2,0.5c5.4,0,9.8-4.4,9.8-9.8c0-0.6-0.1-1.3-0.2-1.9   C47.6,15.8,48.1,17.4,48.1,19.2z"></path>
	<path class="st2" d="M39.2,31.9c-0.2,0-0.3,0-0.5,0c-1.4,0-2.8-0.3-4.1-0.7L22.6,45.8L39.2,31.9z"></path>
	<path class="st2" d="M27.8,24.7c-0.6-1.3-0.9-2.8-0.9-4.4L13.2,36.8L27.8,24.7z"></path>
</g>
</svg>
