<?xml version="1.0" encoding="UTF-8"?>
<svg xmlns="http://www.w3.org/2000/svg" xmlns:xlink="http://www.w3.org/1999/xlink" version="1.1" id="Ebene_1" x="0px" y="0px" viewBox="0 0 16 16.5" style="enable-background:new 0 0 16 16.5;" xml:space="preserve">
<style type="text/css">
	.st0{fill:none;}
	.st1{fill:#6A757E;}
</style>
<path class="st0" d="M0,0h24v24H0V0z"></path>
<path class="st1" d="M14.9,10.2l-1.4-0.8c0.1-0.7,0.1-1.5,0-2.2l1.4-0.8C15,6.3,15.1,6.1,15,5.9c-0.4-1.1-1-2.1-1.7-3  c-0.1-0.1-0.3-0.2-0.5-0.1l-1.4,0.8c-0.6-0.5-1.2-0.9-1.9-1.1V1c0-0.2-0.1-0.3-0.3-0.4c-1.2-0.3-2.4-0.2-3.5,0  C5.6,0.6,5.5,0.8,5.5,1v1.6C4.8,2.8,4.1,3.2,3.6,3.6L2.2,2.9C2.1,2.8,1.9,2.8,1.8,2.9C1,3.8,0.4,4.8,0,5.9C0,6.1,0,6.3,0.2,6.4  l1.4,0.8c-0.1,0.7-0.1,1.5,0,2.2l-1.4,0.8C0,10.2,0,10.4,0,10.6c0.4,1.1,1,2.1,1.7,3c0.1,0.1,0.3,0.2,0.5,0.1l1.4-0.8  c0.6,0.5,1.2,0.9,1.9,1.1v1.6c0,0.2,0.1,0.3,0.3,0.4c1.2,0.3,2.4,0.2,3.5,0c0.2,0,0.3-0.2,0.3-0.4V14c0.7-0.3,1.4-0.6,1.9-1.1  l1.4,0.8c0.2,0.1,0.3,0.1,0.5-0.1c0.8-0.8,1.4-1.9,1.7-3C15.1,10.4,15,10.2,14.9,10.2z M7.5,10.8C6.1,10.8,5,9.7,5,8.3  s1.1-2.5,2.5-2.5s2.5,1.1,2.5,2.5S8.9,10.8,7.5,10.8z"></path>
</svg>
