<?xml version="1.0" encoding="UTF-8"?>
<svg xmlns="http://www.w3.org/2000/svg" xmlns:xlink="http://www.w3.org/1999/xlink" version="1.1" id="Ebene_1" x="0px" y="0px" viewBox="0 0 24 24" style="enable-background:new 0 0 24 24;" xml:space="preserve">
<style type="text/css">
	.st0{fill:#709D25;}
</style>
<path class="st0" d="M19,3.2c-3.6,0-6.6,2.7-7.6,6.3C10,7.3,7.6,5.8,5,5.8H2v0.9c0,5,3.6,9.1,8,9.1h1.1v4.4c0,0.3,0.3,0.6,0.6,0.6  h0.6c0.3,0,0.6-0.3,0.6-0.6v-6.9H14c4.4,0,8-4.1,8-9.1V3.2H19z M10,13.9c-3.1,0-5.7-2.7-6.1-6.2h1c3.1,0,5.7,2.7,6.1,6.2H10z   M14,11.4h-1c0.4-3.5,3-6.2,6.1-6.2h1C19.7,8.6,17.1,11.4,14,11.4z"></path>
</svg>
