<?xml version="1.0" encoding="UTF-8"?>
<svg xmlns="http://www.w3.org/2000/svg" xmlns:xlink="http://www.w3.org/1999/xlink" version="1.1" id="Ebene_1" x="0px" y="0px" viewBox="0 0 19 16.5" style="enable-background:new 0 0 19 16.5;" xml:space="preserve">
<style type="text/css">
	.st0{fill:none;}
	.st1{fill-rule:evenodd;clip-rule:evenodd;fill:#6A757E;}
</style>
<path class="st0" d="M0,0h24v24H0V0z"></path>
<g>
	<path class="st1" d="M6,13.1l3-2.9c-0.4,0-0.7-0.1-1-0.1c-2.7,0-8,1.3-8,4v2h9L6,13.1z M8,8.1c2.2,0,4-1.8,4-4s-1.8-4-4-4   s-4,1.8-4,4S5.8,8.1,8,8.1"></path>
	<path class="st1" d="M12.5,16.6L9,13.1l1.4-1.4l2.1,2.1l5.1-5.2L19,10L12.5,16.6z"></path>
</g>
</svg>
