<?xml version="1.0" encoding="UTF-8" standalone="no"?>
<svg xmlns="http://www.w3.org/2000/svg" version="1.0" width="500.000000pt" height="500.000000pt" viewBox="0 0 500.000000 500.000000" preserveAspectRatio="xMidYMid meet">
  <metadata>
Created by potrace 1.11, written by Peter Selinger 2001-2013
</metadata>
  <g transform="translate(0.000000,500.000000) scale(0.100000,-0.100000)" fill="#000000" stroke="none">
    <path d="M3559 4996 c-2 -2 -29 -7 -59 -10 -136 -16 -314 -77 -444 -151 -407 -232 -652 -641 -662 -1105 -1 -74 1 -155 6 -180 4 -25 10 -63 13 -85 19 -136 111 -357 209 -501 94 -138 255 -288 405 -378 312 -187 722 -231 1064 -115 139 47 310 140 404 219 53 45 181 174 206 208 13 19 34 46 46 61 38 47 123 213 155 301 56 157 76 285 73 460 -3 165 -5 182 -36 302 -106 423 -427 771 -838 908 -143 48 -225 62 -387 66 -83 2 -153 2 -155 0z m1028 -848 c23 -46 50 -114 61 -153 19 -66 24 -86 37 -160 7 -41 7 -198 -1 -264 -9 -82 -50 -216 -93 -306 -146 -302 -420 -504 -761 -561 -68 -11 -257 -8 -322 5 -32 7 -60 12 -63 12 -13 -1 -157 55 -215 84 -56 28 -214 135 -200 135 3 0 21 -5 40 -10 116 -35 216 -48 348 -45 75 2 148 6 162 9 14 4 40 9 59 12 184 31 417 158 570 312 173 173 278 375 325 622 14 73 16 326 3 378 -11 41 9 14 50 -70z"></path>
    <path d="M2075 3413 c-60 -74 -116 -141 -122 -148 -7 -7 -44 -51 -82 -98 -38 -47 -79 -96 -90 -109 -19 -23 -165 -198 -226 -273 -18 -22 -80 -96 -136 -165 -57 -69 -106 -127 -109 -130 -3 -3 -44 -52 -90 -110 -47 -58 -87 -107 -90 -110 -6 -5 -88 -105 -324 -390 -70 -85 -138 -166 -149 -180 -12 -14 -29 -34 -37 -45 -14 -19 -14 -19 5 -4 23 18 138 113 205 169 25 21 106 88 180 150 74 61 144 119 155 128 263 219 444 370 460 384 169 142 654 543 666 551 15 10 15 16 -6 72 -23 60 -48 150 -60 210 -8 42 -24 157 -23 164 3 25 -3 71 -9 70 -5 0 -57 -61 -118 -136z"></path>
    <path d="M2399 2745 c-24 -29 -132 -153 -239 -276 -169 -194 -211 -243 -265 -303 -5 -6 -53 -61 -105 -121 -52 -61 -97 -112 -100 -115 -3 -3 -32 -36 -64 -75 -33 -38 -64 -74 -70 -80 -6 -5 -36 -39 -66 -75 -30 -35 -62 -71 -70 -80 -14 -15 -67 -76 -160 -185 -24 -27 -46 -52 -49 -55 -3 -3 -47 -52 -96 -110 -50 -58 -95 -110 -101 -116 -5 -6 -30 -35 -55 -64 -24 -28 -53 -62 -64 -74 -23 -25 -86 -98 -241 -276 -60 -69 -121 -138 -135 -155 -15 -16 -123 -140 -240 -275 -117 -135 -215 -247 -218 -250 -3 -3 -15 -16 -26 -30 -11 -14 14 5 55 41 41 36 147 128 235 204 170 146 173 150 220 192 17 16 64 57 105 93 41 36 80 69 86 75 6 5 37 33 69 60 33 28 77 66 99 86 67 59 227 200 296 259 35 30 84 73 109 96 25 22 107 94 181 158 74 65 149 130 165 145 17 14 48 41 70 60 22 19 72 62 110 96 85 76 316 278 405 355 14 12 52 45 85 75 33 29 75 66 94 81 18 16 46 40 60 54 15 14 56 50 91 80 79 67 112 96 170 149 25 22 48 41 53 41 17 0 5 19 -25 37 -49 29 -200 175 -267 258 l-58 72 -44 -52z"></path>
    <path d="M2934 2078 c-453 -546 -704 -850 -764 -923 -37 -44 -155 -187 -263 -318 -109 -130 -194 -237 -190 -237 5 0 24 15 43 33 19 17 73 63 120 101 47 38 105 86 130 107 25 20 106 88 180 150 74 61 149 123 165 138 17 14 66 55 110 91 44 35 82 67 85 70 3 3 30 25 60 50 30 25 57 47 60 50 3 3 57 48 120 100 63 52 126 105 140 116 20 18 357 297 579 482 25 20 64 53 87 73 l43 37 -67 1 c-129 2 -290 28 -389 62 -31 10 -62 19 -69 19 -7 0 -88 -91 -180 -202z"></path>
  </g>
</svg>
