<svg id="Ebene_1" x="0" y="0" version="1.1" viewBox="0 0 226.772 141.732" xml:space="preserve" xmlns="http://www.w3.org/2000/svg"><style>.st0{fill:#1a1a18}.st4{fill:none;stroke:#1a1a18;stroke-width:3.4049945;stroke-linecap:round;stroke-miterlimit:10}</style><path d="M114.363 37.098c.323.292.485.658.485 1.1 0 .14-.025.298-.071.471l-4.655 13.704c-.094.268-.26.481-.497.639a1.528 1.528 0 01-.78.26 1.49 1.49 0 01-.803-.237 1.577 1.577 0 01-.59-.685l-3.355-7.632-3.38 7.632c-.14.3-.338.528-.59.685-.252.158-.52.236-.803.236a1.532 1.532 0 01-.78-.26 1.245 1.245 0 01-.496-.638L93.394 38.67a1.784 1.784 0 01-.072-.472c0-.44.162-.807.485-1.099.323-.291.681-.437 1.075-.437.314 0 .599.083.85.248.253.166.425.39.52.673l3.52 10.68 3.073-7.372c.126-.283.307-.507.543-.673s.504-.24.804-.224c.298-.016.562.059.79.224s.406.39.533.673l2.906 7.301 3.496-10.609a1.25 1.25 0 01.532-.673c.26-.165.547-.248.863-.248.378 0 .728.146 1.051.437zm16.692 12.192a7.96 7.96 0 01-2.87 3.083c-1.221.757-2.596 1.135-4.123 1.135-1.529 0-2.903-.378-4.123-1.135a7.876 7.876 0 01-2.86-3.083c-.684-1.3-1.027-2.73-1.027-4.288 0-1.56.343-2.99 1.027-4.289a7.882 7.882 0 012.86-3.083c1.22-.756 2.594-1.135 4.123-1.135 1.527 0 2.902.379 4.123 1.135 1.22.756 2.176 1.784 2.87 3.083s1.04 2.73 1.04 4.289c0 1.559-.347 2.989-1.04 4.288zm-2.67-7.16c-.425-.858-1.016-1.539-1.772-2.043s-1.606-.756-2.551-.756c-.961 0-1.816.248-2.564.744-.749.497-1.332 1.178-1.749 2.044-.417.867-.626 1.828-.626 2.883s.21 2.016.626 2.882c.417.867 1 1.548 1.75 2.044.747.496 1.602.744 2.563.744.945 0 1.796-.251 2.551-.756a5.142 5.142 0 001.772-2.044c.426-.858.639-1.815.639-2.87s-.213-2.012-.64-2.871zm19.884 9.322a1.222 1.222 0 01-.106 1.417c-.237.284-.6.426-1.088.426-.378 0-.724-.087-1.04-.26-1.133-.646-1.7-1.96-1.7-3.946 0-.567-.186-1.016-.556-1.346-.37-.332-.902-.497-1.595-.497h-4.418v4.584c0 .425-.114.772-.343 1.04-.228.268-.531.401-.91.401a1.83 1.83 0 01-1.193-.413c-.338-.276-.507-.618-.507-1.028V38.173c0-.409.137-.752.413-1.028a1.396 1.396 0 011.027-.413h6.806c.818 0 1.59.221 2.315.661a4.898 4.898 0 011.737 1.82c.432.772.649 1.638.649 2.599 0 .788-.212 1.556-.638 2.304a5.067 5.067 0 01-1.654 1.783c.993.694 1.536 1.623 1.63 2.788.048.253.071.497.071.733.064.489.126.839.19 1.052a.775.775 0 00.425.484c.204.126.367.291.485.496zm-4.502-7.041c.267-.268.488-.626.662-1.075.173-.449.26-.933.26-1.453 0-.44-.087-.847-.26-1.217-.174-.37-.395-.665-.662-.886s-.543-.33-.826-.33h-5.175v5.363h5.175c.283 0 .558-.134.826-.402zm20.178 6.864c.063.18.095.35.095.508 0 .425-.162.78-.484 1.063a1.65 1.65 0 01-1.123.425c-.204 0-.402-.047-.59-.141a1.29 1.29 0 01-.473-.402l-5.128-6.757-2.244 2.15v3.709c0 .425-.137.772-.413 1.04-.276.268-.635.401-1.075.401-.426 0-.776-.137-1.052-.413a1.395 1.395 0 01-.413-1.028V38.173c0-.409.142-.752.425-1.028.283-.275.645-.413 1.087-.413.426 0 .771.134 1.04.402.267.268.401.614.401 1.04V44.6l7.56-7.443c.363-.362.749-.543 1.159-.543.362 0 .669.15.92.449s.38.614.38.945c0 .33-.143.638-.426.922l-5.15 4.914 5.268 6.97c.095.126.173.28.236.46zm5.081 1.583a1.485 1.485 0 01-1.04.413c-.425 0-.776-.137-1.051-.413a1.395 1.395 0 01-.413-1.028V38.173c0-.409.141-.752.424-1.028.284-.275.646-.413 1.087-.413.394 0 .733.138 1.016.413.284.276.426.619.426 1.028V51.83c0 .41-.15.752-.45 1.028zm17.46-15.748c.237.252.355.567.355.945V51.83c0 .41-.139.752-.414 1.028a1.394 1.394 0 01-1.027.413c-.221 0-.438-.035-.65-.106-.213-.07-.367-.17-.462-.296l-8.67-11.01v10.09c0 .377-.123.692-.367.944s-.563.378-.957.378c-.378 0-.685-.126-.92-.378-.237-.252-.355-.567-.355-.945V38.173c0-.409.137-.752.413-1.028a1.396 1.396 0 011.027-.413c.236 0 .469.047.697.142.229.094.398.22.508.378l8.6 10.963v-10.16c0-.378.123-.693.367-.945s.556-.378.934-.378.685.126.921.378zm17.106 7.644c.269.275.402.618.402 1.028v5.008c0 .552-.244.977-.732 1.276a9.428 9.428 0 01-5.08 1.442 8.496 8.496 0 01-4.324-1.146c-1.324-.764-2.372-1.796-3.143-3.096s-1.157-2.72-1.157-4.264.386-2.966 1.157-4.265a8.584 8.584 0 013.143-3.096c1.323-.763 2.764-1.146 4.324-1.146s2.914.316 4.063.946c.237.126.414.291.533.496.118.205.176.425.176.661 0 .395-.13.737-.39 1.028a1.23 1.23 0 01-.956.437c-.237 0-.497-.062-.78-.189a6.69 6.69 0 00-2.646-.543 5.308 5.308 0 00-2.788.768c-.85.512-1.525 1.201-2.02 2.067s-.745 1.812-.745 2.836.248 1.969.744 2.835c.496.866 1.17 1.556 2.02 2.068s1.78.767 2.789.767c.44 0 .913-.039 1.418-.118a8.16 8.16 0 001.322-.307v-3.071h-2.22c-.41 0-.753-.134-1.028-.402a1.357 1.357 0 01-.414-1.016c0-.41.138-.748.414-1.016a1.417 1.417 0 011.027-.402h3.875c.41 0 .748.138 1.016.414zM97.008 74.741c-.882-.284-1.709-.764-2.48-1.441-.425-.378-.638-.795-.638-1.253 0-.362.134-.68.401-.956.268-.276.591-.414.969-.414.299 0 .567.094.804.284.63.52 1.244.897 1.842 1.134s1.308.354 2.126.354c.883 0 1.643-.197 2.28-.59.638-.394.958-.883.958-1.466 0-.708-.316-1.264-.946-1.665-.63-.402-1.63-.705-3-.91-3.45-.504-5.174-2.11-5.174-4.82 0-.992.26-1.855.779-2.587.52-.732 1.228-1.292 2.127-1.678.897-.386 1.897-.579 3-.579.993 0 1.926.15 2.8.45.875.299 1.603.693 2.186 1.18.456.363.685.78.685 1.253 0 .362-.134.682-.402.957a1.275 1.275 0 01-.945.414c-.236 0-.448-.072-.638-.213-.41-.33-.98-.634-1.713-.91-.732-.275-1.39-.414-1.972-.414-.993 0-1.76.186-2.304.556-.544.37-.815.855-.815 1.453 0 .677.279 1.19.839 1.536.558.347 1.437.63 2.634.85 1.355.237 2.437.54 3.248.91s1.422.874 1.831 1.512c.41.638.615 1.485.615 2.54 0 .993-.28 1.863-.838 2.611-.56.748-1.304 1.323-2.234 1.725-.93.401-1.93.602-3 .602-1.134 0-2.142-.141-3.025-.425zm25.99-3.792a7.96 7.96 0 01-2.87 3.083c-1.22.756-2.596 1.134-4.123 1.134-1.528 0-2.902-.378-4.123-1.134a7.876 7.876 0 01-2.86-3.083c-.684-1.3-1.027-2.73-1.027-4.289 0-1.56.343-2.989 1.028-4.288a7.882 7.882 0 012.859-3.084c1.22-.755 2.595-1.134 4.123-1.134 1.527 0 2.902.379 4.123 1.134 1.22.757 2.177 1.785 2.87 3.084s1.04 2.729 1.04 4.288c0 1.56-.346 2.99-1.04 4.289zm-2.67-7.16c-.425-.858-1.015-1.54-1.771-2.043s-1.607-.756-2.552-.756c-.96 0-1.815.248-2.563.744-.75.496-1.332 1.177-1.75 2.044-.416.866-.625 1.827-.625 2.882s.209 2.017.626 2.883c.417.867 1 1.548 1.749 2.044.748.496 1.602.744 2.563.744.945 0 1.796-.252 2.552-.756a5.142 5.142 0 001.771-2.044c.426-.858.639-1.815.639-2.87s-.213-2.013-.639-2.872zm18.394 3.486c.527.677.792 1.551.792 2.622 0 1.875-.536 3.182-1.607 3.923-1.072.74-2.347 1.11-3.828 1.11h-5.884c-.409 0-.751-.138-1.027-.414a1.395 1.395 0 01-.413-1.027V59.832c0-.41.138-.752.413-1.028a1.396 1.396 0 011.027-.414h5.956c2.992 0 4.489 1.403 4.489 4.207 0 .708-.17 1.334-.509 1.878s-.823.973-1.453 1.288a4.74 4.74 0 012.044 1.512zm-3.639-5.612c-.323-.323-.775-.484-1.358-.484h-3.899v3.686h3.97c.473 0 .886-.158 1.24-.473.355-.315.532-.74.532-1.276 0-.645-.162-1.13-.485-1.453zm.733 9.959c.417-.394.626-.968.626-1.725 0-.929-.245-1.535-.733-1.819s-1.087-.425-1.795-.425h-4.088v4.56h4.253c.74 0 1.32-.197 1.737-.591zm16.799 1.004c.276.276.414.595.414.957 0 .394-.138.717-.414.97s-.618.377-1.027.377h-7.916a1.39 1.39 0 01-1.027-.414 1.395 1.395 0 01-.413-1.027V59.832c0-.41.137-.752.413-1.028a1.396 1.396 0 011.027-.414h7.916c.41 0 .752.13 1.027.39s.414.595.414 1.005c0 .394-.134.712-.402.957-.267.244-.614.366-1.039.366h-6.403v4.016h5.34c.409 0 .752.13 1.027.39s.414.595.414 1.004c0 .394-.134.713-.401.957-.269.245-.616.367-1.04.367h-5.34v4.37h6.403c.41 0 .752.139 1.027.414zm16.587.484a1.222 1.222 0 01-.106 1.417c-.236.285-.6.426-1.087.426-.378 0-.725-.086-1.04-.26-1.134-.645-1.701-1.96-1.701-3.945 0-.567-.186-1.016-.555-1.347-.371-.33-.902-.496-1.596-.496H158.7v4.584c0 .425-.114.772-.342 1.04-.229.267-.532.401-.91.401a1.83 1.83 0 01-1.193-.414c-.339-.275-.508-.618-.508-1.027V59.832c0-.41.138-.752.413-1.028a1.396 1.396 0 011.028-.414h6.805c.819 0 1.591.222 2.316.662a4.898 4.898 0 011.736 1.82c.433.771.65 1.638.65 2.599 0 .788-.212 1.555-.638 2.303a5.067 5.067 0 01-1.654 1.784c.993.693 1.536 1.623 1.63 2.788a4 4 0 01.07.733c.064.488.127.838.19 1.051a.775.775 0 00.426.485c.204.126.366.291.484.496zm-4.502-7.04c.268-.268.489-.626.662-1.076.173-.448.26-.933.26-1.453 0-.44-.087-.846-.26-1.216-.173-.37-.394-.665-.662-.886s-.543-.331-.826-.331H158.7v5.364h5.175c.283 0 .559-.134.826-.402zM102.079 86.646a.527.527 0 01-.376.152h-6.76c0 .716.146 1.357.439 1.923a3.302 3.302 0 001.251 1.34c.543.329 1.184.493 1.923.493.572 0 1.085-.12 1.538-.358a3.184 3.184 0 001.09-.912c.131-.108.257-.16.377-.16a.45.45 0 01.322.142.447.447 0 01.142.322c0 .131-.06.257-.179.376-.382.465-.862.847-1.44 1.144s-1.188.447-1.832.447c-.918 0-1.729-.197-2.433-.59a4.18 4.18 0 01-1.645-1.654c-.393-.71-.59-1.53-.59-2.459 0-.978.194-1.833.581-2.567.388-.733.904-1.292 1.547-1.68s1.33-.581 2.057-.581c.715 0 1.386.167 2.012.5a3.957 3.957 0 011.528 1.467c.394.644.597 1.406.609 2.289a.485.485 0 01-.161.366zm-5.91-2.87c-.591.477-.969 1.162-1.136 2.056h6.098v-.142a2.834 2.834 0 00-.536-1.405 2.923 2.923 0 00-1.118-.912 3.249 3.249 0 00-1.386-.313c-.691 0-1.332.24-1.922.716zm7.627 5.759c0-.155.077-.275.232-.359a.387.387 0 01.287-.107c.142 0 .274.06.393.18.703.93 1.639 1.394 2.808 1.394.572 0 1.07-.134 1.493-.403.423-.267.635-.658.635-1.17 0-.501-.197-.877-.59-1.127-.394-.25-.942-.465-1.646-.644-.99-.25-1.764-.575-2.325-.975-.56-.398-.84-.985-.84-1.76 0-.49.137-.928.412-1.315a2.68 2.68 0 011.117-.903c.47-.215 1.005-.322 1.6-.322.513 0 1.03.098 1.547.294.519.198.963.51 1.332.94a.425.425 0 01.161.357c0 .143-.06.269-.178.376a.476.476 0 01-.322.107.442.442 0 01-.322-.143 2.835 2.835 0 00-1.019-.734 3.219 3.219 0 00-1.27-.25c-.56 0-1.04.132-1.44.394-.4.262-.599.655-.599 1.18.024.477.242.84.653 1.09.411.251 1.016.478 1.815.68.62.155 1.133.328 1.538.52.405.19.736.458.992.803.256.347.385.805.385 1.377 0 .776-.31 1.393-.93 1.852-.62.46-1.388.688-2.307.688-1.455 0-2.611-.542-3.469-1.627-.095-.155-.143-.286-.143-.393zm14.566-7.324c.483.126.87.296 1.162.51.293.215.438.447.438.698 0 .131-.044.25-.133.357a.413.413 0 01-.331.16.551.551 0 01-.296-.07 1.448 1.448 0 01-.259-.215 1.78 1.78 0 00-.447-.34 3.039 3.039 0 00-.706-.206 5.177 5.177 0 00-.94-.08c-.655 0-1.254.167-1.797.5a3.549 3.549 0 00-1.278 1.36 3.914 3.914 0 00-.465 1.895c0 .716.15 1.36.447 1.932a3.397 3.397 0 001.243 1.35c.53.328 1.136.492 1.815.492.43 0 .772-.036 1.029-.107a3.87 3.87 0 00.76-.305c.083-.047.225-.155.429-.322a1.69 1.69 0 01.25-.187.45.45 0 01.232-.063.44.44 0 01.34.135.49.49 0 01.126.348c0 .203-.144.42-.43.653-.286.232-.68.432-1.18.599-.5.166-1.055.25-1.663.25-.87 0-1.646-.205-2.325-.617s-1.207-.98-1.582-1.708c-.376-.727-.564-1.544-.564-2.45 0-.87.19-1.665.572-2.387a4.427 4.427 0 011.61-1.725c.691-.43 1.484-.644 2.378-.644.56 0 1.082.062 1.565.187zm11.48.188a.554.554 0 01.153.393v8.048a.52.52 0 01-.537.536.52.52 0 01-.536-.536v-1.198c-.299.537-.746.99-1.342 1.36a3.632 3.632 0 01-1.95.553 3.849 3.849 0 01-2.154-.625 4.295 4.295 0 01-1.502-1.717c-.364-.728-.546-1.544-.546-2.45 0-.906.185-1.72.555-2.441.37-.722.873-1.285 1.51-1.69s1.344-.608 2.12-.608a3.85 3.85 0 011.967.518c.596.347 1.043.799 1.342 1.36v-1.11c0-.155.05-.285.15-.393a.509.509 0 01.386-.161c.155 0 .283.054.384.16zm-2.432 7.663c.495-.328.883-.78 1.162-1.359.281-.578.42-1.225.42-1.94 0-.692-.139-1.323-.42-1.896a3.342 3.342 0 00-1.162-1.35 2.96 2.96 0 00-1.671-.492 3 3 0 00-1.673.483 3.288 3.288 0 00-1.162 1.332c-.28.566-.42 1.207-.42 1.923 0 .715.136 1.362.411 1.94a3.274 3.274 0 001.153 1.359 2.99 2.99 0 001.69.492 2.96 2.96 0 001.672-.492zm11.884-7.296c.644.4 1.147.954 1.51 1.663.365.71.546 1.505.546 2.387 0 .894-.181 1.696-.545 2.406a4.197 4.197 0 01-1.502 1.671 3.903 3.903 0 01-2.137.609c-.692 0-1.327-.164-1.905-.492s-1.04-.767-1.386-1.314v4.72a.522.522 0 01-.536.537.522.522 0 01-.537-.537V82.757a.55.55 0 01.152-.394.507.507 0 01.385-.16.51.51 0 01.385.16.552.552 0 01.15.394v1.216c.31-.56.758-1.002 1.343-1.324a3.934 3.934 0 011.931-.483c.786 0 1.502.2 2.146.6zm-.563 7.26a3.237 3.237 0 001.162-1.314c.28-.56.42-1.192.42-1.896 0-.691-.14-1.315-.42-1.868a3.25 3.25 0 00-1.162-1.306 3.04 3.04 0 00-1.673-.474c-.632 0-1.198.155-1.698.465-.502.31-.888.743-1.163 1.296-.274.555-.412 1.184-.412 1.887 0 .704.138 1.336.412 1.896.275.56.661.998 1.163 1.315.5.316 1.066.474 1.698.474a3.04 3.04 0 001.673-.474zm12.402-3.38a.527.527 0 01-.376.152h-6.76c0 .716.146 1.357.438 1.923.292.566.71 1.013 1.252 1.34s1.184.493 1.923.493a3.26 3.26 0 001.538-.358 3.184 3.184 0 001.09-.912c.131-.108.257-.16.376-.16.12 0 .226.047.322.142a.447.447 0 01.143.322c0 .131-.06.257-.179.376-.382.465-.862.847-1.44 1.144s-1.189.447-1.833.447c-.917 0-1.728-.197-2.432-.59s-1.251-.944-1.645-1.654c-.394-.71-.59-1.53-.59-2.459 0-.978.193-1.833.581-2.567.388-.733.903-1.292 1.547-1.68s1.33-.581 2.056-.581c.716 0 1.386.167 2.013.5a3.957 3.957 0 011.528 1.467c.394.644.597 1.406.609 2.289a.485.485 0 01-.161.366zm-5.91-2.87c-.591.477-.97 1.162-1.136 2.056h6.097v-.142a2.834 2.834 0 00-.536-1.405 2.923 2.923 0 00-1.118-.912 3.249 3.249 0 00-1.386-.313c-.69 0-1.331.24-1.921.716zm21.281-1.386a.546.546 0 01.151.402v7.744c0 .93-.193 1.726-.581 2.387a3.85 3.85 0 01-1.591 1.512c-.673.345-1.446.518-2.316.518-.418 0-.856-.054-1.315-.161a5.228 5.228 0 01-1.18-.411c-.328-.167-.516-.34-.563-.519a.395.395 0 01-.125-.286.33.33 0 01.16-.286c.048-.036.108-.054.18-.054s.208.041.411.126l.375.16c.74.287 1.431.43 2.075.43 1.061 0 1.892-.302 2.494-.903.602-.603.903-1.417.903-2.441v-1.11a3.295 3.295 0 01-1.412 1.512 4.056 4.056 0 01-2.021.545c-.823 0-1.565-.205-2.226-.617s-1.184-.98-1.565-1.708c-.382-.727-.572-1.544-.572-2.45 0-.894.19-1.705.572-2.432.38-.727.903-1.297 1.565-1.708s1.397-.616 2.208-.616c.75 0 1.44.187 2.065.563.626.375 1.089.826 1.386 1.35v-1.145c0-.155.051-.285.152-.393a.507.507 0 01.385-.161.52.52 0 01.385.152zM164 90.08a3.24 3.24 0 001.216-1.341c.292-.578.438-1.231.438-1.959 0-.727-.146-1.377-.438-1.949A3.257 3.257 0 00164 83.5a3.318 3.318 0 00-1.762-.474c-.644 0-1.225.164-1.743.492s-.924.778-1.216 1.35c-.293.573-.438 1.21-.438 1.913 0 .716.145 1.36.438 1.932s.698 1.022 1.216 1.35c.518.328 1.1.492 1.743.492.656 0 1.244-.158 1.762-.474zm13.198-7.681a.554.554 0 01.152.393v8.048a.52.52 0 01-.537.536.52.52 0 01-.536-.536v-1.198c-.298.537-.746.99-1.341 1.36a3.632 3.632 0 01-1.95.553c-.799 0-1.516-.208-2.154-.625s-1.139-.99-1.502-1.717c-.364-.728-.546-1.544-.546-2.45s.185-1.72.555-2.441c.369-.722.872-1.285 1.51-1.69s1.344-.608 2.12-.608a3.85 3.85 0 011.967.518c.595.347 1.043.799 1.341 1.36v-1.11c0-.155.05-.285.151-.393.103-.107.23-.161.385-.161s.284.054.385.16zm-2.432 7.663c.494-.328.882-.78 1.162-1.359.28-.578.42-1.225.42-1.94 0-.692-.14-1.323-.42-1.896a3.342 3.342 0 00-1.162-1.35 2.96 2.96 0 00-1.672-.492 3 3 0 00-1.672.483 3.288 3.288 0 00-1.163 1.332c-.28.566-.42 1.207-.42 1.923 0 .715.137 1.362.412 1.94a3.253 3.253 0 001.153 1.359 2.99 2.99 0 001.69.492 2.96 2.96 0 001.672-.492zM192.9 83.16c.506.661.76 1.535.76 2.62v5.06a.52.52 0 01-.537.536.518.518 0 01-.537-.536v-5.008c0-.786-.187-1.427-.562-1.922-.376-.494-.957-.742-1.745-.742-.5 0-.974.12-1.421.358a2.934 2.934 0 00-1.082.974 2.352 2.352 0 00-.41 1.332v5.008a.52.52 0 01-.538.536.518.518 0 01-.537-.536v-5.06c0-.776-.178-1.404-.536-1.887-.358-.483-.918-.725-1.681-.725-.489 0-.95.12-1.386.358a2.975 2.975 0 00-1.055.957c-.268.4-.403.831-.403 1.296v5.061a.52.52 0 01-.536.536.518.518 0 01-.537-.536v-8.01a.522.522 0 01.537-.537.522.522 0 01.536.537v1.036a3.895 3.895 0 011.306-1.216 3.376 3.376 0 011.735-.483c.691 0 1.287.168 1.789.502.5.333.857.822 1.072 1.466.25-.525.71-.983 1.378-1.377.667-.394 1.34-.59 2.02-.59 1.072 0 1.863.33 2.37.992zm11.131 3.486a.527.527 0 01-.376.152h-6.759c0 .716.145 1.357.438 1.923a3.302 3.302 0 001.251 1.34c.543.329 1.184.493 1.923.493.573 0 1.085-.12 1.538-.358a3.184 3.184 0 001.09-.912c.131-.108.257-.16.377-.16.119 0 .226.047.322.142a.447.447 0 01.142.322c0 .131-.06.257-.179.376-.381.465-.861.847-1.44 1.144s-1.188.447-1.832.447c-.918 0-1.729-.196-2.432-.59s-1.252-.944-1.645-1.654-.59-1.53-.59-2.459c0-.978.193-1.833.58-2.567.388-.733.904-1.292 1.548-1.68s1.329-.581 2.056-.581c.716 0 1.386.167 2.012.5a3.957 3.957 0 011.528 1.467c.394.644.597 1.406.61 2.289a.485.485 0 01-.162.366zm-5.91-2.87c-.59.477-.969 1.162-1.136 2.056h6.098v-.142a2.834 2.834 0 00-.536-1.405 2.923 2.923 0 00-1.118-.912 3.249 3.249 0 00-1.386-.313c-.691 0-1.332.24-1.922.716z" class="st0"/><path fill="#fff" d="M28.811 68.28a8.811 8.811 0 006.575 12.286l-.003.953a8.853 8.853 0 0017.707 0l.133-47.057c0-4.89-3.964-8.853-8.85-8.853a8.853 8.853 0 00-8.852 8.853l-.004 1.189a8.813 8.813 0 00-5.684 7.36 8.453 8.453 0 00-4.13 8.77 8.808 8.808 0 00-4.626 7.754 8.808 8.808 0 007.734 8.746z"/><path fill="#ffed00" d="M78.873 68.356a8.811 8.811 0 01-6.575 12.286l.002.952a8.853 8.853 0 01-17.706 0l-.134-47.057c0-4.89 3.965-8.854 8.85-8.854a8.853 8.853 0 018.853 8.854l.004 1.188a8.813 8.813 0 015.684 7.36 8.453 8.453 0 014.13 8.77 8.808 8.808 0 014.626 7.755 8.808 8.808 0 01-7.734 8.746z"/><path fill="none" stroke="#1a1a18" stroke-miterlimit="10" stroke-width="4.078" d="M33.125 106.639l-3.18-10.603a6.67 6.67 0 014.472-8.305l4.648-1.394a6.67 6.67 0 018.305 4.473l3.18 10.603"/><path d="M58.594 111.62L54.06 96.506l-26.566 7.968 4.533 15.116a4.944 4.944 0 006.156 3.315l17.096-5.128a4.944 4.944 0 003.315-6.155zm-16.088 5.836l.043-6.803a3.447 3.447 0 01-2.808-2.416 3.455 3.455 0 116.619-1.985 3.448 3.448 0 01-1.014 3.562l3.779 5.657-6.619 1.985z" class="st0"/><path d="M35.642 34.476a8.847 8.847 0 1117.693 0L53.2 81.504a8.847 8.847 0 11-17.694 0" class="st4"/><path d="M44.917 75.246c-1.961 4.477-7.182 6.52-11.66 4.563s-6.52-7.172-4.56-11.648m-.906-11.438c-3.342-3.533-3.235-9.151.24-12.55s9.001-3.29 12.343.243" class="st4"/><path d="M35.156 66.347c-3.974 2.916-9.524 2.067-12.396-1.895-2.872-3.962-1.979-9.537 1.996-12.453m4.918-9.898c.94-4.794 5.677-8.117 10.577-7.423m7.969 40.54c-4.676-.766-7.905-5.283-7.213-10.09m-1.134-14.024c-1.024-4.77 1.998-9.596 6.75-10.779M33.189 55.509c3.287-3.606 8.97-3.952 12.694-.773m25.145-20.26a8.847 8.847 0 00-17.693 0l.136 47.028a8.847 8.847 0 0017.693 0" class="st4"/><path d="M61.753 75.246c1.961 4.477 7.182 6.52 11.661 4.563s6.52-7.172 4.559-11.648m.907-11.438c3.341-3.533 3.234-9.151-.24-12.55a8.629 8.629 0 00-12.344.243" class="st4"/><path d="M71.514 66.347c3.974 2.916 9.524 2.067 12.396-1.895 2.872-3.962 1.979-9.537-1.995-12.453m-4.919-9.898c-.94-4.794-5.677-8.117-10.577-7.423M58.1 74.867c4.675-.766 7.905-5.283 7.212-10.09m1.485-13.673c1.024-4.77-1.998-9.596-6.75-10.779m13.434 15.184c-3.287-3.606-8.97-3.952-12.694-.773" class="st4"/></svg>