<svg viewBox="0 0 217.38 89" width="218" height="89" xmlns="http://www.w3.org/2000/svg"><path stroke-width="0" d="M0 0h217.38v89H0z"/><path fill="#fff" stroke-width="0" d="M31 34.04h3.11v14.02h8.4l-.37 2.58H31v-16.6zm24.64 10.41c0 3.67-2.17 6.48-6.03 6.48s-5.93-2.73-5.93-6.42 2.23-6.49 6.08-6.49c3.56 0 5.88 2.56 5.88 6.43zm-8.92.02c0 2.49 1.13 4.08 2.97 4.08s2.91-1.56 2.91-4.07c0-2.65-1.05-4.1-2.96-4.1s-2.92 1.41-2.92 4.08zm22.19 4.8c0 3.96-1.52 6.38-5.98 6.38s-5.22-2.37-5.38-3.86h3.04c.28 1.02 1.06 1.64 2.47 1.64 2.41 0 2.92-1.49 2.92-4.05v-.73c-.65 1.17-1.71 1.88-3.6 1.88-3.18 0-5.1-2.6-5.1-6.02 0-3.91 2.32-6.49 5.37-6.49 2.2 0 3.12 1.03 3.34 1.69.02-.41.1-1.18.12-1.4h2.83c-.02.97-.03 2.36-.03 3.55v7.42zm-8.55-4.9c0 2.28 1.16 3.71 2.84 3.71 2.26 0 2.89-1.54 2.89-3.83s-.49-3.81-2.81-3.81c-1.75 0-2.91 1.4-2.91 3.93zm22.8.07c0 3.67-2.17 6.48-6.03 6.48s-5.93-2.73-5.93-6.42 2.23-6.49 6.08-6.49c3.56 0 5.88 2.56 5.88 6.43zm-8.92.02c0 2.49 1.13 4.08 2.97 4.08s2.91-1.56 2.91-4.07c0-2.65-1.05-4.1-2.96-4.1s-2.92 1.41-2.92 4.08zm20.67-10.43v9.92c0 3.44 1.81 4.42 3.72 4.42 2.2 0 3.65-1.13 3.65-4.42v-9.92h3.12v9.77c0 5.58-3.2 7.06-6.82 7.06s-6.8-1.56-6.8-6.96v-9.87h3.13zm13.76 7.37c0-1.06 0-2.18-.02-3.11h2.89c.06.33.11 1.34.12 1.72.44-.87 1.44-2.01 3.68-2.01 2.42 0 4.1 1.59 4.1 4.75v7.88h-2.98V43.1c0-1.55-.55-2.64-2.19-2.64-1.75 0-2.61 1.13-2.61 3.41v6.76h-2.98V41.4zm13.71-8.33h2.98v2.92h-2.98v-2.92zm0 5.22h2.98v12.34h-2.98V38.29zm15.27 12.34l-4.3-16.6h3.31c1.46 6.88 2.54 11.45 2.78 13.3h.02c.56-2.74 2.4-9.22 3.41-13.3h2.85c.9 3.36 2.78 10.49 3.27 13.16h.02c.54-3.39 2.41-10.3 3.11-13.16h3.04l-4.61 16.6h-3.25c-.92-3.72-2.61-9.96-3.13-12.51h-.02c-.57 2.79-2.28 9.01-3.23 12.51h-3.25zm19.5-17.55h2.98V36h-2.98v-2.92zm0 5.22h2.98v12.34h-2.98V38.3zm8.27 6.78c0 1.87.94 3.47 2.78 3.47 1.6 0 2.08-.72 2.43-1.52h2.99c-.45 1.53-1.79 3.89-5.5 3.89-4 0-5.7-3.08-5.7-6.29 0-3.8 1.94-6.62 5.83-6.62 4.15 0 5.55 3.11 5.55 6.04 0 .4 0 .69-.04 1.03h-8.33zm5.37-1.9c-.02-1.64-.75-2.99-2.56-2.99s-2.57 1.26-2.74 2.99h5.3zm0 0zm5.28-1.78c0-1.06 0-2.18-.02-3.11h2.89c.06.33.11 1.34.12 1.72.44-.87 1.44-2.01 3.68-2.01 2.42 0 4.1 1.59 4.1 4.75v7.88h-2.98V43.1c0-1.55-.55-2.64-2.19-2.64-1.75 0-2.61 1.13-2.61 3.41v6.76h-2.98V41.4z"/></svg>