<?xml version="1.0" encoding="UTF-8"?>
<svg xmlns="http://www.w3.org/2000/svg" xmlns:xlink="http://www.w3.org/1999/xlink" version="1.1" id="Layer_1" x="0px" y="0px" viewBox="0 0 1740.7 1000" style="enable-background:new 0 0 1740.7 1000;" xml:space="preserve">
<style type="text/css">
	.st0{fill:#FFFFFF;}
	.st1{fill:#2A2D3D;}
	.st2{fill:#232B57;}
	.st3{fill:#F0F5FF;}
	.st4{fill:#C5D0E6;}
	.st5{fill:#FFED00;}
</style>
<g>
	<g id="Layer_4">
		<path class="st0" d="M1543.8,900.1c77.6-21.7,136.1-64.3,175.9-116.8c5.4-7.1,5.5-16.8,0.3-23.9c-22.5-30.9-64-91.4-74.7-110.4    c-49.3-90.8-30-192.9-57.4-290.1c-31.5-111.6-115.4-187.7-180-279.4c-13.8-19.6-28.2-40.7-48.7-53.6    c-25.4-16.2-54.2-12.4-82.5-10.1L1149.3,27c-20.2,1.8-61.7-0.9-66.3,26.6s17.8,47.3,37.5,57.4c11.6,5.8,13.8,3.7,18.1,15.9    c4.3,12.2,5.8,23.6,9.8,34.9c7.3,20.3,16.2,39.8,26.8,58.5c10.6,18.4,22.3,36.3,34.9,53.3c12.7,17.3,25.4,34.9,34.3,54.2    c7.6,15.9,11.4,33.2,11.3,50.8c-0.9-2.4-2.1-4.6-2.8-6.7c-0.9-2.1-4.3,0.3-1.8,2.4l4,11c-0.4,3.9-1.1,7.7-2.1,11.6    c-0.6,1.8,2.4,2.5,2.5,0.9c0.9-2.5,1.5-5.1,1.8-7.7c15.3,34.6,30.9,69.5,46.4,104.1c18.1,39.8,36.6,79.6,55.9,119.1    c19.3,39.5,32.6,63.2,53.6,101.5c18.7,33.7,82.8,138.4,108.2,177.1C1526.2,899,1535.2,902.4,1543.8,900.1z M1243,114.6l59.1,8.3    c0,0,23.9,42.4,59.4,96.6L1243,114.6z"></path>
		<path class="st1" d="M1358.3,222.1l36.4,66c2.1,4,8.3,0.3,6.1-3.7l-36.1-65.7c-1.5-1.5-3.8-1.6-5.3-0.1    C1358.4,219.5,1358,220.9,1358.3,222.1L1358.3,222.1z"></path>
		<path class="st1" d="M1296.6,351.4c24.1-34,54.2-63.4,88.8-86.8c4-2.5,0.3-8.6-3.4-6.1c-35.7,24-66.7,54.1-91.7,89.1    C1287.6,351.6,1294,355.1,1296.6,351.4L1296.6,351.4z"></path>
		<path class="st0" d="M816.5,375c4.6-15.3,0.9-32.6-6.4-46.7c-2.8-5.5-6.1-10.4-9.2-15.3c0-0.5-0.1-1-0.3-1.5    c-16.5-28.5-37.2-56.8-66.9-73c-16-8.2-33-13.9-50.8-17c-8.9-2.1-18.1-3.4-27.1-4.9s-18.7-3.1-27.9-4.3    c-21.1-2.4-42.4-2.5-62.6,4.3H565c-24.8,15.3-55.1,30.9-79.3,47c-24.2,16.2-47.9,32.9-71.5,49.9l-19,13.8    c7.3-19,14.4-38.3,21.1-57.7c10.4-29.7,19.9-59.7,29.1-89.7l1.8-6.4c26.2-23.5,54.4-44.7,84.5-63.2C553.5,97,582.1,84,600.9,65.8    s16.1-63.2-24-57.4C316.8,45.1,249,302.9,190.2,501.6l-47.3,158.9l-17.3,17.6C100.7,703.2,46.2,754,23.4,775    c-6.3,5.5-8.3,14.4-5.2,22.2c29.1,73.3,76.1,135.8,141.6,187.1c7.4,5.9,17.8,5.7,25.1-0.3c12.2-9.8,23.9-19.6,35.5-29.7    c28-23.8,55.5-48.3,82.2-73.6l25.4-24.2c29.1-16.5,55.6-37.3,78.5-61.7c27.7-29.1,50.8-62.3,72.1-96.3l11.3-18.7    c-0.3,8.9,0,17.8,0.6,26.8c0.5,10.6,2.1,21.1,4.6,31.5c2.3,8.5,7.2,16.2,14.1,21.7c6.5,4.6,14.2,7.2,22.2,7.3    c17.6,0.3,31.5-13.2,38.6-28.2c4-9.3,7-19.1,8.6-29.1c2.1-10.7,3.7-21.7,5.5-32.3c4-25,7.3-50.1,9.5-75.2c0-0.8-0.7-1.5-1.5-1.5    c4-22.9,6.7-46.2,7.7-69.5c0.9-17.3,1.5-34.9-4.9-51c-5.5-12.9-13.7-24.6-24.2-34c-6.5-6.2-13.4-11.9-20.8-17    c19.9-12.7,40.1-25.1,60.3-37.5c22.5-1.2,45.3,3.4,67.8,4c5.2,0.3,10.4,0.2,15.6-0.3c10.1,10.6,23,18.2,37.2,21.9    c15.3,3.8,31.5,1.7,45.3-6.1c6.7-3.9,12.4-9.2,16.8-15.6c4.7-0.9,9.2-2.7,13.2-5.5l4.3-3.4c0.3,0,0.6-0.3,0.6-0.6l0,0h0.3    c2.5-2.5,4.6-5.4,6.1-8.6C817.9,375.8,817.3,375,816.5,375z"></path>
		<path class="st2" d="M1265.8,541.1H538.2c-22.3,0-40.4-18-40.4-40.4V148.9c0-22.3,18-40.4,40.4-40.4h727.6    c22.3,0,40.4,18,40.4,40.4v351.8C1306.2,523,1288,541.1,1265.8,541.1z"></path>
		<path class="st3" d="M1257.4,524.4H565.9c-17.6,0-31.7-14.2-31.7-31.7V157.1c0-17.6,14.2-31.7,31.7-31.7h691.5    c17.6,0,31.7,14.2,31.7,31.7v335.6C1289.1,510.2,1274.9,524.4,1257.4,524.4z"></path>
		<path class="st4" d="M1257.4,125.3H970.5c1.5,31.7-0.3,151.1,2.4,178.8s3.4,65.2,34.6,76.7c11.3,4,40.1,3.4,51.9,4.3    c28.2,2.1,56.8,3.4,85.3,4.3c48.2,1.8,96.3,1.8,144.5,0.3V157C1289.1,139.5,1274.9,125.3,1257.4,125.3z"></path>
		<path class="st4" d="M924.6,163.9l-0.9-38.6H565.9c-17.6,0-31.7,14.2-31.7,31.7v128.9h112.5c68.9,0,138.2,7.5,206.7-2.1    c19.3-2.5,49.3-5.5,60.6-23.9c4.9-8.3,6.4-18.7,7.7-28.2C924.7,209.2,925.7,186.5,924.6,163.9z"></path>
		<path class="st4" d="M1241.8,438.5h-59.7l-60,0.6h-30.5c-3.3-0.3-6.6,0-9.8,0.9c-2.7,1.2-5.1,3.2-6.7,5.8c-2.1,4-3.1,8.4-3.1,12.9    c-0.3,4.9,0,9.5,0,14.4v51h185.4c17.6,0,31.7-14.2,31.7-31.7v-53.9L1241.8,438.5L1241.8,438.5z M1049.2,445.9    c-1.7-3.2-4.8-5.5-8.3-6.1l-31.7,0.6c-19.6,0.3-41.8-0.3-60.6-7.5c-18.7-7.3-25.1-41.5-29.4-66.3c-4.3-24.8-31.7-27.9-52.2-27.4    c-20.5,0.6-41.8,1.5-62.9,1.5H611.5c-4,0-13.8,1.8-17.6,0h-0.6c-19.7-2.7-39.8-1.8-59.1,2.8V493c0,17.6,14.2,31.7,31.7,31.7h486.2    c0-17,0.3-34,0.3-51c0-4.6,0.3-9.5,0-14.4C1052.4,454.6,1051.3,450.1,1049.2,445.9z"></path>
		<path class="st5" d="M909.6,261.1c-26.7,0.2-48.2,21.8-48.2,48.4c0,16.5,18.4,50.5,32.3,74.4c5.2,8.7,16.6,11.7,25.3,6.4    c2.6-1.6,4.8-3.8,6.4-6.4c14.1-23.9,32.6-58,32.6-74.4C958,282.8,936.3,261.1,909.6,261.1z M909.6,335.8    c-14.6,0-26.6-11.9-26.6-26.6c0-14.6,11.9-26.6,26.6-26.6c14.6,0,26.6,11.9,26.6,26.6c0,0.1,0,0.2,0,0.3    c0,14.5-11.8,26.3-26.3,26.3C909.8,335.8,909.7,335.8,909.6,335.8z"></path>
		<path class="st2" d="M1272.4,324.8c0,6.1-4.9,11-11,11c-6.1,0-11-4.9-11-11c0-6.1,4.9-11,11-11l0,0    C1267.5,313.8,1272.4,318.7,1272.4,324.8z"></path>
		<path class="st3" d="M565.9,125.3c-17.6,0-31.7,14.2-31.7,31.7v335.7c0,17.6,14.2,31.7,31.7,31.7h149.7V125.2L565.9,125.3    L565.9,125.3z"></path>
		<path class="st1" d="M573.7,283.3h102.1c2-0.6,3.1-2.6,2.5-4.6c-0.4-1.3-1.4-2.3-2.5-2.5H573.7c-2,0.6-3.1,2.6-2.5,4.6    C571.4,282,572.4,282.9,573.7,283.3z"></path>
		<path class="st1" d="M573.7,315.9h102.1c2-0.6,3.1-2.6,2.5-4.6c-0.4-1.3-1.4-2.3-2.5-2.5H573.7c-2,0.6-3.1,2.6-2.5,4.6    C571.4,314.5,572.4,315.5,573.7,315.9z"></path>
		<path class="st1" d="M573.7,348.2h102.1c2-0.6,3.1-2.6,2.5-4.6c-0.4-1.3-1.4-2.3-2.5-2.5H573.7c-2,0.6-3.1,2.6-2.5,4.6    C571.4,346.9,572.4,347.9,573.7,348.2z"></path>
		<path class="st1" d="M573.7,380.5h102.1c2-0.6,3.1-2.6,2.5-4.6c-0.4-1.3-1.4-2.3-2.5-2.5H573.7c-2,0.6-3.1,2.6-2.5,4.6    C571.4,379.2,572.4,380.1,573.7,380.5z"></path>
		<path class="st1" d="M573.7,412.8h78.2c2-0.6,3.1-2.6,2.5-4.6c-0.4-1.3-1.4-2.3-2.5-2.5h-78.2c-2,0.6-3.1,2.6-2.5,4.6    C571.4,411.4,572.4,412.4,573.7,412.8z"></path>
		<path class="st4" d="M662.2,209.8c0.2,22.9-18.3,41.7-41.2,41.8c-0.1,0-0.2,0-0.3,0c-22.9,0.2-41.7-18.3-41.8-41.2    c0-0.2,0-0.4,0-0.6c2-23,22.2-40.1,45.1-38.2C644.3,173.2,660.5,189.4,662.2,209.8L662.2,209.8z"></path>
		<path class="st0" d="M719.3,535.1c0-0.3-0.3-0.6-0.6-0.9c-14.7-22.5-56.2-11.3-77.3-8.3c-21.1,2.8-48.4,10.1-72.4,16.2l-14.4,3.4    c-23.1,5.6-46.9,8.5-70.6,8.9c-22.1,0.4-44-3.5-64.6-11.6c-2.4-2.6-4.9-4.9-7.7-7c-14.4-9.5-32.9-9.2-49.3-5.2    c-17.8,5-34.6,13.4-49.3,24.8c-15.5,11.3-29.1,25-40.4,40.7C260,614,251,633.9,242.3,653.8c-8.6,19.9-17.6,41.5-24.8,62.9    c-14.1,41.5-22.8,86.8-14.1,130.6c3.4,17.8,9.5,39.5,26.6,49c17.1,9.5,28.2,5.5,42.1,1.2c13.3-0.6,26.7-2.3,39.8-4.9    c42.7-8.9,79.6-31.5,111.6-61.1s54.5-79.6,59.1-90.2c2.5-5.8,13.5-34.6,13.5-34.6l79.3-45.9c26.8-15.3,52.8-31.7,79-48.2    c13.2-8.3,27.1-15.6,40.1-24.5c10.4-6.6,18.8-15.7,24.5-26.6C723.1,553.2,723.9,542.8,719.3,535.1z"></path>
		<path class="st1" d="M380.4,319c49.1,40.7,93.1,87.3,130.9,138.7c2.8,3.7,8.9,0,6.4-3.7c-38.3-51.9-82.8-98.9-132.4-140.1    C381.9,311,376.7,316.2,380.4,319z"></path>
		<path class="st1" d="M465.8,397.5c24.1-15.2,45.8-33.9,64.3-55.7c2.8-3.7-2.1-8.6-5.2-5.2c-17.8,21.5-39.1,39.8-62.9,54.5    C458.3,393.5,461.8,399.8,465.8,397.5L465.8,397.5z"></path>
		<path class="st1" d="M399.2,160.8c15.1,7.7,31.6,12.7,48.4,14.7c4.6,0.6,4.6-6.7,0-7.3c-15.6-2-30.7-6.7-44.7-13.8    C398.6,152.4,395.1,158.4,399.2,160.8z"></path>
		<path class="st1" d="M493.2,721.9c32.3-20.8,64.3-41.8,95.7-63.7c3.7-2.5,0-8.9-3.7-6.1c-31.5,21.7-63.4,43-95.7,63.7    C485.7,718.2,489.2,724.5,493.2,721.9z"></path>
		<path class="st1" d="M347.3,507.9c27.9,15.1,54.6,32.4,79.9,51.6c3.7,2.5,7.3-3.7,3.4-6.4c-25.2-19.2-51.8-36.5-79.6-51.6    C347,499.6,343.2,505.7,347.3,507.9z"></path>
		<path class="st1" d="M429.1,559.9c49,0,96.6-7.7,144.7-16.8c4.6-0.9,2.5-7.7-1.8-7c-47.6,8.6-94.6,16.5-143.1,16.5    c-2,0.6-3.1,2.6-2.5,4.6C427,558.5,428,559.5,429.1,559.9z"></path>
		<path class="st1" d="M712.7,525.3c-21.1,7.5-43.2,16.8-55.7,36.4c-8.9,13.8-13.5,38.9,5.2,47c4.3,2.1,7.7-4.3,3.7-6.1    c-18.1-7.7-7.3-33.1,1.8-43.5c9-10.4,30-20.8,47-26.8C719,530.5,717,523.5,712.7,525.3L712.7,525.3z"></path>
		<path class="st0" d="M1457.5,715.3c-1.8-11-3.1-22.2-5.2-33.1c-4-24.2-8.3-48.4-12.7-72.4s-9.5-48.4-14.4-72.7    c-4.9-24.2-10.7-48.4-16.2-72.4c-2.1-8-3.7-16.5-5.8-24.5l-19-32.3c-22.2-16.2-45-31.7-67.8-46.7l-25.7-16.2    c-8.9-4.8-18.2-9-27.7-12.7l-28.2-10.7l-27.9-11.6c-15.6-7-30.6-14.7-45.9-22.2c-15.3-7.5-26.8-16.2-41.5-15    c-24.8,1.8-28.8,34.3-22.2,52.5c5.9,15.6,15.8,29.4,28.8,39.8c6.7,5.5,13.5,10.7,20.5,15.9l26,19c18.7,13.8,39.2,27.1,55.9,44.1    c16.8,17,33.4,40.7,47.9,62.3c2.5,12.2,5.8,24.2,9.5,36.1c7.4,22.3,16.4,43.9,26.8,64.9c10.4,21.1,21.7,41.8,36.9,59.7    c14.6,16.9,32.3,30.9,51.9,41.5c14.8,7.9,30.9,13.4,47.6,16.2L1457.5,715.3z"></path>
		<path class="st1" d="M1305,356.5c33.5,17.7,65.2,38.6,94.6,62.6c3.4,2.8,8.6-2.4,4.9-5.2c-29.8-24.3-62-45.7-96-63.7    C1304.4,347.9,1301,354.2,1305,356.5z"></path>
		<path class="st1" d="M1370.4,392.3c14.6-4.4,28.9-10,42.7-16.8c4.3-2.1,0.6-8.3-3.4-6.4c-13.2,6.5-27.1,12-41.3,16.2    c-1.8,1.1-2.3,3.4-1.2,5.2C1367.9,391.6,1369.1,392.3,1370.4,392.3z"></path>
		<path class="st1" d="M1293.7,73.4c-4,16.9-2.4,34.6,4.6,50.5c1.8,4.3,8,0.6,6.4-3.7c-6.1-14.2-7.6-29.9-4-45    c0.5-1.9-0.7-3.8-2.5-4.3C1296.2,70.2,1294.2,71.4,1293.7,73.4L1293.7,73.4z"></path>
		<path class="st1" d="M1412.6,717.9l39.5,14.7c4.3,1.8,6.4-5.5,2.1-7l-39.5-14.7C1410.2,709.2,1408.2,716.4,1412.6,717.9z"></path>
		<path class="st1" d="M1098.3,292.9c19.9,15.6,70.6,42.4,88.6,10.4c2.4-4-3.7-7.7-6.1-3.7c-8,14.1-26,11.9-38.9,8    c-14-4.2-27.1-11-38.6-19.9C1099.6,284.7,1094.4,289.9,1098.3,292.9z"></path>
		<path class="st1" d="M392.9,501.1l33.1,39.8c2.8,3.4,8-1.8,5.2-5.2l-33.4-39.8C394.8,492.3,389.9,497.2,392.9,501.1z"></path>
		<path class="st3" d="M1217,158.7h30.3c2-0.6,3.1-2.6,2.5-4.6c-0.4-1.3-1.4-2.3-2.5-2.5H1217c-2,0.6-3.1,2.6-2.5,4.6    C1214.8,157.4,1215.7,158.4,1217,158.7z"></path>
		<path class="st3" d="M1217,170.9h30.3c2-0.6,3.1-2.6,2.5-4.6c-0.4-1.3-1.4-2.3-2.5-2.5H1217c-2,0.6-3.1,2.6-2.5,4.6    C1214.8,169.5,1215.7,170.5,1217,170.9z"></path>
		<path class="st3" d="M1217,182.6h30.3c2-0.6,3.1-2.6,2.5-4.6c-0.4-1.3-1.4-2.3-2.5-2.5H1217c-2,0.6-3.1,2.6-2.5,4.6    C1214.8,181.4,1215.7,182.3,1217,182.6z"></path>
	</g>
</g>
</svg>
