<svg viewBox="0 0 129 129" xmlns="http://www.w3.org/2000/svg"><defs><clipPath id="a"><path fill="none" d="M0 0h129v129H0z"/></clipPath></defs><path fill="#fff100" d="M0 0h129v129H0z"/><g clip-path="url(#a)"><path fill="#231f20" fill-rule="evenodd" d="M19.22 101.1c0 2.82-1.09 5.59-4.34 5.59s-4.56-2.63-4.56-5.48 1.23-5.45 4.42-5.45 4.48 2.63 4.48 5.34M8.03 113.99h2.38v-7.47h.06c1.06 1.71 3.19 2.27 4.67 2.27 4.42 0 6.6-3.44 6.6-7.52s-2.21-7.61-6.66-7.61c-1.99 0-3.83.7-4.61 2.29h-.06v-1.96H8.03v20zm14.73-5.53h2.38v-6.43c0-3.66 1.4-5.84 5.23-5.84v-2.52c-2.57-.08-4.17 1.06-5.31 3.39H25v-3.05h-2.24v14.46zM37.57 91.9h2.52v-2.91h-2.52v2.91zm-5.26 0h2.52v-2.91h-2.52v2.91zm7.1 11.52c0 1.31-1.29 3.27-4.42 3.27-1.45 0-2.8-.56-2.8-2.13 0-1.76 1.34-2.32 2.91-2.6 1.59-.28 3.38-.31 4.31-.98v2.43zm3.86 3.13c-.31.11-.53.14-.73.14-.76 0-.76-.5-.76-1.62v-7.44c0-3.38-2.82-3.97-5.43-3.97-3.22 0-5.98 1.26-6.12 4.84h2.38c.11-2.13 1.59-2.74 3.61-2.74 1.51 0 3.22.33 3.22 2.41 0 1.79-2.24 1.62-4.87 2.13-2.46.48-4.89 1.18-4.89 4.45 0 2.88 2.15 4.06 4.78 4.06 2.01 0 3.78-.7 5.09-2.24 0 1.57.78 2.24 2.01 2.24.76 0 1.29-.14 1.71-.39v-1.85zM55.6 94h-2.49l-3.94 12.05h-.06L45.05 94H42.4l5.37 14.46h2.54L55.6 94zm10.49 9.87c-.42 1.87-1.79 2.82-3.75 2.82-3.16 0-4.59-2.24-4.5-4.75h10.82c.14-3.5-1.43-8.28-6.55-8.28-3.94 0-6.8 3.19-6.8 7.52.14 4.42 2.32 7.61 6.94 7.61 3.24 0 5.54-1.73 6.18-4.92h-2.35zm-8.25-4.03c.17-2.21 1.65-4.08 4.14-4.08 2.35 0 4.06 1.82 4.17 4.08h-8.31zm11.6 8.62h2.38v-8.17c0-2.6 1.4-4.53 4.28-4.53 1.82 0 2.94 1.15 2.94 2.91v9.79h2.38v-9.51c0-3.1-1.18-5.29-4.98-5.29-2.07 0-3.69.84-4.7 2.63h-.06V94h-2.24v14.46zm17.16-18.8h-2.38V94h-2.46v2.1h2.46v9.2c0 2.66.98 3.16 3.44 3.16h1.82v-2.1h-1.09c-1.48 0-1.79-.2-1.79-1.29v-8.98h2.88v-2.1H86.6v-4.34zm4.25 18.8h2.38V94h-2.38v14.46zm2.38-19.97h-2.38v2.91h2.38v-2.91zm1.22 12.75c0 4.22 2.43 7.55 7.02 7.55s7.02-3.33 7.02-7.55-2.43-7.58-7.02-7.58-7.02 3.33-7.02 7.58m2.52 0c0-3.52 2.01-5.48 4.5-5.48s4.5 1.96 4.5 5.48-2.01 5.45-4.5 5.45-4.5-1.96-4.5-5.45m12.64 7.22h2.38v-8.17c0-2.6 1.4-4.53 4.28-4.53 1.82 0 2.94 1.15 2.94 2.91v9.79h2.38v-9.51c0-3.1-1.18-5.29-4.98-5.29-2.07 0-3.69.84-4.7 2.63h-.06V94h-2.24v14.46zM62.04 81.52c.14 3.58 2.88 4.9 6.12 4.9 2.94 0 6.15-1.12 6.15-4.56 0-2.8-2.35-3.58-4.73-4.11-2.21-.53-4.73-.81-4.73-2.52 0-1.45 1.65-1.85 3.08-1.85 1.57 0 3.19.59 3.36 2.43h2.38c-.2-3.52-2.74-4.53-5.93-4.53-2.52 0-5.4 1.2-5.4 4.11s2.38 3.55 4.73 4.08c2.38.53 4.73.84 4.73 2.69s-2.01 2.15-3.5 2.15c-1.96 0-3.8-.67-3.89-2.8h-2.38zm25.2-9.9h-2.38v8.17c0 2.6-1.4 4.53-4.28 4.53-1.82 0-2.94-1.15-2.94-2.91v-9.79h-2.38v9.51c0 3.1 1.18 5.29 4.98 5.29 2.07 0 3.69-.84 4.7-2.63H85v2.29h2.24V71.62zm14.18 4.64c-.34-3.44-2.97-4.98-6.24-4.98-4.59 0-6.82 3.41-6.82 7.75s2.35 7.38 6.77 7.38c3.64 0 5.85-2.1 6.38-5.62h-2.43c-.31 2.18-1.68 3.52-3.97 3.52-3.02 0-4.22-2.63-4.22-5.29 0-2.94 1.06-5.65 4.5-5.65 1.96 0 3.22 1.06 3.58 2.88h2.46zm1.06 9.82h2.38v-8.17c0-2.6 1.4-4.53 4.28-4.53 1.82 0 2.94 1.15 2.94 2.91v9.79h2.38v-9.51c0-3.1-1.18-5.29-4.98-5.29-1.73 0-3.78.73-4.56 2.46h-.06V66.1h-2.38v19.97zm17.17-18.8h-2.38v4.34h-2.46v2.1h2.46v9.2c0 2.66.98 3.16 3.44 3.16h1.82v-2.1h-1.09c-1.48 0-1.79-.2-1.79-1.29v-8.98h2.88v-2.1h-2.88v-4.34z"/><path fill="#7d7f80" fill-rule="evenodd" d="M48.96 63.7h2.38V49.24h-2.38V63.7zm2.38-19.97h-2.38v2.91h2.38v-2.91zm2.29 19.97h2.38v-8.17c0-2.6 1.4-4.53 4.28-4.53 1.82 0 2.94 1.15 2.94 2.91v9.79h2.38v-9.51c0-3.1-1.18-5.29-4.98-5.29-2.07 0-3.69.84-4.7 2.63h-.06v-2.29h-2.24V63.7zm13.5-4.55c.14 3.58 2.88 4.9 6.12 4.9 2.94 0 6.15-1.12 6.15-4.56 0-2.8-2.35-3.58-4.73-4.11-2.21-.53-4.73-.81-4.73-2.52 0-1.45 1.65-1.85 3.08-1.85 1.57 0 3.19.59 3.36 2.43h2.38c-.2-3.52-2.74-4.53-5.93-4.53-2.52 0-5.4 1.2-5.4 4.11s2.38 3.55 4.73 4.08c2.38.53 4.73.84 4.73 2.69s-2.01 2.15-3.5 2.15c-1.96 0-3.8-.67-3.89-2.8h-2.38zm17.09-14.24h-2.38v4.34h-2.46v2.1h2.46v9.2c0 2.66.98 3.16 3.44 3.16h1.82v-2.1h-1.09c-1.48 0-1.79-.2-1.79-1.29v-8.98h2.88v-2.1h-2.88V44.9zm4.53 18.79h2.38V49.24h-2.38V63.7zm2.38-19.97h-2.38v2.91h2.38v-2.91zm6.21 1.18h-2.38v4.34H92.5v2.1h2.46v9.2c0 2.66.98 3.16 3.44 3.16h1.82v-2.1h-1.09c-1.48 0-1.79-.2-1.79-1.29v-8.98h2.88v-2.1h-2.88V44.9zm16.35 4.33h-2.38v8.17c0 2.6-1.4 4.53-4.28 4.53-1.82 0-2.94-1.15-2.94-2.91v-9.79h-2.38v9.51c0 3.1 1.18 5.29 4.98 5.29 2.07 0 3.69-.84 4.7-2.63h.06v2.29h2.24V49.24zm5.96-4.33h-2.38v4.34h-2.46v2.1h2.46v9.2c0 2.66.98 3.16 3.44 3.16h1.82v-2.1h-1.09c-1.48 0-1.79-.2-1.79-1.29v-8.98h2.88v-2.1h-2.88V44.9z"/><path fill="#231f20" d="M53.56 115.81h.96v.77c.2-.27.41-.47.65-.62.33-.22.72-.33 1.17-.33.67 0 1.23.25 1.69.76.46.51.7 1.23.7 2.18 0 1.27-.33 2.18-1 2.73-.43.34-.92.52-1.48.52-.44 0-.81-.1-1.11-.29-.18-.11-.37-.3-.59-.56v2.99h-.98v-8.15zm3.7 4.58c.3-.38.46-.96.46-1.72 0-.47-.07-.87-.2-1.2-.26-.65-.72-.97-1.4-.97s-1.15.34-1.4 1.02c-.13.36-.2.83-.2 1.39 0 .45.07.84.2 1.15.26.6.72.91 1.4.91.46 0 .84-.19 1.15-.58m2.56-4.61h.93v1.01c.08-.2.26-.44.56-.72.3-.28.64-.42 1.03-.42h.09c.04 0 .12.01.22.02v1.04c-.06-.01-.11-.02-.16-.02h-.16c-.49 0-.88.16-1.14.48-.27.32-.4.69-.4 1.1v3.36h-.98v-5.85zm7.88.58c.52.5.77 1.24.77 2.22s-.23 1.72-.68 2.33c-.46.61-1.16.92-2.12.92-.8 0-1.43-.27-1.9-.82-.47-.54-.7-1.27-.7-2.19 0-.98.25-1.76.74-2.35.49-.58 1.16-.87 1.99-.87.75 0 1.38.25 1.9.75m-.61 3.89c.24-.49.36-1.04.36-1.64 0-.55-.09-.99-.26-1.33-.27-.54-.74-.81-1.41-.81-.59 0-1.03.23-1.3.69-.27.46-.4 1.01-.4 1.66s.14 1.14.4 1.55c.27.42.7.62 1.29.62.64 0 1.08-.25 1.33-.74m5.3-4.46h.97v.83c.23-.29.45-.5.63-.63.32-.22.69-.33 1.1-.33.47 0 .84.11 1.12.34.16.13.31.32.44.58.22-.31.48-.55.77-.7.3-.15.63-.23.99-.23.79 0 1.32.28 1.6.85.15.31.23.72.23 1.23v3.89h-1.02v-4.06c0-.39-.1-.66-.29-.8-.19-.15-.43-.22-.71-.22-.39 0-.72.13-1 .39s-.42.69-.42 1.29v3.4h-1v-3.82c0-.4-.05-.69-.14-.87-.15-.27-.43-.41-.84-.41-.37 0-.71.14-1.01.43-.31.29-.46.81-.46 1.56v3.1h-.98v-5.85zm12.87.16c.39.2.68.45.88.76.2.29.33.64.39 1.03.06.27.09.7.09 1.29h-4.25c.02.6.16 1.07.42 1.43.26.36.66.54 1.21.54.51 0 .92-.17 1.22-.51.17-.2.29-.43.36-.69h.96c-.02.22-.11.46-.25.72-.15.26-.31.48-.48.65-.3.29-.66.49-1.1.59-.23.06-.5.09-.8.09-.72 0-1.34-.26-1.84-.79s-.75-1.27-.75-2.23.25-1.7.76-2.29c.51-.59 1.17-.88 1.99-.88.41 0 .81.1 1.2.29m.35 2.3c-.04-.43-.13-.77-.28-1.02-.27-.47-.71-.71-1.34-.71-.45 0-.82.16-1.13.49-.3.32-.46.74-.48 1.24h3.22zm2.19-2.46h.93v.83c.28-.34.57-.59.88-.74.31-.15.65-.22 1.03-.22.83 0 1.39.29 1.68.87.16.32.24.77.24 1.36v3.75h-1v-3.69c0-.36-.05-.64-.16-.86-.17-.36-.49-.55-.95-.55-.23 0-.43.02-.57.07-.27.08-.51.24-.71.48-.16.19-.27.39-.32.6-.05.21-.07.5-.07.88v3.06h-.98v-5.85zm6.36-1.64h.99v1.63h.93v.8h-.93v3.82c0 .2.07.34.21.41.08.04.2.06.38.06h.15c.05 0 .12 0 .19-.02v.78c-.11.03-.23.06-.35.07-.12.02-.25.02-.4.02-.46 0-.77-.12-.93-.35-.17-.23-.25-.54-.25-.91v-3.87h-.79v-.8h.79v-1.63zm6.46 1.8c.39.2.68.45.88.76.2.29.33.64.39 1.03.06.27.09.7.09 1.29h-4.25c.02.6.16 1.07.42 1.43.26.36.66.54 1.21.54.51 0 .92-.17 1.22-.51.17-.2.29-.43.36-.69h.97c-.03.22-.11.46-.25.72-.15.26-.3.48-.48.65-.3.29-.66.49-1.1.59-.23.06-.5.09-.8.09-.72 0-1.34-.26-1.84-.79s-.75-1.27-.75-2.23.25-1.7.76-2.29c.51-.59 1.17-.88 1.99-.88.41 0 .81.1 1.2.29m.35 2.3c-.04-.43-.13-.77-.28-1.02-.27-.47-.71-.71-1.34-.71-.45 0-.82.16-1.13.49-.3.32-.46.74-.48 1.24h3.22zm11.86-3.49c.53.71.8 1.62.8 2.72 0 1.2-.3 2.19-.91 2.99-.71.93-1.73 1.4-3.05 1.4-1.23 0-2.2-.41-2.91-1.22-.63-.79-.94-1.78-.94-2.98 0-1.08.27-2.01.81-2.79.69-.99 1.71-1.48 3.07-1.48s2.46.45 3.15 1.36m-.96 5.11c.43-.69.64-1.48.64-2.37 0-.94-.25-1.7-.74-2.28-.49-.58-1.17-.86-2.02-.86s-1.51.29-2.03.86c-.52.57-.79 1.41-.79 2.52 0 .89.22 1.64.67 2.25.45.61 1.18.91 2.19.91.96 0 1.65-.34 2.08-1.03m9.58-5.11c.53.71.8 1.62.8 2.72 0 1.2-.3 2.19-.91 2.99-.71.93-1.73 1.4-3.05 1.4-1.23 0-2.2-.41-2.91-1.22-.63-.79-.95-1.78-.95-2.98 0-1.08.27-2.01.81-2.78.69-.99 1.71-1.48 3.07-1.48s2.46.45 3.14 1.36m-.96 5.11c.43-.69.64-1.48.64-2.37 0-.94-.25-1.7-.74-2.28-.49-.58-1.17-.86-2.02-.86s-1.51.28-2.03.86c-.52.57-.79 1.41-.79 2.52 0 .89.22 1.64.67 2.25.45.61 1.18.92 2.19.92.96 0 1.65-.34 2.08-1.03m-3.44-8.38h1.02v1.14h-1.02v-1.14zm1.8 0h1.02v1.14h-1.02v-1.14z"/></g></svg>